<mxfile host="app.diagrams.net" modified="2023-10-24T00:39:56.037Z" agent="Mozilla/5.0 (Windows NT 10.0; Win64; x64) AppleWebKit/537.36 (KHTML, like Gecko) Chrome/118.0.0.0 Safari/537.36" etag="O7j4dRy4tIyyPIVUvsru" version="22.0.6" type="device">
  <diagram id="R2lEEEUBdFMjLlhIrx00" name="Page-1">
    <mxGraphModel dx="3238" dy="1243" grid="1" gridSize="10" guides="1" tooltips="1" connect="1" arrows="1" fold="1" page="1" pageScale="1" pageWidth="850" pageHeight="1100" math="0" shadow="0" extFonts="Permanent Marker^https://fonts.googleapis.com/css?family=Permanent+Marker">
      <root>
        <mxCell id="0" />
        <mxCell id="1" parent="0" />
        <mxCell id="C-vyLk0tnHw3VtMMgP7b-1" value="" style="edgeStyle=entityRelationEdgeStyle;endArrow=ERzeroToMany;startArrow=ERone;endFill=1;startFill=0;" parent="1" source="C-vyLk0tnHw3VtMMgP7b-24" target="C-vyLk0tnHw3VtMMgP7b-6" edge="1">
          <mxGeometry width="100" height="100" relative="1" as="geometry">
            <mxPoint x="340" y="720" as="sourcePoint" />
            <mxPoint x="440" y="620" as="targetPoint" />
          </mxGeometry>
        </mxCell>
        <mxCell id="C-vyLk0tnHw3VtMMgP7b-2" value="Machine     " style="shape=table;startSize=30;container=1;collapsible=1;childLayout=tableLayout;fixedRows=1;rowLines=0;fontStyle=1;align=center;resizeLast=1;" parent="1" vertex="1">
          <mxGeometry x="450" y="120" width="250" height="330" as="geometry" />
        </mxCell>
        <mxCell id="C-vyLk0tnHw3VtMMgP7b-3" value="" style="shape=partialRectangle;collapsible=0;dropTarget=0;pointerEvents=0;fillColor=none;points=[[0,0.5],[1,0.5]];portConstraint=eastwest;top=0;left=0;right=0;bottom=1;" parent="C-vyLk0tnHw3VtMMgP7b-2" vertex="1">
          <mxGeometry y="30" width="250" height="30" as="geometry" />
        </mxCell>
        <mxCell id="C-vyLk0tnHw3VtMMgP7b-4" value="PK" style="shape=partialRectangle;overflow=hidden;connectable=0;fillColor=none;top=0;left=0;bottom=0;right=0;fontStyle=1;" parent="C-vyLk0tnHw3VtMMgP7b-3" vertex="1">
          <mxGeometry width="30" height="30" as="geometry">
            <mxRectangle width="30" height="30" as="alternateBounds" />
          </mxGeometry>
        </mxCell>
        <mxCell id="C-vyLk0tnHw3VtMMgP7b-5" value=" MachineID (PK)" style="shape=partialRectangle;overflow=hidden;connectable=0;fillColor=none;top=0;left=0;bottom=0;right=0;align=left;spacingLeft=6;fontStyle=5;" parent="C-vyLk0tnHw3VtMMgP7b-3" vertex="1">
          <mxGeometry x="30" width="220" height="30" as="geometry">
            <mxRectangle width="220" height="30" as="alternateBounds" />
          </mxGeometry>
        </mxCell>
        <mxCell id="C-vyLk0tnHw3VtMMgP7b-6" value="" style="shape=partialRectangle;collapsible=0;dropTarget=0;pointerEvents=0;fillColor=none;points=[[0,0.5],[1,0.5]];portConstraint=eastwest;top=0;left=0;right=0;bottom=0;" parent="C-vyLk0tnHw3VtMMgP7b-2" vertex="1">
          <mxGeometry y="60" width="250" height="30" as="geometry" />
        </mxCell>
        <mxCell id="C-vyLk0tnHw3VtMMgP7b-7" value="" style="shape=partialRectangle;overflow=hidden;connectable=0;fillColor=none;top=0;left=0;bottom=0;right=0;" parent="C-vyLk0tnHw3VtMMgP7b-6" vertex="1">
          <mxGeometry width="30" height="30" as="geometry">
            <mxRectangle width="30" height="30" as="alternateBounds" />
          </mxGeometry>
        </mxCell>
        <mxCell id="C-vyLk0tnHw3VtMMgP7b-8" value="Label           " style="shape=partialRectangle;overflow=hidden;connectable=0;fillColor=none;top=0;left=0;bottom=0;right=0;align=left;spacingLeft=6;" parent="C-vyLk0tnHw3VtMMgP7b-6" vertex="1">
          <mxGeometry x="30" width="220" height="30" as="geometry">
            <mxRectangle width="220" height="30" as="alternateBounds" />
          </mxGeometry>
        </mxCell>
        <mxCell id="C-vyLk0tnHw3VtMMgP7b-9" value="" style="shape=partialRectangle;collapsible=0;dropTarget=0;pointerEvents=0;fillColor=none;points=[[0,0.5],[1,0.5]];portConstraint=eastwest;top=0;left=0;right=0;bottom=0;" parent="C-vyLk0tnHw3VtMMgP7b-2" vertex="1">
          <mxGeometry y="90" width="250" height="30" as="geometry" />
        </mxCell>
        <mxCell id="C-vyLk0tnHw3VtMMgP7b-10" value="" style="shape=partialRectangle;overflow=hidden;connectable=0;fillColor=none;top=0;left=0;bottom=0;right=0;" parent="C-vyLk0tnHw3VtMMgP7b-9" vertex="1">
          <mxGeometry width="30" height="30" as="geometry">
            <mxRectangle width="30" height="30" as="alternateBounds" />
          </mxGeometry>
        </mxCell>
        <mxCell id="C-vyLk0tnHw3VtMMgP7b-11" value="Inventory ID" style="shape=partialRectangle;overflow=hidden;connectable=0;fillColor=none;top=0;left=0;bottom=0;right=0;align=left;spacingLeft=6;" parent="C-vyLk0tnHw3VtMMgP7b-9" vertex="1">
          <mxGeometry x="30" width="220" height="30" as="geometry">
            <mxRectangle width="220" height="30" as="alternateBounds" />
          </mxGeometry>
        </mxCell>
        <mxCell id="UP393FumJZP2tE8MnSL_-13" value="" style="shape=partialRectangle;collapsible=0;dropTarget=0;pointerEvents=0;fillColor=none;points=[[0,0.5],[1,0.5]];portConstraint=eastwest;top=0;left=0;right=0;bottom=0;" parent="C-vyLk0tnHw3VtMMgP7b-2" vertex="1">
          <mxGeometry y="120" width="250" height="30" as="geometry" />
        </mxCell>
        <mxCell id="UP393FumJZP2tE8MnSL_-14" value="" style="shape=partialRectangle;overflow=hidden;connectable=0;fillColor=none;top=0;left=0;bottom=0;right=0;" parent="UP393FumJZP2tE8MnSL_-13" vertex="1">
          <mxGeometry width="30" height="30" as="geometry">
            <mxRectangle width="30" height="30" as="alternateBounds" />
          </mxGeometry>
        </mxCell>
        <mxCell id="UP393FumJZP2tE8MnSL_-15" value="Machine Type" style="shape=partialRectangle;overflow=hidden;connectable=0;fillColor=none;top=0;left=0;bottom=0;right=0;align=left;spacingLeft=6;" parent="UP393FumJZP2tE8MnSL_-13" vertex="1">
          <mxGeometry x="30" width="220" height="30" as="geometry">
            <mxRectangle width="220" height="30" as="alternateBounds" />
          </mxGeometry>
        </mxCell>
        <mxCell id="UP393FumJZP2tE8MnSL_-16" value="" style="shape=partialRectangle;collapsible=0;dropTarget=0;pointerEvents=0;fillColor=none;points=[[0,0.5],[1,0.5]];portConstraint=eastwest;top=0;left=0;right=0;bottom=0;" parent="C-vyLk0tnHw3VtMMgP7b-2" vertex="1">
          <mxGeometry y="150" width="250" height="30" as="geometry" />
        </mxCell>
        <mxCell id="UP393FumJZP2tE8MnSL_-17" value="" style="shape=partialRectangle;overflow=hidden;connectable=0;fillColor=none;top=0;left=0;bottom=0;right=0;" parent="UP393FumJZP2tE8MnSL_-16" vertex="1">
          <mxGeometry width="30" height="30" as="geometry">
            <mxRectangle width="30" height="30" as="alternateBounds" />
          </mxGeometry>
        </mxCell>
        <mxCell id="UP393FumJZP2tE8MnSL_-18" value="Machine Pric" style="shape=partialRectangle;overflow=hidden;connectable=0;fillColor=none;top=0;left=0;bottom=0;right=0;align=left;spacingLeft=6;" parent="UP393FumJZP2tE8MnSL_-16" vertex="1">
          <mxGeometry x="30" width="220" height="30" as="geometry">
            <mxRectangle width="220" height="30" as="alternateBounds" />
          </mxGeometry>
        </mxCell>
        <mxCell id="UP393FumJZP2tE8MnSL_-19" value="" style="shape=partialRectangle;collapsible=0;dropTarget=0;pointerEvents=0;fillColor=none;points=[[0,0.5],[1,0.5]];portConstraint=eastwest;top=0;left=0;right=0;bottom=0;" parent="C-vyLk0tnHw3VtMMgP7b-2" vertex="1">
          <mxGeometry y="180" width="250" height="30" as="geometry" />
        </mxCell>
        <mxCell id="UP393FumJZP2tE8MnSL_-20" value="" style="shape=partialRectangle;overflow=hidden;connectable=0;fillColor=none;top=0;left=0;bottom=0;right=0;" parent="UP393FumJZP2tE8MnSL_-19" vertex="1">
          <mxGeometry width="30" height="30" as="geometry">
            <mxRectangle width="30" height="30" as="alternateBounds" />
          </mxGeometry>
        </mxCell>
        <mxCell id="UP393FumJZP2tE8MnSL_-21" value="In Maintenance" style="shape=partialRectangle;overflow=hidden;connectable=0;fillColor=none;top=0;left=0;bottom=0;right=0;align=left;spacingLeft=6;" parent="UP393FumJZP2tE8MnSL_-19" vertex="1">
          <mxGeometry x="30" width="220" height="30" as="geometry">
            <mxRectangle width="220" height="30" as="alternateBounds" />
          </mxGeometry>
        </mxCell>
        <mxCell id="UP393FumJZP2tE8MnSL_-22" value="" style="shape=partialRectangle;collapsible=0;dropTarget=0;pointerEvents=0;fillColor=none;points=[[0,0.5],[1,0.5]];portConstraint=eastwest;top=0;left=0;right=0;bottom=0;" parent="C-vyLk0tnHw3VtMMgP7b-2" vertex="1">
          <mxGeometry y="210" width="250" height="30" as="geometry" />
        </mxCell>
        <mxCell id="UP393FumJZP2tE8MnSL_-23" value="" style="shape=partialRectangle;overflow=hidden;connectable=0;fillColor=none;top=0;left=0;bottom=0;right=0;" parent="UP393FumJZP2tE8MnSL_-22" vertex="1">
          <mxGeometry width="30" height="30" as="geometry">
            <mxRectangle width="30" height="30" as="alternateBounds" />
          </mxGeometry>
        </mxCell>
        <mxCell id="UP393FumJZP2tE8MnSL_-24" value="Maintenance Start Date" style="shape=partialRectangle;overflow=hidden;connectable=0;fillColor=none;top=0;left=0;bottom=0;right=0;align=left;spacingLeft=6;" parent="UP393FumJZP2tE8MnSL_-22" vertex="1">
          <mxGeometry x="30" width="220" height="30" as="geometry">
            <mxRectangle width="220" height="30" as="alternateBounds" />
          </mxGeometry>
        </mxCell>
        <mxCell id="UP393FumJZP2tE8MnSL_-25" value="" style="shape=partialRectangle;collapsible=0;dropTarget=0;pointerEvents=0;fillColor=none;points=[[0,0.5],[1,0.5]];portConstraint=eastwest;top=0;left=0;right=0;bottom=0;" parent="C-vyLk0tnHw3VtMMgP7b-2" vertex="1">
          <mxGeometry y="240" width="250" height="30" as="geometry" />
        </mxCell>
        <mxCell id="UP393FumJZP2tE8MnSL_-26" value="" style="shape=partialRectangle;overflow=hidden;connectable=0;fillColor=none;top=0;left=0;bottom=0;right=0;" parent="UP393FumJZP2tE8MnSL_-25" vertex="1">
          <mxGeometry width="30" height="30" as="geometry">
            <mxRectangle width="30" height="30" as="alternateBounds" />
          </mxGeometry>
        </mxCell>
        <mxCell id="UP393FumJZP2tE8MnSL_-27" value="Maintenance End Date" style="shape=partialRectangle;overflow=hidden;connectable=0;fillColor=none;top=0;left=0;bottom=0;right=0;align=left;spacingLeft=6;" parent="UP393FumJZP2tE8MnSL_-25" vertex="1">
          <mxGeometry x="30" width="220" height="30" as="geometry">
            <mxRectangle width="220" height="30" as="alternateBounds" />
          </mxGeometry>
        </mxCell>
        <mxCell id="UP393FumJZP2tE8MnSL_-28" value="" style="shape=partialRectangle;collapsible=0;dropTarget=0;pointerEvents=0;fillColor=none;points=[[0,0.5],[1,0.5]];portConstraint=eastwest;top=0;left=0;right=0;bottom=0;" parent="C-vyLk0tnHw3VtMMgP7b-2" vertex="1">
          <mxGeometry y="270" width="250" height="30" as="geometry" />
        </mxCell>
        <mxCell id="UP393FumJZP2tE8MnSL_-29" value="" style="shape=partialRectangle;overflow=hidden;connectable=0;fillColor=none;top=0;left=0;bottom=0;right=0;" parent="UP393FumJZP2tE8MnSL_-28" vertex="1">
          <mxGeometry width="30" height="30" as="geometry">
            <mxRectangle width="30" height="30" as="alternateBounds" />
          </mxGeometry>
        </mxCell>
        <mxCell id="UP393FumJZP2tE8MnSL_-30" value="Creation Date" style="shape=partialRectangle;overflow=hidden;connectable=0;fillColor=none;top=0;left=0;bottom=0;right=0;align=left;spacingLeft=6;" parent="UP393FumJZP2tE8MnSL_-28" vertex="1">
          <mxGeometry x="30" width="220" height="30" as="geometry">
            <mxRectangle width="220" height="30" as="alternateBounds" />
          </mxGeometry>
        </mxCell>
        <mxCell id="UP393FumJZP2tE8MnSL_-33" value="" style="shape=partialRectangle;collapsible=0;dropTarget=0;pointerEvents=0;fillColor=none;points=[[0,0.5],[1,0.5]];portConstraint=eastwest;top=0;left=0;right=0;bottom=0;" parent="C-vyLk0tnHw3VtMMgP7b-2" vertex="1">
          <mxGeometry y="300" width="250" height="30" as="geometry" />
        </mxCell>
        <mxCell id="UP393FumJZP2tE8MnSL_-34" value="" style="shape=partialRectangle;overflow=hidden;connectable=0;fillColor=none;top=0;left=0;bottom=0;right=0;" parent="UP393FumJZP2tE8MnSL_-33" vertex="1">
          <mxGeometry width="30" height="30" as="geometry">
            <mxRectangle width="30" height="30" as="alternateBounds" />
          </mxGeometry>
        </mxCell>
        <mxCell id="UP393FumJZP2tE8MnSL_-35" value="user_id" style="shape=partialRectangle;overflow=hidden;connectable=0;fillColor=none;top=0;left=0;bottom=0;right=0;align=left;spacingLeft=6;" parent="UP393FumJZP2tE8MnSL_-33" vertex="1">
          <mxGeometry x="30" width="220" height="30" as="geometry">
            <mxRectangle width="220" height="30" as="alternateBounds" />
          </mxGeometry>
        </mxCell>
        <mxCell id="C-vyLk0tnHw3VtMMgP7b-13" value="Excavator (Subtype of Machine):" style="shape=table;startSize=30;container=1;collapsible=1;childLayout=tableLayout;fixedRows=1;rowLines=0;fontStyle=1;align=center;resizeLast=1;" parent="1" vertex="1">
          <mxGeometry x="450" y="520" width="250" height="160" as="geometry" />
        </mxCell>
        <mxCell id="C-vyLk0tnHw3VtMMgP7b-14" value="" style="shape=partialRectangle;collapsible=0;dropTarget=0;pointerEvents=0;fillColor=none;points=[[0,0.5],[1,0.5]];portConstraint=eastwest;top=0;left=0;right=0;bottom=1;" parent="C-vyLk0tnHw3VtMMgP7b-13" vertex="1">
          <mxGeometry y="30" width="250" height="30" as="geometry" />
        </mxCell>
        <mxCell id="C-vyLk0tnHw3VtMMgP7b-15" value="PK" style="shape=partialRectangle;overflow=hidden;connectable=0;fillColor=none;top=0;left=0;bottom=0;right=0;fontStyle=1;" parent="C-vyLk0tnHw3VtMMgP7b-14" vertex="1">
          <mxGeometry width="30" height="30" as="geometry">
            <mxRectangle width="30" height="30" as="alternateBounds" />
          </mxGeometry>
        </mxCell>
        <mxCell id="C-vyLk0tnHw3VtMMgP7b-16" value="ExcavatorID (Primary Key)" style="shape=partialRectangle;overflow=hidden;connectable=0;fillColor=none;top=0;left=0;bottom=0;right=0;align=left;spacingLeft=6;fontStyle=5;" parent="C-vyLk0tnHw3VtMMgP7b-14" vertex="1">
          <mxGeometry x="30" width="220" height="30" as="geometry">
            <mxRectangle width="220" height="30" as="alternateBounds" />
          </mxGeometry>
        </mxCell>
        <mxCell id="C-vyLk0tnHw3VtMMgP7b-17" value="" style="shape=partialRectangle;collapsible=0;dropTarget=0;pointerEvents=0;fillColor=none;points=[[0,0.5],[1,0.5]];portConstraint=eastwest;top=0;left=0;right=0;bottom=0;" parent="C-vyLk0tnHw3VtMMgP7b-13" vertex="1">
          <mxGeometry y="60" width="250" height="30" as="geometry" />
        </mxCell>
        <mxCell id="C-vyLk0tnHw3VtMMgP7b-18" value="" style="shape=partialRectangle;overflow=hidden;connectable=0;fillColor=none;top=0;left=0;bottom=0;right=0;" parent="C-vyLk0tnHw3VtMMgP7b-17" vertex="1">
          <mxGeometry width="30" height="30" as="geometry">
            <mxRectangle width="30" height="30" as="alternateBounds" />
          </mxGeometry>
        </mxCell>
        <mxCell id="C-vyLk0tnHw3VtMMgP7b-19" value="Bucket Capacity int NOT NULL" style="shape=partialRectangle;overflow=hidden;connectable=0;fillColor=none;top=0;left=0;bottom=0;right=0;align=left;spacingLeft=6;" parent="C-vyLk0tnHw3VtMMgP7b-17" vertex="1">
          <mxGeometry x="30" width="220" height="30" as="geometry">
            <mxRectangle width="220" height="30" as="alternateBounds" />
          </mxGeometry>
        </mxCell>
        <mxCell id="C-vyLk0tnHw3VtMMgP7b-20" value="" style="shape=partialRectangle;collapsible=0;dropTarget=0;pointerEvents=0;fillColor=none;points=[[0,0.5],[1,0.5]];portConstraint=eastwest;top=0;left=0;right=0;bottom=0;" parent="C-vyLk0tnHw3VtMMgP7b-13" vertex="1">
          <mxGeometry y="90" width="250" height="30" as="geometry" />
        </mxCell>
        <mxCell id="C-vyLk0tnHw3VtMMgP7b-21" value="" style="shape=partialRectangle;overflow=hidden;connectable=0;fillColor=none;top=0;left=0;bottom=0;right=0;" parent="C-vyLk0tnHw3VtMMgP7b-20" vertex="1">
          <mxGeometry width="30" height="30" as="geometry">
            <mxRectangle width="30" height="30" as="alternateBounds" />
          </mxGeometry>
        </mxCell>
        <mxCell id="C-vyLk0tnHw3VtMMgP7b-22" value="Max Digging Depth char(50) NOT NULL" style="shape=partialRectangle;overflow=hidden;connectable=0;fillColor=none;top=0;left=0;bottom=0;right=0;align=left;spacingLeft=6;" parent="C-vyLk0tnHw3VtMMgP7b-20" vertex="1">
          <mxGeometry x="30" width="220" height="30" as="geometry">
            <mxRectangle width="220" height="30" as="alternateBounds" />
          </mxGeometry>
        </mxCell>
        <mxCell id="UP393FumJZP2tE8MnSL_-10" value="" style="shape=partialRectangle;collapsible=0;dropTarget=0;pointerEvents=0;fillColor=none;points=[[0,0.5],[1,0.5]];portConstraint=eastwest;top=0;left=0;right=0;bottom=0;" parent="C-vyLk0tnHw3VtMMgP7b-13" vertex="1">
          <mxGeometry y="120" width="250" height="30" as="geometry" />
        </mxCell>
        <mxCell id="UP393FumJZP2tE8MnSL_-11" value="" style="shape=partialRectangle;overflow=hidden;connectable=0;fillColor=none;top=0;left=0;bottom=0;right=0;" parent="UP393FumJZP2tE8MnSL_-10" vertex="1">
          <mxGeometry width="30" height="30" as="geometry">
            <mxRectangle width="30" height="30" as="alternateBounds" />
          </mxGeometry>
        </mxCell>
        <mxCell id="UP393FumJZP2tE8MnSL_-12" value="Engine Power char(50) NOT NULL" style="shape=partialRectangle;overflow=hidden;connectable=0;fillColor=none;top=0;left=0;bottom=0;right=0;align=left;spacingLeft=6;" parent="UP393FumJZP2tE8MnSL_-10" vertex="1">
          <mxGeometry x="30" width="220" height="30" as="geometry">
            <mxRectangle width="220" height="30" as="alternateBounds" />
          </mxGeometry>
        </mxCell>
        <mxCell id="C-vyLk0tnHw3VtMMgP7b-23" value="User" style="shape=table;startSize=30;container=1;collapsible=1;childLayout=tableLayout;fixedRows=1;rowLines=0;fontStyle=1;align=center;resizeLast=1;" parent="1" vertex="1">
          <mxGeometry x="80" y="110" width="290" height="200" as="geometry" />
        </mxCell>
        <mxCell id="C-vyLk0tnHw3VtMMgP7b-24" value="" style="shape=partialRectangle;collapsible=0;dropTarget=0;pointerEvents=0;fillColor=none;points=[[0,0.5],[1,0.5]];portConstraint=eastwest;top=0;left=0;right=0;bottom=1;" parent="C-vyLk0tnHw3VtMMgP7b-23" vertex="1">
          <mxGeometry y="30" width="290" height="30" as="geometry" />
        </mxCell>
        <mxCell id="C-vyLk0tnHw3VtMMgP7b-25" value="PK" style="shape=partialRectangle;overflow=hidden;connectable=0;fillColor=none;top=0;left=0;bottom=0;right=0;fontStyle=1;" parent="C-vyLk0tnHw3VtMMgP7b-24" vertex="1">
          <mxGeometry width="30" height="30" as="geometry">
            <mxRectangle width="30" height="30" as="alternateBounds" />
          </mxGeometry>
        </mxCell>
        <mxCell id="C-vyLk0tnHw3VtMMgP7b-26" value="user_id int NOT NULL " style="shape=partialRectangle;overflow=hidden;connectable=0;fillColor=none;top=0;left=0;bottom=0;right=0;align=left;spacingLeft=6;fontStyle=5;" parent="C-vyLk0tnHw3VtMMgP7b-24" vertex="1">
          <mxGeometry x="30" width="260" height="30" as="geometry">
            <mxRectangle width="260" height="30" as="alternateBounds" />
          </mxGeometry>
        </mxCell>
        <mxCell id="C-vyLk0tnHw3VtMMgP7b-27" value="" style="shape=partialRectangle;collapsible=0;dropTarget=0;pointerEvents=0;fillColor=none;points=[[0,0.5],[1,0.5]];portConstraint=eastwest;top=0;left=0;right=0;bottom=0;" parent="C-vyLk0tnHw3VtMMgP7b-23" vertex="1">
          <mxGeometry y="60" width="290" height="30" as="geometry" />
        </mxCell>
        <mxCell id="C-vyLk0tnHw3VtMMgP7b-28" value="" style="shape=partialRectangle;overflow=hidden;connectable=0;fillColor=none;top=0;left=0;bottom=0;right=0;" parent="C-vyLk0tnHw3VtMMgP7b-27" vertex="1">
          <mxGeometry width="30" height="30" as="geometry">
            <mxRectangle width="30" height="30" as="alternateBounds" />
          </mxGeometry>
        </mxCell>
        <mxCell id="C-vyLk0tnHw3VtMMgP7b-29" value="user_name char(50) NOT NULL" style="shape=partialRectangle;overflow=hidden;connectable=0;fillColor=none;top=0;left=0;bottom=0;right=0;align=left;spacingLeft=6;" parent="C-vyLk0tnHw3VtMMgP7b-27" vertex="1">
          <mxGeometry x="30" width="260" height="30" as="geometry">
            <mxRectangle width="260" height="30" as="alternateBounds" />
          </mxGeometry>
        </mxCell>
        <mxCell id="UP393FumJZP2tE8MnSL_-1" value="" style="shape=partialRectangle;collapsible=0;dropTarget=0;pointerEvents=0;fillColor=none;points=[[0,0.5],[1,0.5]];portConstraint=eastwest;top=0;left=0;right=0;bottom=0;" parent="C-vyLk0tnHw3VtMMgP7b-23" vertex="1">
          <mxGeometry y="90" width="290" height="30" as="geometry" />
        </mxCell>
        <mxCell id="UP393FumJZP2tE8MnSL_-2" value="" style="shape=partialRectangle;overflow=hidden;connectable=0;fillColor=none;top=0;left=0;bottom=0;right=0;" parent="UP393FumJZP2tE8MnSL_-1" vertex="1">
          <mxGeometry width="30" height="30" as="geometry">
            <mxRectangle width="30" height="30" as="alternateBounds" />
          </mxGeometry>
        </mxCell>
        <mxCell id="UP393FumJZP2tE8MnSL_-3" value="user_name char(50) NOT NULL" style="shape=partialRectangle;overflow=hidden;connectable=0;fillColor=none;top=0;left=0;bottom=0;right=0;align=left;spacingLeft=6;" parent="UP393FumJZP2tE8MnSL_-1" vertex="1">
          <mxGeometry x="30" width="260" height="30" as="geometry">
            <mxRectangle width="260" height="30" as="alternateBounds" />
          </mxGeometry>
        </mxCell>
        <mxCell id="UP393FumJZP2tE8MnSL_-4" value="" style="shape=partialRectangle;collapsible=0;dropTarget=0;pointerEvents=0;fillColor=none;points=[[0,0.5],[1,0.5]];portConstraint=eastwest;top=0;left=0;right=0;bottom=0;" parent="C-vyLk0tnHw3VtMMgP7b-23" vertex="1">
          <mxGeometry y="120" width="290" height="30" as="geometry" />
        </mxCell>
        <mxCell id="UP393FumJZP2tE8MnSL_-5" value="" style="shape=partialRectangle;overflow=hidden;connectable=0;fillColor=none;top=0;left=0;bottom=0;right=0;" parent="UP393FumJZP2tE8MnSL_-4" vertex="1">
          <mxGeometry width="30" height="30" as="geometry">
            <mxRectangle width="30" height="30" as="alternateBounds" />
          </mxGeometry>
        </mxCell>
        <mxCell id="UP393FumJZP2tE8MnSL_-6" value="password char(50) NOT NULL (Hashed)" style="shape=partialRectangle;overflow=hidden;connectable=0;fillColor=none;top=0;left=0;bottom=0;right=0;align=left;spacingLeft=6;" parent="UP393FumJZP2tE8MnSL_-4" vertex="1">
          <mxGeometry x="30" width="260" height="30" as="geometry">
            <mxRectangle width="260" height="30" as="alternateBounds" />
          </mxGeometry>
        </mxCell>
        <mxCell id="UP393FumJZP2tE8MnSL_-7" value="" style="shape=partialRectangle;collapsible=0;dropTarget=0;pointerEvents=0;fillColor=none;points=[[0,0.5],[1,0.5]];portConstraint=eastwest;top=0;left=0;right=0;bottom=0;" parent="C-vyLk0tnHw3VtMMgP7b-23" vertex="1">
          <mxGeometry y="150" width="290" height="30" as="geometry" />
        </mxCell>
        <mxCell id="UP393FumJZP2tE8MnSL_-8" value="" style="shape=partialRectangle;overflow=hidden;connectable=0;fillColor=none;top=0;left=0;bottom=0;right=0;" parent="UP393FumJZP2tE8MnSL_-7" vertex="1">
          <mxGeometry width="30" height="30" as="geometry">
            <mxRectangle width="30" height="30" as="alternateBounds" />
          </mxGeometry>
        </mxCell>
        <mxCell id="UP393FumJZP2tE8MnSL_-9" value="user_role char(50) NOT NULL &#xa;(Admin, operator or gues)&#xa;" style="shape=partialRectangle;overflow=hidden;connectable=0;fillColor=none;top=0;left=0;bottom=0;right=0;align=left;spacingLeft=6;" parent="UP393FumJZP2tE8MnSL_-7" vertex="1">
          <mxGeometry x="30" width="260" height="30" as="geometry">
            <mxRectangle width="260" height="30" as="alternateBounds" />
          </mxGeometry>
        </mxCell>
        <mxCell id="UP393FumJZP2tE8MnSL_-31" value="" style="endArrow=classic;html=1;rounded=0;entryX=0.536;entryY=0;entryDx=0;entryDy=0;entryPerimeter=0;" parent="1" target="C-vyLk0tnHw3VtMMgP7b-13" edge="1">
          <mxGeometry width="50" height="50" relative="1" as="geometry">
            <mxPoint x="584" y="450" as="sourcePoint" />
            <mxPoint x="450" y="310" as="targetPoint" />
          </mxGeometry>
        </mxCell>
        <mxCell id="UP393FumJZP2tE8MnSL_-32" value="&lt;font style=&quot;font-size: 36px;&quot;&gt;ERD&lt;/font&gt;" style="text;html=1;align=center;verticalAlign=middle;resizable=0;points=[];autosize=1;strokeColor=none;fillColor=none;" parent="1" vertex="1">
          <mxGeometry x="365" y="30" width="100" height="60" as="geometry" />
        </mxCell>
        <mxCell id="UP393FumJZP2tE8MnSL_-36" value="FK1" style="shape=partialRectangle;overflow=hidden;connectable=0;fillColor=none;top=0;left=0;bottom=0;right=0;" parent="1" vertex="1">
          <mxGeometry x="450" y="420" width="30" height="30" as="geometry">
            <mxRectangle width="30" height="30" as="alternateBounds" />
          </mxGeometry>
        </mxCell>
        <mxCell id="UP393FumJZP2tE8MnSL_-40" value="&lt;span style=&quot;color: rgb(55 , 65 , 81) ; font-family: , , , , &amp;#34;segoe ui&amp;#34; , &amp;#34;roboto&amp;#34; , &amp;#34;ubuntu&amp;#34; , &amp;#34;cantarell&amp;#34; , &amp;#34;noto sans&amp;#34; , sans-serif , &amp;#34;helvetica neue&amp;#34; , &amp;#34;arial&amp;#34; , &amp;#34;apple color emoji&amp;#34; , &amp;#34;segoe ui emoji&amp;#34; , &amp;#34;segoe ui symbol&amp;#34; , &amp;#34;noto color emoji&amp;#34; ; font-size: 16px ; text-align: left ; background-color: rgb(247 , 247 , 248)&quot;&gt;This design implies that a user can own or create multiple &lt;br&gt;machines, but a machine is owned by a single user.&lt;/span&gt;" style="text;html=1;align=center;verticalAlign=middle;resizable=0;points=[];autosize=1;strokeColor=none;fillColor=none;fontSize=24;" parent="1" vertex="1">
          <mxGeometry x="15" y="330" width="420" height="70" as="geometry" />
        </mxCell>
        <mxCell id="UP393FumJZP2tE8MnSL_-42" value="&lt;ul style=&quot;border: 0px solid rgb(217 , 217 , 227) ; box-sizing: border-box ; margin: 0px 0px 0px 1rem ; padding: 0px ; display: flex ; flex-direction: column ; color: rgb(55 , 65 , 81) ; font-family: , , , , &amp;#34;segoe ui&amp;#34; , &amp;#34;roboto&amp;#34; , &amp;#34;ubuntu&amp;#34; , &amp;#34;cantarell&amp;#34; , &amp;#34;noto sans&amp;#34; , sans-serif , &amp;#34;helvetica neue&amp;#34; , &amp;#34;arial&amp;#34; , &amp;#34;apple color emoji&amp;#34; , &amp;#34;segoe ui emoji&amp;#34; , &amp;#34;segoe ui symbol&amp;#34; , &amp;#34;noto color emoji&amp;#34; ; font-size: 16px ; text-align: left ; background-color: rgb(247 , 247 , 248)&quot;&gt;&lt;li style=&quot;border: 0px solid rgb(217 , 217 , 227) ; box-sizing: border-box ; margin: 0px ; padding-left: 0.375em ; display: block ; min-height: 28px&quot;&gt;&lt;span style=&quot;border: 0px solid rgb(217 , 217 , 227) ; box-sizing: border-box ; font-weight: 600&quot;&gt;POST /machines&lt;/span&gt;: Allows users to create a new machine by providing machine details, including label,&amp;nbsp;&lt;/li&gt;&lt;li style=&quot;border: 0px solid rgb(217 , 217 , 227) ; box-sizing: border-box ; margin: 0px ; padding-left: 0.375em ; display: block ; min-height: 28px&quot;&gt;&lt;span style=&quot;white-space: pre&quot;&gt;&#x9;&lt;/span&gt;inventory ID, machine type, and maintenance details.&lt;/li&gt;&lt;li style=&quot;border: 0px solid rgb(217 , 217 , 227) ; box-sizing: border-box ; margin: 0px ; padding-left: 0.375em ; display: block ; min-height: 28px&quot;&gt;&lt;span style=&quot;border: 0px solid rgb(217 , 217 , 227) ; box-sizing: border-box ; font-weight: 600&quot;&gt;PUT /machines/{machine_id}&lt;/span&gt;: Permits users to update an existing machine&#39;s information, including label,&amp;nbsp;&lt;/li&gt;&lt;li style=&quot;border: 0px solid rgb(217 , 217 , 227) ; box-sizing: border-box ; margin: 0px ; padding-left: 0.375em ; display: block ; min-height: 28px&quot;&gt;&lt;span style=&quot;white-space: pre&quot;&gt;&#x9;&lt;/span&gt;inventory ID, machine type, machine price, and maintenance details.&lt;/li&gt;&lt;li style=&quot;border: 0px solid rgb(217 , 217 , 227) ; box-sizing: border-box ; margin: 0px ; padding-left: 0.375em ; display: block ; min-height: 28px&quot;&gt;&lt;span style=&quot;border: 0px solid rgb(217 , 217 , 227) ; box-sizing: border-box ; font-weight: 600&quot;&gt;GET /machines&lt;/span&gt;: Retrieves a list of all machines, including their details, for displaying in the frontend.&lt;/li&gt;&lt;li style=&quot;border: 0px solid rgb(217 , 217 , 227) ; box-sizing: border-box ; margin: 0px ; padding-left: 0.375em ; display: block ; min-height: 28px&quot;&gt;&lt;span style=&quot;border: 0px solid rgb(217 , 217 , 227) ; box-sizing: border-box ; font-weight: 600&quot;&gt;POST /machines/{machine_id}/maintenance&lt;/span&gt;: Marks a machine for maintenance, specifying the duration of maintenance.&lt;/li&gt;&lt;li style=&quot;border: 0px solid rgb(217 , 217 , 227) ; box-sizing: border-box ; margin: 0px ; padding-left: 0.375em ; display: block ; min-height: 28px&quot;&gt;&lt;span style=&quot;border: 0px solid rgb(217 , 217 , 227) ; box-sizing: border-box ; font-weight: 600&quot;&gt;GET /machines/available&lt;/span&gt;: Lists all machines available for a specific date provided as a query parameter.&lt;/li&gt;&lt;li style=&quot;border: 0px solid rgb(217 , 217 , 227) ; box-sizing: border-box ; margin: 0px ; padding-left: 0.375em ; display: block ; min-height: 28px&quot;&gt;&lt;span style=&quot;border: 0px solid rgb(217 , 217 , 227) ; box-sizing: border-box ; font-weight: 600&quot;&gt;DELETE /machines/{machine_id}&lt;/span&gt;: Allows users to delete a machine from the system.&lt;/li&gt;&lt;/ul&gt;" style="text;html=1;align=center;verticalAlign=middle;resizable=0;points=[];autosize=1;strokeColor=none;fillColor=none;fontSize=24;" parent="1" vertex="1">
          <mxGeometry x="850" y="310" width="910" height="240" as="geometry" />
        </mxCell>
        <mxCell id="UP393FumJZP2tE8MnSL_-43" value="&lt;span style=&quot;color: rgba(0 , 0 , 0 , 0) ; font-family: monospace ; font-size: 0px&quot;&gt;%3CmxGraphModel%3E%3Croot%3E%3CmxCell%20id%3D%220%22%2F%3E%3CmxCell%20id%3D%221%22%20parent%3D%220%22%2F%3E%3CmxCell%20id%3D%222%22%20value%3D%22API%20Endpoints%3A%22%20style%3D%22text%3Bhtml%3D1%3Balign%3Dcenter%3BverticalAlign%3Dmiddle%3Bresizable%3D0%3Bpoints%3D%5B%5D%3Bautosize%3D1%3BstrokeColor%3Dnone%3BfillColor%3Dnone%3BfontSize%3D24%3B%22%20vertex%3D%221%22%20parent%3D%221%22%3E%3CmxGeometry%20x%3D%2250%22%20y%3D%22445%22%20width%3D%22170%22%20height%3D%2230%22%20as%3D%22geometry%22%2F%3E%3C%2FmxCell%3E%3C%2Froot%3E%3C%2FmxGraphModel%3E&lt;/span&gt;" style="text;html=1;align=center;verticalAlign=middle;resizable=0;points=[];autosize=1;strokeColor=none;fillColor=none;fontSize=24;" parent="1" vertex="1">
          <mxGeometry x="880" y="250" width="20" height="40" as="geometry" />
        </mxCell>
        <mxCell id="UP393FumJZP2tE8MnSL_-44" value="&lt;font style=&quot;font-size: 36px;&quot;&gt;API Endpoints:&lt;/font&gt;" style="text;html=1;align=center;verticalAlign=middle;resizable=0;points=[];autosize=1;strokeColor=none;fillColor=none;fontSize=24;" parent="1" vertex="1">
          <mxGeometry x="835" y="240" width="260" height="60" as="geometry" />
        </mxCell>
        <mxCell id="UP393FumJZP2tE8MnSL_-45" value="&lt;font style=&quot;font-size: 36px;&quot;&gt;High Level Flow&lt;/font&gt;" style="text;html=1;align=center;verticalAlign=middle;resizable=0;points=[];autosize=1;strokeColor=none;fillColor=none;fontSize=24;" parent="1" vertex="1">
          <mxGeometry x="55" y="720" width="280" height="60" as="geometry" />
        </mxCell>
        <mxCell id="ROrOz53BwDJJsiaq3JAJ-1" value="" style="shape=image;verticalLabelPosition=bottom;labelBackgroundColor=default;verticalAlign=top;aspect=fixed;imageAspect=0;image=data:image/png,iVBORw0KGgoAAAANSUhEUgAAAq0AAAH4CAYAAABg99RyAAAAAXNSR0IArs4c6QAAAARnQU1BAACxjwv8YQUAAAAJcEhZcwAADsMAAA7DAcdvqGQAAP+lSURBVHhe7P13lCTXed8Pf6urqzpOntmEXeRFJgmAARRzVqJe2QqkJVuUJev4yLJlBesc6/eH/UrHln+vLVmyTNmydY5yoiRKFCmKFCkGMZMgCZIASOSwOUyezl1d3e/3+1TXYrAEQBDYXczsPJ/dO11d4datmtnezzz13HuDEYHjOI7jOI7jbGEK41fHcRzHcRzH2bK4tDqO4ziO4zhbHpdWx3Ecx3EcZ8vj0uo4juM4juNseVxaHcdxHMdxnC2PS6vjOI7jOI6z5XFpdRzHcRzHcbY8Lq2O4ziO4zjOlsel1XEcx3Ecx9nyuLQ6juM4juM4Wx6XVsdxHMdxHGfL49LqOI7jOI7jbHmCERkvO47jXLzwo84+7obDbJmrgjBEEARcYHEcx3G2NC6tjuNcXEhIKaZpt4Nhp4OUZdjrYZQObL3paVhEUCyiwIJCAUEhoLfyle9tfRTxVYXvKbYutY7jOM89Lq2O41xUjNLURLVz5DDajzzM8gi6J09QYtsmtGGlgmh6GsWJScoqRZVCqtdCHKM4OWHb4ulZFKdnEE5OoViru7g6juNsAVxaHcfZ1ih62l9aQuf4MSTLy+ivrSFZX8NgY4NlHWljA8NeF0EUmbCG1SrCcgUBJTXLDLAvKIQS1xIKpRLCUhmFcrYsmS3oPUtYLls9gfahzIaVqh2zlYR2yE90ejt6PaDdGbHw/UBZEYFtG3JbOtQ+Iwy1fvw/ANXdMid07IDrFZKOeGn0dsxOA9OTfF/cUpfqOM4Ow6XVcZxtiUVUu12Loiqa2nr4IfROnUJ/ZQUDiqqiquajxSKKFNXixIQVE0/lsrKYkEpeaWMWbVVEVdHX8TlYSVZPMeJ+lFUKqwmuBFhR2GodhWrNZLggEY4kwjrpuTO7lCY5GKRsCdvBP4VCgHAcIRajUWASmiRAp5sJpz7VU9oob49Jq0RV+9n6sZQmyQhJH+ir8Nh+L7A6tGzr+cpDUKe0zs0BuxaAPSzTfF+rgG2w0zuO41wwXFodx9mWDFotdI4dxcn3vAetQ49iSEMbjdTJioWCV1COKs1KklravZeCSamUfEpQLepaRWnXbkQzM5nMmniWuT02cZUUjwYJRr0e0k6b52si3VhDsrqClMs6h7QxpLTG+/ajvP8yRLPzWS4sjz9X4trm+dcaTV4Wr4nCGrPttUoZkfJxySAN0GoDq2vAo0dG6FE+uRm75gNM1IFyCZBrR/JxFnk4HRgJxVXR2I2NEZaXgWMneK42BZiyKrE9dRo4eQpYb3E9961PA694GfCSFwDXXA5UeJvOoZs7juN8Q1xaHcfZVigdQI/9mw88gLUvfxmNr33N0gG0XhZpOap81eP+sFZDND2D0vwC4vl5xLNzlrNqKQKSVD3eH6cAZNHXLOJqFfCj0eocphgmlFeWYb+XdepK1LGLUtujKMvwlFoQlbKOW2yjdeYqV1CcmrFUAtX7dNFHcn8wQIfnUYS11e1hg4Ku9QW2K6R5RsXQpFx6jlEZxTBGXIzR7/Ma+CcqBqB/g5fFbebg3D971Se+Sp5GoKgqTwGewiK1bQpwowEcPUIJPjwymV1tBEi4/+QccMk+4LIDwNVXAlddCuydz4RY1+04jnM+cWl1HGfbIIkcdjsmrKt33IG1L33Jop4mjrSmXFj1qoiqIqyVA5eivHevRVVLFFdFVhVlzR/1PyP4salzKld22G1bJFYRWYktG2n1KuJqqQiWJ1s2QbZRC54iCquP426/T1HtotHuIElSe69oq7aFPC5UCgOXh7wXSgEIgiqq5RKmJ1QqKMeRRWQlvkkyoJjy3pASr7dUik1889SCs1FKQKcDrK8Dp04Bhymt9z9AgT0e4PQysEG5BW/b1CxwzUHghTcDz7sWOEBxjSWuz/B2Oo7jPB1cWh3H2TYoytlbWsKpD37AIqzd06cfEyW+SsjslWIXViuYuPZ6TN3yQkxcfwPCet2syoTtXNlV/vHJ12xp/LXfw2B1Gb1DD9lyWJ9EfNlVlkogiX2iyKs+ilOWU8urWG+10NXze0ppSgkeSE4pqYqwlimeg7GQ9rVPQWPNKqIaYN/8HCZrNS6HWNloYHV9Aw1KvXJgF2amsWdh3uS1IHF+EnRJKsp1XV4B+HsBvnLnCA8/DLS7AVa7QJOnVXbCNS8AXvpS4LtuA2ZqXPfk1TqO4zxrwl8g42XHcZwtTdLYQPfYMYu09peXLI81i7CqPBZlVf7qxE3Px+TzXoD61VejODmVPbrPdhjXdg7I62PJzq8OUnoWr3SBCGFtwlIENNKA0gwksMNOC0Plx/LwPmW03eki5bZOPzFZVYRVMqpWBpJgebCkmEXr9Jg/pbRKZrUpiiMKJCVd69OhpRU02m2sN1vodHuU2wRDnmeQpuhJclUH2yexfSLyS5LXsmpMTqpe5c0GaLdG6LKKwTBAMk4t6LEUJoBSCaiVsw5aaqfjOM65xqXVcZxtQT60VeuRh9E5ehTJxoblmEqwMnHVF6BYqaC8ew9mXvJSVK86iHB2DgmlbTiWPmH7ngMkjRJK1a2SiSXrpvFpJIGCRheo1Cy51PJjecSIgirpbPNtsz+wnFVJqlIANtpdSwfQvpLQ7FF+JoFKBVBHM6UlSEDVMUv1hZJjSTJ36lFQLZ2ApUcJVmqAjlXbTFq1jnWr3iLtMhNt7fH190RvlUGhzly6UOW7njiR5b/aaAUU1x7X6feGLkVVowrMzwAVTxNwHOc84Q9zHMfZ+kgI9Uh8fR3d4yds8gAbVFQ2tUmQJF7x3Bzq116L2jXXmrDqMftaq4UmratPcTO5HO//bLFH+mxHwrZJFruKaqp+lizndAjFNodxmW1ZQGF+N4K5PRjNLGCl28fJ1TWsNNs4td7A4kYTG2ojxXIo2WQdktFIUVGFPXltyTiS2ue5kgH3G6QWSR2kAzuXJFXR2/74tigH1safpdHKcRXNPb2yhpNLK1heWz8jsWrvk6FTHzgwwo03jKxzlzpdxRqvldt4OqyvAHd9DnjwUWBZ35ZzdXMdx3HOwiOtjuNseRR57J0+je6JExZt7a+tIG23TWQV1csihtyRX2pXXImJ59+C4cwcNiisksJ2T0JJsUz66FP0tGuk0QLsoG8eOd5wNESj08Nau4MGBbTJc0gK9Qhe52uxaN16q41mt4c2tzW1H5cbLNqeSKLHEdSU7RpQRvXQX63KoqdZ+xRVVe99vSvyizpjqf2R8lPV4UsjClBMJamjoIABS5H1FFhMSPlX6Qhar0iFhDjh+Xq8H0pP6LJtSjF4sk5akl6lCCwuB9ZRS0NstQfZuK+Czcf0PmB2F7BvIsttfYa31nEc50nxSKvjOFsePRLvU1qT1VUzN/XAD/Q83HjMjmyCAOWv7t6DVjqiVHYphz0TVr2utzpYbTTRpjRmEcbsuPHLN0QCqH0lrCanlEwJqERUj/l1vnVK7DpfFTXNi8R1lWVNhdu1TqKozlQDimPCevSaJkkmr4rQqvC6FT3V+Qxec4GCKmkNi0WKZpHvs0iqJDfUI38WiWsmn9m9kbAOtcz2a41kud1l2yj0GgN2dWPDIq95HqyixJtRpys9/r/pRmDPbgk1ax7fdt3DQQKsbQAn14D1vlIHsm2O4zjnEpdWx3G2PIq0dk+dMmmVjIUaRiqKMnGSi2kfvaHMDSsV9Gt1bFAAe5QzPR6X4GqfPtc1KI4aUkoRVymoiei4PBn59vzR/yAdWqS0pzrGxykaKsFUXqke46vH/0BjvGp/Fq1X7qqKZLVHOey221Z6nQ4SSvVQ+yvnlcf3BsNs3wHFVvJKcc2vM29p5o3ZTciXpaWWOGE7sc382uM65cQWWY+iunmKhIqupcHzHz5xEkdOnsTS2pqd72w0+MKtN2fjtNrJAh6dndQqUm7rRgM4bVHY8XrHcZxziEur4zjbAomrOjFJEsPJSQTV6mMRSZaUMjecnUe/WkdbXdstAqlH7JRWSZskVhFOCpqEUbmgkkM9wl9qtLDIoldFSjXGaS6oWt7o9HB6o2VlkWWV+zT7iZ3Xeub3ukg1MkC/byMEpHyfdDvoUpDbzRbaiu6ydFot9Hl+7St5zCLGWTtzsZZtSk8TXk/CtxJetUWP9FPu0OH1SCkziea1syhyqshvk9ejx/7RoM9royRzWQKtiq12HqP7KLnWfn2+V9i0Esc21qvEu8E2rrOtLd4rmz5W+xA2EbzllNcAtaoivlxJcc3+gNJNaW0Bx5pASw13HMc5x7i0Oo6z9ZFssaSpoo4DFCbUK7+q1WfkckiZG01NIy1nMmsRWcmgDqekDSWiiloOErQpjmsbDXs0rkf3+eN8PepX7qlSB/SIXMInqd3g+rxoX+2nTl2SuqF1iBrwHAM2hjrJ47Q81ON+dZhSx6lx0b62D0VTnavs8b5yUqMiiqFKSBmkELLNkkwNfDUYcYnXJ2mVHPYkrVyn6847e0laJddtiSjPMbJ0gwH63KZOWayS90KiaSFSHkvJ5PE6TnVn6QWh1an0gOX1dSyurvJ1A11ev8kr/yhNQJ2xKpVNKQIsahdPD7q9pQd0vz5Q6ziO86xxaXUcZ8uT6RolLknR6yUoVGs2FatFKsfiJIsKapTZcokfbBQxCphETxI5UBSUgmb7Ek2LevT0oj0Sl5ipA1VHwkdJ1WN0yZteO0mC5VYHDaUCjMVQ67S/IqypiSlNTeLHyiV/kuUsZsrC9dnj+KwooqoJAiSnJRpgKYoRlkqU1hKiOLaJAyJKrIS2pDawJkVchUZVVa5qj3JpIxLoutheK+NUAkVbu33KqmRZ0pqO0OfdUNs0CoHyYJX3OmIZcJ1kW8NvWR1KTRhHbU8tr+DR4ydZTmCVct/h9SsqLcEtFkcolUash9erax23j81hXVk+62PpCY7jOOcOl1bHcbYBgeWPShqVIqDORgVNSVopU1yzUQAUVS1FxUzOKF/BkPsq6qjILGvIBUuD/0tINdyTBvLXY3BJniKhIXWrEoWIKXcavkodqzIBo0Byn06zgfbGOtqNDfRaTes8JTm16KjOa+Wx5TimmMaRiaocVjm1EkuLDlubRoi4JO1TekOiaxkfq5VFblfdaRjZNceFEapskfJ0R/mUsNxuFyh51F9VxvWqa8jXIrerN79FWbWeUqzpZCO+tRxcCXu3x/vQMzmV/A5HWQ6s1h89dRrHKPiSe4tA27Ys0mtXwTYGodrJanmZJRaNcGDtcBzHOYfoo85xHGfLIjnS4/6ERqTooPWmV9SU8hXV6yiMh2oyJ6OoFrivfCmPsiqH0zCRysSVPmYRRYlpt9tFp922okf5WeSR2xRVlSTzUKUlJP2ebVcZ6JE5JVYCbVXb+VXGebQsmcCysN169B9TXrU+Q42xvxRlCp+dhdemtlE2R6qDy9G4zj7rMAHl+4o6QHFZ+0jAdaQdzRtgbZDQa3+Kd8DXmCfJh8JKTYo1exZFlkXhUD3610gGVpJxtJnrdd91j2zkg40GNpoti7ZahJm3VLdXsFpkHjyy8Vun4kxcHcdxzjUurY7jbGkU3VOHokGlirRUwoCimXS6Jm7x1LTNCMVFKt8Io3bLOkJlOqhCaFeZX43fS9aIpEsR1B4ltNlooLmxgUajaaMLaCKC7oDyJp3kPkoBUGcrHaSH/1ZDvixRlSxKGq1ksqpXnUMnVzpAvVpBpVK2aVe1X1ZL1hY5Hn3P1iWsT0X1lrifIrfdQMKenafCSjMBzVIjJOBqSSasmSAXaZFBHNt5y9yHe5oMDyzCGqDEQn21YzQqQY9ybvmvViiylFXr+KZzsfQo6BoiS+sHqUQ3u6cquvdxme2XrEYj7K4CVV2M4zjOOcal1XGcrQ3NSFHG0cwc0tqEDQHVWV+3iF88O2tDX0nalJ+ZrK5g0Gxkj7Fz6VIVfJX8lbhvORrnddoWfghS3JQOoN7zEssaxVJTnNrjdB6XUmpHqaY+fUxGFd0tUqBjinRcqVg0VZKZlUxILfrKfZUeoFxVCWT22D9An8VySq0FmbiqRcpjrYQUSraxGZcw5DESzKlRipTiqvzUbH91zsoixqbOrDdU5Fk5q5J4CmuFdVSUmsDlXhRbXRUeXmJRykCoCDWPGdE2h9xuoxioZrZBZ7D7Ni4ltr/Ge6P7lgwo0Vkary6FokxprQARC28dZktA2SOtjuOcB/QZ5TiOs2WRXEruhvU6RtWajVOq4aQkpoVqFYVyGQFlzeb031jPpDXR1KbqWCTlklxlOa9Z7/wsQpmvjyl3ElaVkqKTqksiqMgm5U4RXImtHc9tsfajqEZ5KVHmSmUKYNHqy6rOzqvjdc58nn+Lhto+elzPa+JylhLA7Sya1Spm0ava2aeoajs90Nqcsk2KwqqDluWUqnCborC9kMIqg+T5+pTR2M7L4+3ZfTZjllIF1A51xJLEjlgUndW1hbpebrOINevcXPIUh6RfsPFYu/2x8rO+XFr5raHwAxMxBdb/Z3Ec5zzgHy2O42xp5J3WGYpiGFASFUXUeKI2S5SEi7ZUKGmM0SGG7RZSFj3Kt+GouJ8kTdIo8ZJEmgSzTompJK3M+iaqFUpr2fZRPqcmBpAlSlKjKBNZW+a+1Vod1ckpimvVJjkIJbqUZ73abFRjkdTxZwRZ18D26WIUhOQV8MM3E9YB90l5XhPIYpZvqohrfTiwSQHa3DNlHTpOwt7h/gmPz/JOKbLcp0NzXC+oYxbr5HJTAstjRnzfZr0lLquoDqUV9LmPhs7SuRXhLfNeqmNWJq1qJq/hrDIYAGvrQKOliRKynNdAHcWKrNvGbwWmWCp8r45fjuM45xr/aHEcZ+tDOZNwFmpVFObmMaJAqiNUv9tDae8+xLNz4x25a7eD4fqajR4wNrAzEU7bbu6YiZh6yCs/VD2JFC1V9LGbDtGlYKqLlToy6XG7UgDKtDKVWOkDlEuJqYkyK1RdEuiAsniGTedQRzJhkVgWRTYVUa3wtcL3yjOVTK4HRTTZnj4bXuSxddat/RfDkm1XZHbD8ltDJDxXoxijS2ts8bjVIGIp2nXOUfO7FFNFZifZUkVq+1TW5SDmvhJz1Q9EbJfiyhlZBFjnE7okSbGKpqg9dqqBz97RwkNHumj1E/QGfYp2iqg01KVjnsK6d5K3wf9XcRznPOEfL47jbFkkfTZovnrrU7BGJerX1DQlM5NWTX8aTkygqA5ZGvVekc6xtCJVDNICnmciiFnUNRvSSvmtsXJN4zjLA42ob4o+UtIUac0joyaZPKbIfVRsfn9VSqHUZAHZTFg9jNhO67xk7c5kT+3PHuNnDdFxlhOrOlnUg1/CqiindFfRUaF8V0VClUJAt7UhpCyVgMeqjQnFs0FJXQpjtMPI0gi6/DhvU0x7fNX4CTYmAfe1SCxfVZQTm45UWJfayPcaEMyivTyRzqFjVGyZbVHR2K+nl3v48t19HDkxQDfJRlgYFQYIopT3ZYQZSuv8hITcLsFxHOec4x8vjuNsWRSlbPcSrLba2fimUYzRxKRFRBNF+9ptE6ywVkNEcdXj9VG3jeHaik3RlDkgv2qBEpZ1jCpaZ6uJWhWT9br16C9SWNXRSvsYip6mlNCkn810NcpmsQo0xBXbZJ2VWGxUAbZhoLQE5dkmSRadVBUsJq6qj9Xq0b7yVvUI385jJdumx/Zl7jnN8+hV+7bCIoVUj/kDLFAtNeOXclfVMatHSV0tRDhZKKFdiCmdipdmAtqglK6yRh2ncygyu0LB7XCbRVX5V7NsdbmfRiXo8dg+i8Z1PSOvLGqDxFUHJIMh1jYGuP+hIU4tD5HwwkzEC1TiKEGxNMRUDZipZpLtOI5zPnBpdRxnS5JHWXsUQc1AJYGVtKb1CeuMpG39bheNxUXL7yzt2UOBotQ2mxgtnaKZZRPgK7qZ/cmQuKrzVa1SQq1WsTxVCZ8hExsObdIAjRow7HVtCC1NizpKFFHtW1Q15XnTTtvEWMfI37KIahad1TmU4xqVK5YLax2dTAgLFkFV1FOP6duKkLIot1XtU1HktU4pnyuXMK3ocamMk2HZ9tUj/i7Vs22SSdGmaJrcclm5rEoJkNjSOLEWFK1u1oASrylg0zoU1ZUwwmKxhKViGRt8HRSVs5uNqlAKJbaUaF0DSyB558V12iE2NiJ+DyiyulY1tMA6w5TCmqI+Q2mtj1CPzZMdx3HOCy6tjuNsTWg/GqZKglmnwEmqypUKKlNTAMVVqQLqkJW0miaMxclpRNxWkGitLGGkFAEK5maH0jJVzHrMR5GGiMoG/Jd0Wl6qHu+nAxs+S8WirUONWcqix+HapmjqgPKq7Ta5gI4eY4s8g0RVHbTYRitKQeB51PlKH7pKD9CwU5oIQHmzEk5NINCngKq3v+RcebYB20irtjLkNkVDlcOq8VaV16shqyJN/cqiYbIGqoPbFT01sef5ehRYpQyoQ1fLpJf7UF4TrteUqwnbrFQB3ReNmJAJdmhtzFW/RWldXY+RpBRvruPhvCbe89IINcrqlZeMsMBviyYVcGd1HOd84dLqOM6WRPKjvNOZWgV7picxzdfpehWzM9MoLuxCQEEtqpu6ieXQBtMvLexGVC6bsI5OHceosW4VKfpneagsdDWFW2Edp7hoeaeyTb4qL1VSqnFZabAsmYfKZ63osbjJq9IFFFnNi97yVXvzHDaMFIVSubLFUtlGGZAca0RZRT6rPH2dwlovhjaeqmav6oUxulEJ3VIFXe5vUVh+ROu46YiSzX20X5/HBBplgMcVSxFmK1kpc1kdwSS+HZ5XH+7Kz13n0hpFdZ2lSdsMh/xFgNdRHFA/lZvaH6A3GKJPc+XuvC3ZSAl6lcTqhjWaEZZXSuikFGzWx6Yhro1QqowwPTHETZelWJhUJq3jOM75Q59rjuM4W5aI8jRZzcR199QkpiYnUL7sChR370OBQqgo5miQIGm3Ud57Ccp79lqEdvjgPRgeP4IhBVRSKcxbs8VMRsclf7Sv2aGUaiA0W6o2aq79fL9M6zIeW+KyHa+aWbRMqc2itQkGSiVg0TpFLhUdLZZrKGpignIFMa+hXiphqhxjmmWKMjvBdtSTHmq9Nur9DqaGCXaFAeYpr3WW0KKsIaU+xMFSiKtYZmJui4uoUORja0n2p0D3DimnYa+PMtt0ZT22fTsSVsq+UMsVWRWW4kCUe5tNwkDpXYtx4lQFnUERI7ZDUdZSbYiJ6T7qtSb6jRNIuo2s85rjOM55wqXVcZwtjYa6ihWRpJyW4wixopeTkwjn5hGw6NG5OkAlnbaJZFirI56aQtBYw2j5NEbrq5SpNIuwEsmYdTIyVVOUNZPWIaVSEqcxUIW+apsSAEzFTEy1rBEBtCJD6zK0PdPaYTqwTlqpcmAVueX5LdIbhjbywYjXYNOqBnrcziMV0VT0l69qS0q5HLAkmr6WJWHbErZNU6z2eAJ7pM/2q6NUl6+auFbdzrKxW7N2aGxXGyGA587r6LGs9xM0Kaw9XSv3UxnkRfXwGL2q7j4l9eTpKhZXKmh2Im4r2LisUTlLDZie7GN2oo1B0kC708Jas4UTSytYXFvHerONLkU5tai14zjOsyf8BTJedhzH2dJICDUT1nqnhwHF0ESwsW7DXI30uJtvNTNVsVxGurFmkhhoeXKGphXZ/urBP6IwShLpryZo6uQVDvomcJJBPcYXmbRmeaiKvJoMctm2cjlH6+3kRC95GoGirXxjKwu0PctRZfvUIcsEWaKswuMtx5TV9AYJ+lzXp+z1WV+Xpc31a6xmdRhgg0WZujYNLOvpcts67bTB0k2y1AXL62WdJuJsQ2swpOyO0GEdy70EDUqrtuuaFEdWUUxVUVb7w/VyzY1GhK9+bQrHT0paKdlsY7GSRVlL5SEu3d3CpQstVOMEEe+1OswdOb2MVqdr0+2yGhtiTLNpjW+P4zjOM8YjrY7jbHlMwFi4YI+xNUVpNDGJwq49QKVicirh6q6vW1RR47ZGM3MoSGYPPYSw17F6rJc+hVXDR0kQNWOWikSYfy0yqWil6urzVVHNgoa70na+13gEEjG1Q23K25Uva6u92F5c5h9FdNXRajDuTCVFLFJMi70uit02on4XMdtX6rVR5vtq0kedQj7BI+uBRlIN0ODXLtsXUULn0j5iCWFfoyf0sdzuY6lNEe0kJqiWb8t7ELbbSFl3ky3pK4jL+irDBGXKeYXnt+U0YV0JQp4TvR4KahdtNeDx3WaAtZUilpdiNNtFk+RAUdbSCBVK6/RsH7OTfUyU+xbNXVzfwLHFZTR4Xi0fWVzCQ8dOYqXRoJzrVwPHcZxnh0ur4zhbGg1ttdHpYHGjgdMbTaw02xadLChNYGKC4roXweS07WtpApQviWtMoY1rNRSaDQQnjmK0sWZSKqm0SKItS1qHJq2pRFMbx9tUJKQ2HitXmuTyHCanKlreXLjOJFiveeF7rVdEM+uNzwW2XUNnaQxYNhQFCl9B16Nlyp3aY9HfgIWvmnurzqLxW6m9KFGoSxTpIo9RR6qUZdhPUOj3ELKOcFwXN1j9IUW0zHrLPCbi8UUWarvVW9A0rFwuDAfZGLQ8lg3guhGajRAnT5aw0Sqil3JNyF8WqmxDlTJdT3DFnhbmJruICrw7vMYe29Du9rI0BH4fNItWk983pTg4juOcC1xaHcfZskiGNLnA6fUmji6v4dDSCo6trNkMWUIjBYT7L0Uwv4t2l0Ux1SGr12hYpDWem4emXMWhBzA8ddwe1+uxfDb1atbpSgIs0ZKkCgmb8joVJZVkarVSBBRptDdEL19XWJeJK4vSDWxcWUkri+qRLBYkkgmleizWudxaO1iJxLjL87RVeFR3FNh4qbMUzqlgiLI9z6fAsu3V0QAlimaZpcJ6a6y3TPmMWYqawpbHhdxWHfQxNeihynUSVc26ZbKqx/X2yD5rn17ztg+HAVZWYxw9UUKzr0kL2I4IKE/wvNUBZup9HNyzgdla9n3Ijh4XflHRG6VjSNbzTl6O4zjPBpdWx3G2JJmw9rHe6WC13UWPkqeZmbpJgu64N36ZQlqsaiqmGaSz8xgVI+vE1G+10Fo8jVEYobL3EhQ21hFSWsOVRbR4fMpj9Yi+xdcuz0NPs5IbVzLWOH1AarxTyVdM74q5wqZa5XuJbD7Ik1wyS9rkcapPsspXrVJHsizGSvHV0FKJOlhlEVXtJ4luUE5XWJZZ7Lr0+J5Fj+476RCHNFQVz1biiXoFjQ4wxOwwwSVpF5MmrxRViqse/etVHb/CNBNY5eemofJ3R6jzmAlun9TrUGkI3J91afzXDosmPmgnAY6dLOHY6TKWN2J0U170OC0gLI4wM5lgz0wHcagIapb/+kSFf8+U7N44juM8O1xaHcfZkkh22v3Epm+1DleUPnt0TnlVpx8Ja6xOV3ERwcQUhvO7MdIYrdx3QNnrNhoYUFCDuITS1BSifgeF44cQdFrQ2K6KKipnVVFEdc5Sp6aU0iYZlY5pvYrqU6RQsipJtZ7+Y5FVtNKUdLyPBFXTp2rILZtMgMvC5I1ttyKptXNl0Vt1wFIKguLEmpsr4rKiq0oRkDxLoiWl1sGKMlqjpJZZFDmdVAQ16ZqoKnqs6yomfURJj4fxverlMSqS14gXUS4GqLLUeRklXlHE/ZQ2EPF86aCAjWaMQ8eqOLVcyoa40rVQWONKilI5xdxUD7umu7xWpQVk1/ZEaFsm71p+sr0cx3GePi6tjuNsSeQ5ikpKfDTklQQwe5w+tKGvynFsPdNNDKs1jOZ3YTQ5jWGJKsb9kn4ffXVGoriW9u5HrGjjySOorC8j6PVstihlb0IjCbAe9ehPWJfWm/jyVVFWk1G5I9/bEFWSVpNT5ZtmkVdNAHBGWnmeSBFgnY/r7VoUVaV0csGCjpoFa8SiOf41tJQiqJNsDVtvEV2dQ1Ow9vkq2dyVjoeOYh2zXK4oP5XiGlNWSxRURVUl27xZFkHWOrVXHc4KvH9KIVC9mpAgKkUo8bVULFjbJcpVnldl2AuxslrG4eM1rDRiE+sw5j5l3vNaiumJBAtTXctlDdjmp/qjocGU9pDy3Pplw7XVcZxni0ur4zhbEsmdpnDVq4ZSyvJOlYM6xHqrjca4k491qKIcjirUriuvAXbvs8ipoqH9XhedRsMktFiro0TZDR+8G+mpozY6QEkiR3HsU1w1A1WHJeGx6nBV1PlZRId6KolUNLJE/dKrRDaPAOtF479m4qoorI7K0DoJ3nAosczktyC5ZFFUVdJYtH2sQntELzkucV+NIKA8VsmjoryKwJZZitym/YcU44qiphRQTSwwx+UKr3HAezFJIy1Rnjs2gUGMCe4zwVPoWNWv6WA1PJgJrDq1hUWsr5dx9FgNzW7RxmQNeKGVCbahqpmvBnjhVavYP9fmuccRY977JyrcZL9sKA1C3zt10rKVjuM4zwKXVsdxtiZ0HAmqclnVG30wVKRSypdJbLvbR7ffN3FVJ6aU0jWoTyKdnsNoetaimeDxKcW119gwWYwnJu1Re7S+jMLKKcsnlcDZQPoSVi6rKMqqyKVkVxQpjopKDlmytAEtZ1FSiaYalS8KKuiZ9+PNWdvzYvtkaQD6EOaLnU9jstqoBRI+LiS0Z6UPSGQVcdW+mkwg6/nPdvCaI0pyiRsilgpLiSKrKVgVSa1yucaie6F6FXUeJRqxgNIsybaIbxH9YRGnlss4frqC06sldBNFn7M8Vs1+NTWRYO9sF/NTPVRK/D7wAljdk6JtKlmHtMdmGXMcx3k26DPQcRxny6FHzCaVaTYAv0RO0UVN6yoF0lBYnV7fUggkt4piajzUVPmtGgarXDax0yP1zuoqEopuoVJDidsrvRbiE4fR7XYohiPKZ4gB5U8Cmwur8kn7PJGirllEVENRKWUgy0U1qWU5Y6a5qY2hKlrhFisFbpMsZkdlO9pX1q2261w9Cmreg7/NlQ1acovrdE5FXCXODbY1GwWA7Qsji9Jq2lbdlTw6XOYne0ghrVJMZxQV5bV1WL9yhNNEnbUGNoRWgUKrMQU2OkU8fLSKI6fKWGtHbEsBBaUFVCi30Yiy2sf++Q7iSOkNmXTri9qfXckTkIvqU+7kOI7z9HFpdRxnS6LH7Lum6liYrNsUrsoRVS7rZL2K2Yk6auWYXkRZHaaWM6qopXrYD2t1dHftQ396Dkm5YrM4KR9Uw2B111YR1idQjSLU22soH38EQXMdA81Spelg+WrRU8qenEuRzqZmoeJHZYdFYqjOSyVujFki7mo5rdw311M6nS3lamqF+9oEBnzNOyXl+1uUV698V+H16Dok3/24ijWaY5fnneQ6PdZX5Ff5rhFf88iv5LXCk07wWNWn9TUu6/zabm22bbARAnQ+/mWtWaevbivAqdMxji1mwmp5rIqwlnlceYiZWg97ZtrYPd1BWMjqUdt1XvsPZHxNWb7xpmKbsm35NTuO4zwbXFodx9mS0KtQokTWSiVMlEtn8kXLJQpnpYSY4qlorD1+ZpE88S0041WhXEWwZ7+N3xpUKpZvOkz66LU76DZbMmJUKbTTFNf51ioWkjamohAlpRQoRYBn1wik2bz8kteRzfuvcVT1uD4b/H/8ypLFTzej1mdoSdtUT19RUzbVHtVznaRScqfIqa7GoqV8L3R+LSu3VXmvNooBa6vxiDOyPC7WmUpiyn30J7szOi/f6b4M2NLUumpZHmvAXwC0e7tTwOnFEg4fr2C1WURvmOWxRpURKpUU0/W+TSKwa6qLuKgWq1Y7jZ1HkW+VbO3jyUVWucgqT7SP4zjON4NLq+M4Wxr1xFdU1ToqkSKlNKJ4SWD1GD2bLCCXtEwS9Wg82LUHgTplzcyioClUuV4jCrRWV2y816hSw9Qwwa7WCvZsLGKay+qYJSOTtEpIVZ8inxI/TRJg0qp6xuWMtPI4+mh2cpUcreeXlBu7owLa3LHN5R5f8xm2tJMkU0WHSkYlsUGqqVxZNJUr1ylCqm0aZUByq9uh0QvsGBZFgO0WseiDXXUP2G6TbQ0bRnG0jme8d6OAgpoUsLgS4/CpMo6cLqPd51l5IuWwarSAem2AXdM9XLmnaZMJ2N1gffbCd5ux1U9QTFptfF3eJb53HMd5Nri0Oo6ztRkLkC1yQVFVSZDGb+321UErm/ZU+aZ9Wps6KrWDAlpBiMb0Apr7r0ZvYtoe/9uj6iRBb20N7dVVhLVJBJ0G+o/eh/bJo0g6LZPjIuuoUvAmCiPUVKiAtVFqQ01pFqqYIhiPhpYiUFRhI/VhKmfMkFRmEqoIa2tYwEpawFIaYlGF7yWwChDr+PyDWEcooqohsHYXEswUhqjy/AGvR0YqeVWUVfVaGsL4vth7brf3rE9lxHvT6PZwqtNDS/m8rL1a1NBcQG9AYW3EuPdwFceWSjaBgIbfKpZGKFUo9NHIoquXLbRQjimcrFgSbNWzCP2a8Pj3EmXtt6mwHeqEpdfH9nQcx3lmuLQ6jrOl0cgBa62OdbjqU1Y1v/1aq40NPernOkVbTdIkRrRARUXPfLApT3ViCp29l6I/M49RrAfpFElLFWih09iwfNeYUlZfPo7y2iLCXhs8ivUMuS1FKkEeDNHifi1bTm3yAk1yMNAkBTon61Q5w6Y3moq1MyogKUSYrFYwUamgGxQt8tqXuHKfLF0gi/AqhUDr1CZ1rNJjeGGP4/knk+PsTx5pFbp+m/d/QJnnPetrnNo+7xnvjyLPGutW6Q9BGmB5LcJDxyo4uRaj0dMYtZTn8ghRiZJcSXFgvo1LZjsWYc3zWHV7de+kqnbLx8t6zYRWS49hkXETbbZ00/1wHMd5pri0Oo6zpZGErVFQLTeSy01K62qjiUani4TCKJmSLwUKW9KmTFr1nkWRy7QYo7frEvQX9iKtT2EYFrnbEINeF21LFUhRjMuYaa1gcv00Ks1VxJTaISW1Oxihze1NlkYyxEaSokVR7vC95LVPmc3TEzKkksTObW+zUQG0wPPO18pYqFfs8bxin5Y3ayWwkQM0Q1eXReLK01sKQZaCkFlf7n4mi0pKtesfRzS5rOhzu5eg1aWw9jQhgZIXAkSaVKCoDNkC2q0QJ07HeOh4BeudyCLU9GlLCbA81lofV+5uYc9MF5WYW3kjLULNtjxWNr/nF91pmqlSNzTma71cxhQFfbpWRc3yj3luN1fHcZ4l/Hy3TxzHcZwtycm1DTx8atnETENbJSnFlRKrcUarpdgkVfakD7IBpWxIcdJsUxpvVaKkaKQyWovdto3PWjn6EArtBiWXe4cFRCVKVb2O2sysRU6VWrAyewk65Qn0CrFFd2MKoerQ6ASaxlXHaTQDpREoGqq2ZNO3jge5GvuZ2rQyCLBhkdYYl06WTfQeWm2zzgRltliP/xWrzVIcWDdf1WY9xrfOVlxQUeRVea+h3YcU62zXCq12ng3Q+h7XrXQTDCiuoc1CRZFlmzTRwgTFMVJ0t1vEXY/UcHixhKX1CP2U24sjSvuQ1zTCnskuLp1rYT9LOcqEVZFkRVJ1/5XXa1HV8XL26F+5tAEqmsCgUsEMRXV+agKT1fI4withDm3qXcdxnGeDS6vjOFsaRVRXmpqFiWJHaW33+zi2uGLiVo5C80PFE5U7qjFHNSSUpmRNpX88RvKnR9TxaIBSr43S8kmUV04i2lihiaUmmkUKV2VyCnEpAiixjcokTsaTWAzroB7boP11ymW9QHGVoOoYSqvOPvZTO5eVx9bY2xYb11QnrFGICdXPdq51+6iyhaWslWx3NjyVjZCg47iPPpgVKVauqS6iHgyts5U6abV4sY3BEE2WmuSbRZMvNLle08WGLDpendWKFMY4LmOjWcKJxTIePlnm/aTAJjwT/4YR641TzNX6uGSmjX0zHdTKfZ4yiyArgmuSqvbwi8kri1IEtKwZtfbMTmGqWkW9Uuax2WgPZd5TGyfXcRznHOHS6jjOlsY6XlHCJEh6lN/q9nD/sZOW21qklCkKmeeCUteyCQIoS0MamaRPf4fcT4PzVymu0aCH2uJRVE8fAdpNi0paRLNYRG12FuWpKYwopIeDKo6GE2hSXktxEfWogOniiPVknaEi7iNlVeRRebVqg0YJUNRUH6r6Kt9Uvqoe+zdStU/HZOPJTlAYI7ZJ0UoN5s9dESsYKRlUnXzNhteS0AY2ikBJIwlwh3XWpVzZVDt1WygMePZRah3RFAHVNemTXfcnLBTRGVZw+FQVDx6tYqMboj8YT1UbDxEVU9TLCa6ab2L3VIfy2bN7nclpNpuV2pZdUSaqiuLaH65Qnu4Nl+6z6Gqdslr0iKrjOOcJl1bHcbY0kiR1wjq+smYdsJqdHpY2GpQzSlwxhCKwiq4mlDNFWrOpWPlKvZPsKdxZotDZ4/WxKJY7TVQ3FlE7/iiiLsWV2zU+axgVUaxUUJpbQBBH6BbLOF2eRVqq8n1sqQCKHkrLNHWqVFNRXg1hpdxVm8hgLHeZtEpQM+mzT1oea+tZYhqtjs8FNZdd7WeP4PnHOmWxCI1QoLXat81rhYb+YpuHlNbyKKEED02O9Th/RLnXR/tgWECrV8QDJ+o4tlLCSiMyYR2xXUoLKIRDTJa6WKi3cGC2gVop63g1UBiV59KZFa21iQRYcplVkczqHMphVaT1it0L2DszZbmz3NVxHOec49LqOM6WRtHVRreLrx0+juWNpvWM7/UHlkdapmTqA2woYQ2LlNci+pS5Ad/b42kKlySuy+M1GkBM0VTENR4OUOp3UFs7jSpLqbVmj9SpexhRuor1SdTqVZTqNXTqc2hTPVuFCM3yNHoUYilplS+aiYpVWtSzS3G1jlNcVpvkbUVulyRb4Vobg5XFZJBmJy3MpVWya4/c+V6fyqpDea5a0P7aW+u0b4/XWuA1Snz73Q4qlNYpyqZFe3kdGvGg2RtS7mMcX6tS+Ms2VWs3YS06f2GEYpiiFncxT2GdrzcxUenZOiEp1XXlaRD5Y35FlBX5zsVV7dE+yi2+cs8CLts1j1neM0W/HcdxzjX6XHIcx9kySIbUC36j00Wnn5ikdnoJVpotLDeaWG93M3GlnHUpZ51EZZANRUUxtVmsWE8chqiwlChVA5pgn7anTlUpj9UMV92ohNbsbrSnd6FXmaD0Una5vt/rob22hu7GBoadNib7LUx111HprGOgYaRYV4fiupoW0OJyj+fr8rXLYzvapmVJLI2uQwfUNh3Dv5kIjouET+ukiSp6r5m7JNqSPi1vVj9tF/JBCXBxRM1NB9nkB1xv27msyGyfbVtphTi0UsIDp6pYblNYUwprSHFWSkA8QDnuYa7axFytQWHV+LSJCenmHNYcfU80SoK22bi4LFqn8434fWi3O2h3ejY82eOPdBzHOXd4pNVxnC2DPo16FFWNGHB0eRXzk3XLk9T6Ow8dwdJG0yKvejQtcqkbFYoYRTGKcQlpGCHl+4BiaWOFUqKSYYpIEwOw6DVLFZD4sQz6iNobqJw8hEJzDYWkhyiKbJimcqWCytQ04qkpJOUqTqeU4IX96Fen8eBqG3WKXjkYUlQ1FqtSBPToPbTopCKjSmtQHqoisurMVaat2uQA9qg9Sy1QUWqA8k8rUch2sQ5eXjcdokEh1zir+phOFGJlnYra6vm79lH+apk1xDxHkbVoj1a/gOVWEQ+dKts4rKsU1oF6eXGfIMxyYmtRFzPlFnZNrKMa9xGGXz/NqqVBsM1qq52LX3g6e9W+urMxv5T5qms8eMXluGz/3mxEB7vvjuM45xaXVsdxtgQ2MkCvj8OLK1hcb1iHq71z0ygVNeVoYsLaHEdfVRTtkxuZHoWU1GJk462OKK0Dip/0TDtoH8sh5ZpYuaujoYlrka/69FPeaTFNEFNYy6unUG6sojLsoxBS2njuUqmMqFZFoTaBQX3aUgeaUQ339iKUuE9UoLAqujrUuKu0Uptmludm5ZqxS1JbpiBLXJUHK2m1/FC2XCkBigqXaIdVSvJEXKQoZsKXsM71/gAbfY0Nm56RVuXIlniaQDLLe1AOeC1cp2tp9Ao41YhxdK2MxY3IJg7oD3STuJHtCIMB6lEHU6Umpist1Eo9ni/PplXtjyHxtMLl7H+JTFa1rCGsNKTV7loFs7x30ZFDmL32GkxdcSW/B5Hdd8dxnHMNP0Idx3GeezRkU7vXw5HlFZxYXc9SAFia3a51wNKMToq6lilFeY6lLEoxTT1upyqZvBWpgpHyV6mFkUSVwlZV4addmXKoXv/Kh9VQ+5I1iwpSdgdzu5HO78Nweh7DcsXyZPU43GbOWl1Gf2UJlV4b0cYiorXjmB40UUkpt2y32dwYqd3jH7NLKEdsSZYTqhQEpSvYEF3jolSGWhRSXAuoUHgrksJYpYgy32sf1aNH8pp0QCFPjUCgawy4jk6LZp/C2oxxhMJ6ZLVM4VXHtACF4ghRrA5TKSpRD7PVDUsJmCy3KayK86rmx12CYW3medRmnZcvY3nNpLtaKmHPzBSumJ7Alf02ZjqsL9F0CY7jOOcHl1bHcbYQgUmlwnuS1hYlVvJXLccU1hgVCqsGqZdo6sNLQUk9ileHJD021ygAKsr3lNApuqnB+yWsejxfod1q6CoJYqVUxATr1Jiied2j2V1o7bsSqzOXoKnJBUahjQrQpxX2Wk00jh9GsrGO2jDBwaCB3ekGqommfaUs6/wU5lE6QL+fWGqAxNJyTlXG1pfnh2bympViGFBc1eGJCs5rk0crp1X3QpFXk0Zer4kr//RorjpOEVRFZFe7IQ6vlfDQSgWnWrEN+aUbFJqwUt7DIepxB/PVdUxXmhTYvtWnKs4Uvf+6ovM9vuiPhiBbbbZwutXBKu/NiNIfdDvA2ioP0pGO4zjnHn3uO47jPOcoV1VTtCqypwHrNf5nNY6t1OISCprpivtlcUEiL1OnJQqaxE6P6SWuJa6XqNbGpc5PuXoxk9V6HGKKwjpBQa2x3grPo2GzbEYrVqjZtLpxFatTe7A0e8Be+/yYlGQmlOhuu21Tv/aWTiNYXcRk2sVCcYC5wQZFtm8dpBTdVX5ppFzT8bK13NIRsg5MAyvZGKi6mmz0AF4S2y7yx/Imq3TATCwluOMOZSxqk46TpB5er+DIRhmrvYiizQvmdRcjtqWoYcFSTJebmK1sYIqvcZiwfumn7uWmwi9PVjbvqPeKwCpFQxHxw402erv32DBbWFzkhehKHMdxzj0urY7jbAkkrRvtro0coEf+inxmaQAUO5pSfzBAVx2TaG4SOBmebdaX8XKWJpCJq00mYFHWrBNUJQxQLRZQo6Qqf1TDZSnlQGOQ2llYp4lhQHGtTKAxuYD1yV3oxHX0ClE2nBXb0G810F1dRsISdRuYHLQprQ1MD9uYGPVRwSDrHDUWV6UqKH9WUVddi4molUxE+RfdASWQ16VRDSSimZwC7WRo6yW3iqwm6dCEtcfSSgpY7RZxrFm2stQtoTfkheo+aGpWymopGmSdrkoU1lKDkt5FUHh6kVANZZVPwbp5CCstqygC3ur20VCbd++1TmFYWsKo07Zos+M4zrkm/AUyXnYcx3nOaHR7OLm6jtNrTbT7iUmkclybFKOmvfasc5a29dNsxifLR33Mp0xelV2gSQA0HqrNXMV19K8sj1UR1SATOx0vQTSBpIDpVVHeMzNK0e30mD0pxqxY6wZZ5JSVqe4R9xn2OhglPZTLJYqxckwptRRLtUsyHLKSM+O0smE8HYsyadUGvrKoDXrEr/ikZFBK2eObdQr6iXaClZ6G95LQZnmySjPoU1iXOjEObVSw0o3RHlCJNasWqy1Q0kOWqDDAZLGN2dI6KsUm1yV2dpG146mpV0qY0Vi1lHvdH/1SoetSTnE5ikyi99qkAvOYn5lC8dRJjFaWkdbKCEoVFo0r4DiOc+7w0QMcx9kSnF5v4L5jp/DIqSW0ev1x7qrcjtIpwTOppDxR4PQqtF77ZK/ZfkoV0Gu2nM3mJEmVbGbTmmY5okLDM0nGusnA8jRDyyGlXFLIFPVUZFVSWuq3Ue01MNVexdSwh0qQUg4picUirThGoVJDWK1hVK2jV5rE2oASPgyRhGW2QwLNttB01U9foxrYRAJcp1dN/Sp5DVifRh1IhpqoQJFXpQGMr5XyW+Crpm3VaADNfhmthLLaj9h+1qUhrcxEpcMaTSDBRNhAjdJaCTtsg6YdyO7Z0+XqvQsU0jlWGeDk2jrWWh3M1Ko2aoBEVkOTTfH9LMtExO/VFz6PwX33oFUcoXLbK1C69oZxTY7jOOcGl1bHcbYEq802Di2u4NHTy9jodGwILA0ZpdzNZwpVbvw1GyUgn440lQTydaZWofTxPEl2HqUkVCKNQ5DljKoNKiJKe5hqLWPvqI2ZUR/F4YAamD3mV5S0VKujPDGBUn0Ka8kQ66MInXjSevBrmtkhJVzDYWkcV1tnxwXQDFpKPdAUrJLVplIFuFFDXGkoLOXqKu0h5PYkLVBYQzT6VcqrIqAUXh6jjl4Wxx1KWHsoBx1MR+soFbq8zq/PMc3uy2PYvRkLvUk7q7rx0r244cBeCmqEU2sbWG93sGtqAhMVSmuR18D7YpLPY5XHOvr859C/43asHXkQE9/1fai+7NWsuDA+g+M4zrPHpdVxnC1BLqmn1iVIXUsHePjkks2MlUdGn4izBeypsH0zhzX0OD6vWpFQyVgkseRK6yhFIVSno6FyBbhOnaquKI2wD12UmysY9TtZ/qZETxVL/IoRStUqCuUakqiCDYrlOiI0ohoKSjWgyElaE8pqn0Wy2ua1tympiq4qwqs2yQWzNIeQ4hlRaEvopRF6lNXBkG1UdFX7mrRm8dvSsI1q0ECt0LD0gCDQxY0v8EmQvBcp1BpOTCkBlVKkwC7mJmrYNzuFBYqqsn71Pcij2JJc3SO9WmMVBb79s+h/4dNoPfw11P4/b0HlFa/nBfiYrY7jnDtcWh3H2RKY+9CW1Ctd+a0b7Y5FX7v97NH94aUVNDu9rxNYU6LNXnT2J9oTOJPJluC+enyvR/3KdzXB4jo9krf26A0X8iolbZdNlLGnHKI06KG4egJhc5X7pCa32leCV1QHLwpbEJeASh3dsITVNMBSoYZGIUZCER1aoWqytBTtVXR1LKz5+UaU1SFK1NEKS4R0FLJtWSQ0a6CKhvjqo0yRrqDBvTuU3T5bkdfy1ChHVbmrSgeYqlasc5pkXR3fFHXdPzdtHbKeFGvHEL2PfxjJ7Z9AsHIM8Ru/G9FtrwbqU9k9dRzHOQe4tDqOs+XQ43p1wNLHk0qnl+DT9xy2vNdhoJ7p2cdW9lhbU7ZyWYrJ1flj7jz3VSKsSKJkLM+TVbRQCzYlLIU4F2HJmtICTEDPQnUql/OSqTrmJ6pWZ7R8HOHaaQT9Ngr9LoIBZVHHU/ikappRqzIxhRHlVbNaHQsnKK4VtPUQnyI7CCPuFJ6JsCoRQdqrsQYkqAlVdDAej0ARWl2vKaDay+sKNC4t5VmiWkUT5YDtGGU99x9TbTviSZmuVXBgfga3XnnAhhnTOXT9K80W73sfe2embASBJ0Vt4T1sf+A9GNz+MVTTBsJXfhuCW18JzO226LPjOM65wKXVcZwthzmZpGv82uoM8L7PHsGJ1RUEcZviqi5NEskiquVJyuiIItqnbA3tEXetVLIo7Xqna4P8q/OQ8jH1yFvaJ4EV6lwkEZagqTPWU30c6pjZGuthHVOsT9FZDT+VdjuIG0uorp1A3FoFBgn/qij6qrzPEMU4RlypsZISmoUIp4ZFHA0nsVaglFJcldsqWVVJoOG1yugNaxgEMUaB5vkqmPtlwi0NVboChXWYUBLXUB41Ka49tjLLv336H+oBpXTSoqzXX7LHOqblmNCz/RL1M5HpJ4L7jDSG7fveifRzH0U1HKDw0tcDt74C2HOpSbnjOM65wKXVcZwtzYBiuNZI8JcfPopDpzYwCilq1QARZSqKypidmcGlCyEOzGVxyqhYtFmy2r3EZm3SSAS7Kax69K2OVkLRWEVX1bno/uOn8fCpZZsyVuseJ2ibPh4VbZyiEO+aqGKa0qpI6yhgPZK2XgeFTgNFSmu8ehpBq2HrFMVVFQH3U9RVAgsKbFqqoEFhVdT1ZFilyJbRBkUVFXWjwmBUggbYGhW4P4/NMhck5tJMTVjQRzxqo5Q2URz1WBLFZr+hrOrS7Pq4Y/7Rf/nuOdywf49FWzWUVX792q5dNo/R+oToGrtt9N77Doxu/weU4xDBba8FbqG07r9C4ebxjo7jOM8Of27jOM6WRtLa7qZoNEdYWSng9OkYS4slrK5U0GzUKVZTmJ2YxcG9C7hm325csWsO++dmcNWeeXt/3SW7cXDfLuynlM1P1q0oh1PRV3U+knxaDivPJZlVZFGPzCW4GoZKpmfDW/FVEx9onFgJsZaH40H0B3EF7focNiZ2Y706i2Z5Et2oikGgHv70Ogpxj4LcbTaRNhqotBvY1VnFnu46Jnpd0MMxGMToDKroDiiuw5KlB2i4qYDmaB2tLLLaQzSkrA6bKKcbqAw3EI26FNl0nFrwWFG7Y16LevvXeJ3KSw0pwZJ3rbM8Ve6jDnC6Fr1ujmHoer+hsBINCTY4fZKivoFQqQmqQxc9/PpRCxzHcZ4NLq2O42xpkmSIVmuAbo/C2B1ibWOIoycHLAmWVvvcTjmiJ0nwcrSkMVkln3unp0zQztYvieoaRbLR7dpkBYqySlgXKLU3HthruZxKCVD+qw2oHxcplCnW2z2stLvY6GjCg8TyPpN+H32WJkXzZH03jk3uw6naAlrFMgYSXzPJbBKDfreH9dV1NNY20Gv0UOwVkfQq6CQ1dIdlyiplkvtbssA4b1WlMEoQD1uopiuoDlYQpy2TTDni2UVIwGfqNRtrVcI+TVGXiF+9d5dFV/Ve+yxuNPHAyUU0Ot1nNLzYsNlA5yufx2j5lEWTg6chuo7jOM8EnxHLcZwtjaKsp1Z6+NpDTSytJegPHhM1CeX8XB17ZiMsTD2W95mjaKGV8fvHk41JKqHVAPlX7p7HVXsWLFK7Z2bS8jsnK2WLzF4yN23RycX1JjQzlU2pyleNatAfT06gKWZVNHtVhx7dRIh1SmvfRgAIUBxqlq8APcRYD+p4JL4Uj0QHcCLchbVgAt2gTE0t2JisymINAxbKaqkwQLWYol5ooRa0USn0UY8DRJqWiyjnVxFRpUToetRhTNHjhak6r2XW8lU1KYDWafuVFFbl9iovV7N0KeI8z/d7Z6ZNzq2T2tNk1OsiPX4Y6ac/jOL6Etut7Fwev/9KYO9lwNSM8gvGezuO4zw7PKfVcZwtjaKp9z3axHs/dhIPH+9SDLmSXiRRq5QjXHtwAbfdNIkXXVOhiIEilh33jdAHn8Y4bfV66FE8FYUs6RE6RU7apnFiFX1sdPsYUE6XGi186eEjFo202bW4X8yiZaUP6JNUkVRtV+RWQqtobr3XxkSngcl2A3p63huVsB5O4mhpP9aiGQzC2MROEUqJatHKEHFhiOqwjVoxwUQJqPLaijHPVeR1R7HJsnJy9Whf+ba1cScqfaSrrktmp3Dp/Cz2Tk/avqc3GtY57bKFWctd7Q0GOL22YSMmSFZ3T0/Y9ec5rd8Qnmd48ijSr96BwQffhWjYQ1ETM+j4l74BuOXlwD6Kq/J4HcdxzgEurY7jbGkWV3q49xFK68dP4ZHjHUqrci25gW6kjk2zMxW85HlzePWLZnFglkL3WAf4p8WZj8CzIrJa3e71cXhpFQ+eWsSR5TW0KLL5/tpXkUtFK/WqNUoxSIep5eGmeb16ZZvTTgGDQdFSAJqFCRs1wGbJCii+iqpaoaxigGqQYAo9XNY7gr1hC3O1EJXLrkK4sAfB5BSqcWzCemRpDZ2E+1bKNgqATFzSrDbOTdazvFxel/JVs7zd0WNiyn3yob6eOiL9BOg4CfrnP47RHZ9E8cQjCAb8bYLXQqsGXv6twK2UVrZXs4A5juOcC1xaHcfZ0khaFWn924+dpLR2KWlcaXZFySoEKJVC3HD1DL7l5gW86GCMmbo6TWn7s0eyp4jr0ZU1HF5cpcAuW2RV1a93evYoXUXyp2xQjW+qj9R0SFEcFpCkyoMtoZ9GGKUae1VzahWtg5bazr8mqxr0KoJyVnuYGXWwv9DEwbCBqWQDVb6PNDZtpYagVkNYn0TpksuQ1qbQpiCmlN+4VEK1TFvnp7k+0U1Oo8hSBYTJqT7p+fabktMnIh1gtL6K4UP3APfcgeDQAyh0Wyax0LizVcrzq74duPmlQG1CJxwf6DiO8+zwnFbHcbY03Z46XyV44FALaw31cs/W579tpxRL9fLXI/qZiQjlkkYAUORwvMOzQCkIenQejYdtWm62KJlZVFIpBZqsQGLYHwxZwHUFm2a1O4hMVtv9Mpr9GjppBb1RGUkQI1UkUuI7jqwWgxTxqIf6oIHZ7iL2DpZxFdZwXbiBaa6vDBOESR+FVgOFjXWEzTUESWKTGZRZqtxeHvRRVAkL2VBgcfy43NQzkVSV8bpvmgEvsLXB3yJOAIcfwOjuLyA48SjbxXX6bugeVSisC/uBgzcCe/jqqQGO45xDPNLqOM6WRmO0Pnq0jXd96BgePNpBp6+e/9Qk2pckTBYWxyFmpst48fN34SXX1XDjZTFl8twE+fQJqfzUE2sb+Mx9D2NxQxMRJCaI9fHj97V2H81eyBKj0yuhP4wwYNHMVhqj1RrCEoZZaoOemBckrUgprgkmBhvY3TmJKzYewe5CH3sqIXZPVPQBzWKtsL/KmU3TAVJK7CBNkGp0gUoVxckpxHPzKF5+EOHCPgSTM+fm4nMURW03MXr0fgT3fwV49F6M1pZNZNVGO1eJwjp/ALj2ZuCGm4B9l4wPdhzHOTe4tDqOs6Vpd1IcP93Bn//dMdx/qIVWd0gpDEwm88fdiohKXOdnK7jp6gnceu0ELtsdY7oeohQ/83QBPe5XhyUNCfXAiUUcX9lAuzewqCq1kyJZ5HKERrfA1xD9tEhZtb7/NvGAcjwtzVNtlKhyOSxokgB15hogKiSIwx6qQRcTaQuTyQb2dtdxWZjiqnqMAuU0oDBb7gGvQR3HRspNHWazbenjezTSpAIjDFk3yjUEpRIK5RLC6VkUpudYZrmujKAYI1A0VDmtioCOI766OXYrdUM1tqrORyHWzF6jXi+Lrp4+Bpw8CqycRiBZbW5g2O/aPQjUkazE804sAPuvAl78UmBhV9ZzzHEc5xzi0uo4zpZG47Qur/XxZ+8/iq891MB6c4BuqjzSsYmOxVWvktdLdlVx8LI6rrqkhD1zJcxPR1YqpWw4qKeD+RsFUUNYrba6uP2BY/jqkUV0++rQVLB81TTNclb7SgdIsqiqhqySpaodmbNmkVUNT1WK9WhespoiLkpWBwiDHj+EO6jGI1SjAmpRiDKl8LLiEDfP1hDaTFsdmnsboz4FUkKZ2/q4oUOKbZp0kWr4KT3Cp3gGFONwStJKYZ2cxiiOTFJNVqMIBc18VeSrJNbElX9ZV6DJEiirwaBv59NMV9hYx+jEYYxOH8eIbbEEAx5nElykDMeU0/IEgj0HgCuvAW6+mRJbYoVP7147juM8XVxaHcfZ0ugTqtlO8M4PHMOd963j9EofnUQdnbiN2yWGBl+U1yphLFISq5WiSevBS6t41a0zuGRenZUoaN8A1WnCSkFda/ZxeLGFzz+whHuPNrluLKwje7DPPalwJsxZUVv0XufPIqsaC3ZEYQ4wXS3yWiSrCaYrXZQijTLQx3qrZb3/NanB3tkpnm8FC9UyXn7VfsR9SuvyIkbHKI1Lp00arYE5XLar101isbZTbEcsQwrskMenvTbSbgspJdRm8FIeLuU4pLhGcTG7Z7p3ugSlG3CfgjpbUYZVx4jiPtDsX3wdKqE4KiOsTiKa2Y2wMomgVDWBxbXXAgcPAgsLnsvqOM55waXVcZwtTz8Z4r6HG7j9rlUrzc4Q3WREgcwebcvcTB61mIujxjMth5isFbF7toS6ho2itFZKIYWxgNhKgLiYia46UzU6KevWhAHZBAK9wYjvEyxTXhudgZ2Pq6HJAhRVHbsqzzlOAxjnrEpULQ2goM5aQ8xPRrhm7yQOzJUxUyugVGT9FMNTa+v42tGT2Dczid1TEzaRwUqrjclyCdfsnkNBUdNej7LawqjZANZXMVpdscirlW4X6s1v0ir4Yh/pVoYmr1mhdLIupRXYe6UB2Huav5ZHes+rsmWty+pTVFUpBYVwHJm16GrEC4xRiCsUVpbJSWD3buDyK4A9ezzK6jjOecOl1XGcLY8+pVrtAb50zxr+4fYlnFzuYr2ZotPXeKh5fqvsUa9alLhm6/LlIuU0jgOUKa3ZCAO5uFJaKZsmre0UrS6lNc2iliNWZsNFqQKFIrVWy1a35DTrXCVRNkkNRybLIWW1EAz42ke9TJebKuPg3incdOkM9kxX7XBNCnBybQP3HjuF3dOTmK1XuW/Jcmg1lqreP44kobhuACtLGLVavCHNrEhqJa/dji0/Jpx2U2zZFu11mEVPB0kWidXyWGJNYCWs2c3kX8l8SFGltEYleqpEtWyCbmHkmHI6PQ3MzwP79gFzc0C9np3HcRznPODS6jjOtuHQ8Ta+cs86vnzvGo4tdrHRHKCX6nF95lqPTxXIlzNptUis/mp9vsyyeXu2LT9svDzelh9r0VSLqCpPtYiIklooDE1SFVWN9ei9kFBmeyiGbeyeKmFuokQhjXHTgb2U1gmrXx+92RSwic1QpVmtnvYUqhJM5ZwqXaDZxGjxFEYn1FFqxdbbiANP9sk+Xp+d6YnO99g63pHxEjnTNr5SYE1Wr7oK2L8/63QlmXUcxzmPuLQ6jrNtaLYGOLnUxR33rOGRI22cWu6h2U3R6Q3R7QMDfpxpfn8bDksHSES1PJZOlcfJqRXtM96P67NllrGYqih6GhU1BiqLLWdz/yu9QB286pWsTNdC7JqKKKIdJCmllTK7a6qazfPP46eqFQpqUS0zlDurYavCQOkFPOd4/TdEH9v5o31FS89EWvXKIpndWM9e+7wxFGMbZ1UlX1Yd+ae/TmzLuglaZlt0jwohRhptQJKqErHMzACzs8DUFKDUgErFRiRwHMc537i0Oo6zbbAOUr0UD1NYHz7assjr4mrPHut3eopcjiiLKhrLVbNUUbzkZhKxMZm08lVSxmUTUz3i1/JYVO0Rf1iwlIKinoQrjUDpBXzVtnIcYLIaYoqSaq/VIup8VWeruckiOv0u2zKwyKmENZ9O9bwjkU36WQS2sZFJq1IGTFRZ9CqJlbRaOgBvjtIJLC2Ax6uNipiaRCs5l9KqkQaUp6p0AImrpFVpAeWyR1cdx7mguLQ6jrPtSCmmx051cN+jDTxytE1pHSChsKrHf8s6U2UdtTSeqgTWZt23T7rs407CWhhLqeQ03CSpURSM8131mkVTY26XvNp4q/S0eiXE/oUyLt9dxq7p2IazilSnRJjoY9UcUH8ugKs+JSam46isXjUzwxlhzSK1KspptSGxrKOVLpYXOhbXM8Ul1XGc5xCXVsdxth361Or0Umw0E5xe6eH0MgtfNc2rpFVTvyrP1YKI4/3zZeqabDKLfLLknakyJ3vsvTprVcuhCWqWAhBidkLjvWbvq3zVEFoSXPru1wmqzvVc++oZdAPso358E/KPfVsviR2/H9+TM+XJ1jmO4zwHuLQ6jrNtUc9+zZi1st7H0lofjeYA7S6lta8c1yGSgcrozKuGGU3tI4+CSTFVbqqkU4Jajh/LWS1SXDWTlkYakLhqWa8ztaKtU+TVcRzHubC4tDqOc1GgTzLlsfYsRWCAxdU+1hsJGq0BNlgUgVV0VvsoyipBnaCETk9EmJmMMF0v2piutUrRpDSLvgaWEuABRsdxnOcel1bHcS4a9GmmzlqDdGQTEijCquWBRVlHJqzjQKvJaDYqQDbBgC2bqGp8Uu6ip+FnPfJ3HMdxnjtcWh3HcRzHcZwtj3cFdRzHcRzHcbY8Lq2O4ziO4zjOlsel1XEcx3Ecx9nyuLQ6juM4juM4Wx6XVsdxHMdxHGfL49LqOI7jOI7jbHlcWh3HcRzHcZwtj0ur4ziO4ziOs+VxaXUcx3Ecx3G2PC6tjuM4juM4zpbHpdVxHMdxHMfZ8ri0Oo7jOI7jOFsel1bHcRzHcRxny+PS6jiO4ziO42x5XFodx9nRHD58GHfeeSe63e54zYXh/vvvt3Ih0TXqWnXNjuM42w2XVsdxdjR33303PvShD6HVao3XXBg++9nPWrmQ6Bp1rXfdddd4jeM4zvbBpdVxnB1NLq2NRgOj0Wi89vzzmc98xsqFQtema9S16podx3G2Gy6tjuPsaCRyS0tLSJLkgkrrysqKlQuFrk3XqGvVNTuO42w3XFodx9nRBEFgZTgcXlBpvdDo2nSN+fU6juNsN1xaHcfZ0RQKBSsSOpWLlfz68ut1HMfZbvgnl+M4OxpFHXNp3QmRVl2rR1odx9mOuLQ6jrOjySVup0hrLumO4zjbDf/kchxnRyOJ20nS6pFWx3G2Ky6tjuPsaPLI406KtLq0Oo6zHXFpdRxnR5NLq6TuYpdWFY+0Oo6zXXFpdRxnR5NLnKKQKhcr+fXlku44jrPd8E8ux3F2NLnESegu9kirrtEjrY7jbFdcWh3H2dFI4PJI606RVo+0Oo6zHfFPLsdxdjS5xO0Uac0l3XEcZ7vh0uo4zo5mp0RadX0eaXUcZzvjn1yO4+xoJKweaXUcx9n6uLQ6jrOjkbDmkVaVi5VcWvPrdRzH2W4E/CC7eEMLjuM434Bf//Vfx4c+9CH8zM/8DJ7//Odjfn5+vOX88ta3vtVe/+zP/sxezzdLS0u488478Wu/9mt4wxvegJ/6qZ8abzk39Pt9HD9+HJ/61Kdw+eWX4+qrr8bCwsLjUhEOHz6MkydPotls4pprrrF1X/ziF3H//fdjeXnZ3p/N7OwsDh48iHK5bNfw1a9+dbzl8eg8e/fuxfOe9zzceuutVqf2veeee8Z7PMb09DQuu+wyvOIVr8Du3bsRx/F4i+M4W5nwF8h42XEcZ8dx++2349FHH8Vtt91mAlOr1cZbzi/vfOc77fX7v//77fV802q1TBg///nP48orr7TrPZd0u1088MAD+P3f/30Ui0W7l3Nzc4+TVgmkxPnee+81wVTM5DOf+Qw++9nP4o477sB9991n77/85S+bAOv7IsGVsOpV9X/0ox/Fgw8+aPt84hOfwMMPP4xDhw7h2LFj1gadU9Isef7ABz6A973vfTh69CiOHDmCRx55xMqJEyfQaDSwa9cuTE1NXbDvueM4zw6PtDqOs6N5+9vfjg9/+MP41//6X+MFL3iBicyF4EJHWk+fPm2i97//9//G61//evzkT/7keMu5QVKs+hW5fvnLX27nuO6660xgcySnd911F06dOoXv+q7vwvXXX28yKtlcW1uz9ZJ5pTFI5vfs2WNSWalULKVhMBig3W7buSSlunff8R3fgRe+8IW44oorEEWRCajO+Zd/+ZcWbdV/cdrnkksuGbcCJrkS6F6vh1tuuQWvfOUrx1scx9nKeE6r4zg7ms05rRfz7/D59el6N0c/nyt0z/VYXo//9+3bh0svvdTEcnJy0orWHThwwNZpn5mZGUs30H5ar2XJrCKr2kfrFb3Vsfn3VPXrOG1XOkBetK9+OVlfX8fKyorJsMdvHGfr49LqOM6ORnIjybnYpVXX5h2xHkP3I0kSE1bdF8dxtj4urY7j7GjyyKPE5WKWl1xaJaw7XVrVoUv5sUojmJiYsLQCF3nH2fq4tDqOs6PJJU5Ct1MirSrnE3WW+q//9b/iZ3/2Z/HTP/3TZ4pGLvjIRz5i0c0LgUYrePe7341f/MVffFw7/viP/9hyaZXPqlEMXFgdZ3vg0uo4zo5GwiKJk9RdzNKaR5J1redb0tTp62tf+xq+9KUv2agAedHoAOpsdaHuszpsaeSAu++++3HtWF1dtTxXDXG2f//+8d6O42x1XFodx9nR7LRIay7p5xONDPCrv/qreMc73oG/+Iu/OFP+y3/5L/ju7/5uexx/IdBYsT/8wz+M3/zN33xcO/77f//v+Gf/7J+ZuG4e3cBxnK2NS6vjODua/HH5TpLW8x1prVar1qtfY7VuLhoFQNsuFJLjer1uE0ZsbofapvUurI6zvXBpdRxnR7PTIq0XIj3AcRznfODS6jjOjmZzpFXlYuVCRlodx3HOBy6tjuPsaCRwOyk9IJd0x3Gc7YZ/cjmOs6PJI48Xu7Tm1ydhPR+R1jAMMT09bT3yNeOUckbPPo+mZFXnpyuvvNK2b0bHK9/14MGDVvLpWM9GdWpfzWh1880328xZmhlrM7pGzY6l82gGrLO3O46zPQn4IXbxfko7juN8A/7wD//QxhXVXPm33Xab9Ti/ELz1rW+1V82ffyHQYPqf+9zn7Fpf+9rXWu/5c0keydV8/pJNiaXKZtI0taJ9831ytE6l3+/be03Bmv9CcTbaT2O9akYr1aNydvRY29QeoQ5ZHl12nO2P/yt2HGdHI5lRudgjrbo2XaOu9XxEWvMIqKKlEs6zhVVonbaVSqWv267j1bZyuWzlqdqp9RLR/Fza92y0XedReaLtjuNsP/xfsuM4OxoJkIpLq+M4ztbGpdVxnB2NBE4iJ6FTuVjJpTWXdMdxnO2GS6vjODsaCWsurTsh0ppLuuM4znbDP7kcx9nR5JHHi11adX0qnh7gOM52xaXVcZwdTS6tEtadEGnNI8uO4zjbDf/kchxnR5NL3MUeac2lNZf0c42Gurr//vvx9re/HT/1Uz+FH/qhH/q68ku/9Ev4wAc+gHa7bW25GFhfX8ff//3f40Mf+hDuvPNOuw+O45wfXFodx9nRSOB2irSq6FrPh7Rq3NTFxUV84hOfwF133YXjx49jY2MDzWYTjUbD5O6+++7Dl7/8ZRw+fBitVmt85Pam0+nYdanomnUfHMc5P7i0Oo6zo8kjj5LWiyX690TkkdY8snw++a7v+i786q/+qk2c8Bd/8Rf48z//c/zJn/wJXvOa15i8fuELX8DS0tJ4b8dxnKdH+AtkvOw4jrPj0CNtRf40xaim/NyzZ894y/nlne98p71+//d/v72eb06cOIFHH33Uop+XX345rrvuuvGWc4NmoDp58qTNuqX7eNVVV9lUq/lsVXpdXl621ABFWbXPwsKCHau2feQjH8F/+k//ye6LorXHjh3DxMSEfV90vCKaevz+e7/3e/ijP/ojfPzjH7fI7he/+EXbV6juu+++G+9///sxOTl5ZipZbf/Sl76ET33qU5idnbUpYiXwR48exV/91V/hv/23/4a//Mu/NJlWG+fn523qV0VNjxw5YtL9K7/yK7bPJz/5SVunazt9+jQ+/elP44//+I/tunV/dV4dq2t873vfazOu/c7v/I4dq/Zq4gS14YkmX3Ac56nxSKvjODuazZHWiz09II+06nqfC/Lz5vdZUqj0AYmm0gZWVlZM9iSDEkilGUg4tb8E82tf+xq++tWvYm1tzfaTJH/4wx82yVXkVusPHTqE22+/3d6rfl2zorsPP/ywnUPL3W7XziXhveeee+w4SbHOoXU6h+qW4H/lK1+xKXB1nKaY1XGPPPKInUfr8vuaF71fXV21fdReiaqOk1CrDffee68tazpbx3G+OVxaHcfZ0UikJHKSjVymLkZyucqv90KicysSKyk8deqURTIVcZQ8Kg/0H/7hH0xelVLwu7/7u9aRS+2UuKoICacimTfeeKNFZPWQ8OabbzYRlGR+M0h4JZV/93d/h7m5OfzGb/wGfv/3fx8/8AM/YEL5sY99zGRV8iwhVtT4f/2v/4U//dM/xc/93M9ZGyStuobXve51+L7v+z78i3/xL/BjP/ZjeP3rX29CqhxXTTP74z/+45YmoQixjlN7Jbu6H47jfHO4tDqOs6ORHKnkUbKLlc3SqnI++Zu/+Rv87M/+LN761rda+sNb3vIW/OAP/qAJqNICXvGKV2D37t1noo+SaKUKSGb16H7v3r141ateZY/ZFdlU1FT7af+bbrrJ0gZUJJMvf/nLTQa/GSSNesQvqdR59bhe51LaxAtf+EKTTkm0xPLsnwm1/5WvfKWVSy+9dLz2qVEqgK7rta99Lf7RP/pHdp1RFI23Oo7zdHFpdRxnRyNhUtkp0qprPd/SqnMoh1VFj+gVsdQje5336quvNtmTxEkK9Whe2/XY/H3ve5/lmGoIKT2SVxRWj9rzEQhU7yWXXGKCGccxZmZmsH///jO5sU+XPD1AUV9FVJV7qpxTRVglx1qvaGypVLL26vG+tmkf5a6qLYrQSpyfCLVLudGSVeXSKtKq69I5tV4RWs9pdZxvHpdWx3F2NBKpXFpVLlY2S6vK+eQ7v/M7rXOTOij9n//zf+yR+otf/GK86EUvwjXXXPN151fu5x/8wR/Y4/Uf/uEfxr/6V//KUgA+//nPW16p5FaSKtGVKEqGvxl07Wf/QqLxVBX51WP/H/3RH8Xb3vY2S0v4n//zf9qjfYmqIrBvetObLMKrjlj/8l/+S/zH//gfz3SqerLhra644gq84AUvMDnVPcjHqVUHMqUVPNlxjuM8NS6tjuPsaCRQEteLPdKaS7mu9XxHWjczPT2NgwcP2uP0Bx980Hr2K7q6OafzpS99KX7mZ37GeulriKy8/PIv/7KlFmgUgLzTlqKc34z06Zp1Ph27GaUGvPGNb8R/+A//4XHnlFhqEgTJqkYuUGT0e77ne/Drv/7rNmyXhFqP9zWKgEaeeDIkvJJ31fWOd7zDcnWV9qAc2YtpnFrHuZC4tDqOs6PZHGm9mKX1QkZaN6NH7BI/ianOqw5Q6lAliVT0VHKnR+1XXnml5XxK9PSqfFUNH6XcT6UDaFmyqiiooq/q7a/H7Ypc6nF+jmRYOavaRxFSvdeQWto3RxFQnVNFQ3+94Q1vsLFllR+rnFWdT3mtkl2NLqDIrqT7zW9+M2655RaL+Cpt4cnEU+fTdepnS53Fvvu7v9uuSxKstiqKq++F4zjfHC6tjuPsaPLI406QVpU8snwhkazdeuutJqI6v/JINR6q5FCP0vMOWZJZiaJe3/Wud1lkUxFNia/yYCW5GhdVoxDo8bzyXpVjKpEVui7JrMRQ0cx82CqJrfJmc9Qe5caqg5fkUp2yFMFVmoLGidUjfeWwSljzZUlqLsHKR1W0VRFgkf/8aJtkV6MZKD9Xx+lalEOrIvnNO5F5RyzH+ebxyQUcx9nRSCokLRIPRfsOHDgw3nJ+udCTC0jiHnroIbtORRN1recSCVs+uYAEU/VL7PKorl61j+RPEwmo85QisIq0SuAkmr/1W7+F97znPSaqkleNMvCyl73MBvJXpFXokbzGZtXkAhJfSapkWKMK6PG7oqiKyGr7Rz/6URsDVtIr4ZVQKvKpkQsULdW+6gD227/923j3u9+NO+64w86htAHl3+q8ElXlvmqCAHWm0v467iUveYldp+6nrlsTF6jdEmJdk8RU65QOIfmWhGudIs7q3KU6dKzjOE8fl1bHcXY0klYJnaKQEq2nO4zRs+W5kFbllCraJ2lVhPNcovsnWVTEUY/cdR8laXlkV686t4pEU/so2ikZVX6p0GN1yaRk8frrr7fH9RJSCaeimnrNI5qqW79gSES1v65H0ipp1L5KP5AYatvznvc821eirI5gyrPVNu2XjySgZbVH+0qUtX8+SoHaq0is2qZ7pyG2tJ/OlaN9JMdqt/ZR6oGivGqfrl3tve222yzirNEFfPQAx/nmCfhBc/E+D3Mcx/kGKBqnCJlESJ1vFN27EGgMU6HhkC4E6gD0gQ98wGRN1/ia17xmvGV7IhmUmGrQfn3vdE0SYQmp4zgXJ57T6jjOjiaPBCqCp3Kxkl9ffr2O4zjbDZdWx3F2NPmjawndxfzgSdema8yvd7uj69Cje+Wy6lG90gD03nGcixeXVsdxdjQ7TVovlkirrkM5p5rr/1u/9VstHznPjXUc5+LEpdVxnB2NBE7FpdVxHGdr49LqOM6OJpc4Sd3FLK0SVhVdq67ZcRxnu+GfXI7j7GhyidsJkVYVj7Q6jrNdcWl1HGdHI4nLpVXlYkXCmkdaXVodx9mOuLQ6jrOjySVuJ0Rac2n19ADHcbYj/snlOM6OJpe4nSKtnh7gOM52xaXVcZwdzU6LtLq0Oo6zXXFpdRxnRyOJU5HUXczSKmFVySPLjuM42w3/5HIcZ0fjkVbHcZztgUur4zg7mjzymEciL1Y2S6tHWh3H2Y74J5fjODuaPPK4UyKteWTZcRxnu+HS6jjOjmZzpPVil1aVXNIdx3G2Gy6tjuPsaPLIo0daHcdxtjYurY7j7GjyHM+LXVp1fSr59TqO42w3/JPLcZwdjUdaHcdxtgcurY7j7GgkcIo85lJ3sZJfn0daHcfZrvgnl+M4O5pc4jzS6jiOs7VxaXUcZ0eTS9xOkVYJukur4zjbEZdWx3F2NDtFWnV9ubR6eoDjONsR/+RyHGdHI2H19ADHcZytj0ur4zg7mjzyuBOkVcUjrY7jbFf8k8txnB3N5vQAlYsVj7Q6jrPdcWl1HGdHs5MirbpGXatLq+M42xGXVsdxdjR55DF/fH6x4pFWx3G2Oy6tjuPsaCRwOyHSquvLI60qjuM42w3/5HIcZ0eTRx4vdmnNI62eHuA4znbFpdVxnB1NHnncKdKaR5Ydx3G2G/7J5TjOjmZzpFXlYsUjrY7jbHdcWh3H2dHspEirSi7pjuM42w2XVsdxdhS5vOVI4CStZ6+/2NC1PVGk9WK/bsdxLh5cWh3H2TFIzgaDwePSAPLI48UeadX1qeSSnqN1aZq6uDqOs+UJf4GMlx3HcS5qOp0Ovva1r+GjH/0oPv7xj59JC1hbW7P3L3jBC3D11Vfjc5/7HN73vvfh05/+NGZmZlAulxHH8biWb44TJ05Yfb/927+NjY0NRFGE2dlZvPOd77Tt3//9348HH3wQH/vYx/BHf/RH1p5qtYqJiQnb/s3SaDTwyCOP4I//+I9xxx132DVPT0/j7rvvxpe//GW87nWvs+t56KGH8Fd/9Vf2KpGdmpqytjmO42xVXFodx9kxSOAeeOAB/O3f/i3e//73m7S2222cOnUKt99+O+bm5izqqG3aRzL5Ld/yLZifnzfReyYsLi7iE5/4BH7lV37Fzp9HPN/73vfa+2uvvRaf+tSn7P073vEO3HDDDbjqqqtMlp8Jup5HH30Uv/Ebv4EvfvGL9l7Xeeedd+Kee+7BlVdeaW2SSOt8/X7fRH3Pnj0olUrjWhzHcbYewcifCTmOs0NIkgQrKyv45V/+ZfzWb/2WiaEimpK6paWlM4/OJZOKrN522214+9vfjn379tn6Z4LSEf7mb/4Gb3vb20wK6/W6lSNHjtj2AwcOoNlsWul2u/jDP/xDfNd3fReKxaJt/2aREB87dgw/8RM/YSIuCa/VatYOlV27dlkqgCKyq6ur+PEf/3H8+3//7y3S+kzP6TiOcyHwnFbHcXYMkjI9Kr/mmmtw/fXXWxTy8OHDFplUioAikCdPnjSB1PbXvOY1Z6T2maJzXnLJJfi2b/s2TE5OWlT34YcfRqvVsqJlrdM27aN9n408qq1q82tf+1q7Bl2LUhR0bUpP0LXqmnXtN954o90LnTsMw3ENjuM4WxOXVsdxdgyKpCraKVl71ateZdFUyZuijoquKhKrKKRyO5Xfqn2eaVrAZhSp/Z7v+R7s37/fop06lyKgKlrWOm373u/9Xtv32VKpVPDqV78aN998swmwoq+6NkVyJbG6Zl279tG90PXq3jiO42xlXFodx9lx3HLLLXjzm99sj+nPzpBSpFLSp7zSm2666Rl3wNrM3r178d3f/d2WCvBEcqh12qZ9tO+zRW1+3vOeZ7mqku6zzymJVcqA7oHuheM4znbApdVxnB2HRE4RTXWyuuKKK+zRuMROr7t378Z3fMd32KP1cxWBVL0aEeDFL34xXvSiF1n0U/WqaFnrVLTPuXhMr3olrtdddx2+/du/3a5p8zWqM9YrXvEK73zlOM62wqXVcZwdh6KpGnbqTW96k/Xez8VUAqmOSsotVZTyXPOSl7wEL3vZyx4nrZJIybO2nWsOHjxo16Jr0jmFzimZ/dZv/VbriJZfu+M4zlbHpdVxnB2JhE15psrpVE6p0gQkkFqvUQPUIepco2iq6pY057Ko5Ze+9KUWhT3XKE9WQqzOZzqPrlF5tBpWS6kIz3RYLcdxnOcCl1bHcXYkkjilCUha9ahcPejV+UqD72v4p3PxmP5s9Mj+0ksvtVxSSbGkUstady5yZ89G1yBh1TU9//nPt2t85Stfabm6unbdA8dxnO2CTy7gOM6ORpFHRT017JTkVfms6hR1PmeHUiconU+5pm95y1tMnCXK5wvlrWq4K40coAiroq/nosOX4zjOhcSl1XGcHY1yW5XzqXFaNQSUIpGSvPOV66nOVhqZQJMcqBPYD/7gD9pj+vMV9VQuqzpc5XL+Az/wA5bHm+e4Oo7jbBd8RizHcXY0Gv5JEcj777/f5E6P7c9n5yR95Krce++99l6donS+831OzZKliRM0mYAmHzif53McxzkfuLQ6juM4juM4Wx7Pwnccx3Ecx3G2PC6tjuM4juM4zpbHpdVxHMdxHMfZ8ri0Oo7jOI7jOFsel1bHcRzHcRxny+PS6jiO4ziO42x5XFodx3Ecx3GcLY9Lq+M4juM4jrPl8ckFHMfZtujDS/M62YfY2R9l4wmf7GUUZPsYjy1tnhTqcUefVVWO9tdptPnMsbavrdHCE5Iflx+kj90n3NtWjrdsuh6fvcpxHIefhS6tjuNsR/TBpU8vPS4a8t1QIjj+ODNFHT9HCiSBowL31VptH7Jk0hhsmu8/25bVaa+bvti+Y3G0c7EUgoKt1wE6L9doJ1tnH6s6lm+yKVptN9uul+FoaM3LarSTENs5eyVZHazbjs/WPRXfrNie/dH/zR7vOI5zoXFpdRxnWyJJVQnldvStIUvA5UwgxaaPNu1jUshl7qRPPX30jdIhhsMhBsMUvX7C0kev10On00N/kGAwSDEajsCvQFhAHMUoFIKs8E8pKnIdSzFCMQxRLBa5G18pw9onsH0zmdX5g0ImoWqZlNeUeXMztbzZHblvtrfYtGN2IdnimKcrnfl+TyatLrOO42xVXFodx9mWpJLNdIBeu4ckTZFSRiWt5nb8WMulNqWQJpTPPvfRa5JynbYNuRtLtt8QfcrpwASWhfsNJLTcNqK0KTYLySgF1YRVJ2I9EZdNUAMpLHfhvqEK1+tVupc1h19VggElMGsn/dX2iynDgY5nPZLckO9DLquoPkWDuTo7jq/aLyyoHeF4ma/5ftxRkqnlx6umWpFt20yu99xif/Rezcz2z9h8jAus4zjPJS6tjuNsK/KPrAEltNPt4sTx02h02uiNUj27z8ooQErpTCi13UGC9U4XjVYHG60u1tsDE1c9oA/CmCVEEFFIKxWUajVUWKosUamEMIr5GvOTMqTGFSzqOkRK4U0w6CdIef5+p4M260+4PEj6GFJ4eXIELDLjJEkwZAG3jdBj2xIU2DZ5YalYwFQtsghtHEcsJZTiIspcLqlNlNMo5HqL4KYUWkptMUK5VLF940jb8ihvJtWqS8smr7wVppn8kgnn48VVkmq6avtSWtkm3V/tckZoN+1v+2167ziOcyFxaXUcZ1uRf2Q1KYqHTy3i3R/8OE50uG5qHj0KZL/bQdKjHFoo1Q5ANBpmAhiVUK3XUarWEFerCCslFKICCpS8QhyjSFEt8lXvA4tkUgBDrqNcmshRWrVgLaB4ZlFZauxgkK3juUz2rI3KfOUf7qM0BAxTWx1YPuvQJLHIOuOQ6woFhVAtBUFRXJ4OEbeFI7ZBx/D40aBHUe6jT/ntdXu8zjb6vRa6Gw10W03Kc5cH6LIl1UPUS2WWEiYp4zNz05iemsLkRB01XnulEqNUoghLdCm8Ea9VkeQ82lvgSbOIsiK2YwFmCSX4Lq2O4zxHuLQ6jrOtyD+yNpptPHDkGP7nO96Lw8EkoitvsnxURT4HfDXZ437UMVQoYJWoiCpFboriVq5WEFFYQ4pbIF+jKOrxvvaXaA6SxOpIe33QEmWr9gg+ptgp8hnFEcrlMgqlCusoUwDLiMoxJZD1SWpZkXJsH/tw5ZKEVm1iKfD9OLbJbZLbbN+h8gB4Lq0PuXNgFY3FNxmYtOoau4osd1oU1xY6GxvoNJvotjtAUUHegUl0pRhTWmNMVMqYnJ6ksNYwUa+hWqmiwusu04otlYHnUB6w0h0UKe73O2i3VOcGBt0u4riIhYUF7Nu3D/v37+f7WBfkOI5zwXFpdRxnW5F/ZLUorQ8fOYH/3198AIdnL0f5ttfzE60IZQlIwCzP1KKtLApickM0HKDIw6lnLKkJZEDBo6GiQFkb9rpI2m10Gy20VhbRWTqN/sppSmLXBHK2WkM9ijFJ+ZvdvYD63C5Mzi9gZtc8apMTiCmIOu+QMsizWjw1a63FXHUyBJTQYKiIJdVVTmp7Ei4ruqkcWimtbdQ2vVcElPurCl2+RWq5vWD7aF2WvxtSRC2BIWWtfV4XlyXkaZpwn6xTmShQbMNBn9c8QNLtI+n0MGi20OA1L508hiOHHsaRhx7A6unjmJgo4qUvuRVveN3r8K3f+q2YnJpk67LzOo7jXEhcWh3H2VbkH1kdyuXDh4/iP/zmX+DY7msx+7p/RLkLTeokdyJTK4mffdjxhTLLbaNgLIq2rwSQ7yW4erSesqgjVr+LNKHIDjpAQvmjA5b0uFxRWfpjXAyt01QUBihRNmNuCxUV5bGjXs8EOO12WNqsg9Kox+08rhRFqJermJicRHVqAuXpKsr1CRQpw2poGFK8WVeqdvFcOm4oYbVroHCq6XxVBLnIa0rN0rkf1yVJ3+5LiwK6vraGdrOJfquFPt/3KKf9JEE6GCHRvqqTbR8GIVIuJ1zZpsi3h8l4BIUsb7eKPm6e6OMN1+zCP3nrP8H87Kw8ms1xcXUc58Li0uo4zrbijLR2KK2HDuPf/9ffxcl9N2H3m38QQ1qhRSkfB/eX7X0zcHdFLE14aYmFIYWTbqgoqUYaGI1osCnLMHtV5DKQ9KoTVsLS75m4poreUlpBabW8UNYYFQuoxBGqlTIq5RilSoy4XEKRsmoZpBRIvaoFWaop31GQlbIwHAxZFDkd2ugJNjICi1Jm01GAfn+Abo/i2u2i2W7xHinHt2fR1D7blfB4/kXCM/QLlGO2ZUSJHvHc6SBAElGWI41GQPkPM4kudTdwa3oIb9oX4m3/9J9iYXbOUiVcWh3HudC4tDqOs604I62UwYceOYx/9/99O04feAH2fd+PUlrVy//ZS6s9yre/qo31jRTp5Cv/FnR+FqUXZHIZWC7qkLvoLIqEKqprR/ONorghrbJIl01HFE89qu/3KbNNDCmWw0YLA8ptgQJcYnUhrbJIOY55vjDWWLAhypTLVqOJdjtBpz+yMWUbGhVhmFjKbZfC2WUDeCQrKCKgFBdKlFHK7pDvoShuMZIBY0ApHimRl5KrVg4pxZAodynWXMNLsetL7V6miNtLuG14CN9Jaf2nb3kL5mdmXFodx3lOcGl1HGdbomjig48cwr/5uf+CxctvweX/9CcwVE6r5PIsbNU3cix+Eua7ZB+L2SN3rTRF0+N0EajjVDaG63iL/THs05SiO/5YVVsyXx6/13qL1Co0mmKkYbEUmR0pvzZFUetZdyaPWaQ1GvQRNRo4dOgwlrsjtMszSAYjaACtRDMrpAFluIABj1KwV3FajfF65qNdy+WIOhugOEgx7LQozTRdLqdDHlOvKNcBxcOnKeQDLnNdMsCoXkdQqyDsruNl4Qm8+UCEt3z/92KO0pqPJuA4jnMhGX8KO865pd/v4+GHH8YHPvABfPazn8WRI0fGWzIGgwGOHj2Kr33ta7j77rvRarXGW54aDeXT4H/gX/jCF3DPPfdgeXmZ//fzP/0dgnINT506hc985jO4//777T7v1N87s8ftgQ37pPxT9bJ/MvJ9v9EfSagV/rXaci/bJGimrBTMgkRTubF5FFedorTIokV1xqJ2Wj6q8kZVRnokr8fuxTJQqiGoTgKTlMCpeWB6F9LpBQxndiOd3YX+DAvX9WozaMcVLPeB00mIxWgSq3EdraiGXqGKbqGEJCpTTGsUTZaQ52n3MGz1MNroIFhrI+hRpPtsTVeySjEN+G+GbQ9aG0oOtshvsLzKZR6nNirNQTkH/PdW4P7qvBazXv8Pw3Gc5xL/DHLOOZKobrdrYvn2t78d73jHO/DlL3/ZhDMXLMmWhPUf/uEf8JGPfATr6+u2/huhOlZWVvD3f//3JsPHjx+3wdt3Cu12G4cPH8bf/u3f4otf/KLlLOqe7EQkmcpgTQcdlm42LJRZ4zPDnNNkM6tFiQHZa1Y0hJWKhoUadCmDlOWgK+Hr8vyJ5brm+6RnvareJyKvN+UncVoIkFAYB0ERKSJ7TRCjF0ToUnw7vQG6yQhJULKDCgnFuUOTbTVRaDdRTHooBgOuayA4egwBf7kJT55EdOIEihtNhE3Ka4vtpbCmtRjpFEU37WBknc0GSNstJHGMZGE3hvVpDMsVDDVgbDpAVBghjnyMVsdxnltcWp3zyoD/GUpOv/rVr+Ik/wOVrD4bNLj5rl278Na3vhVvetObcPnll++ocSPr9TquueYa/PAP/zBe85rXoFarwea234FY9JTXHgx7CAYqGrz/MW217SwaRuobouMUgWQpDDVGaoCiCj8i1TFKwVQN8K8hs/pHDmH1i1/AsU9/Fo98/JM49KlPY+muryBZXTaJlqBqKCoqHiVSHavYhnFb8pKjpZBftK/227y/HufrdzxNT5sWKeQD/mKXbLAdfRQppPHSCiqU13oKVJMBYv4CU+irrUWgEmO4b95KOltHUqcIF3h/+O8vZd2pyXGIhNfEFiFSNLjfM3m1k9qr5Rrwl6K2zcRVKlXZdv8vw3Gc547wF8h42XHOGZLTRx55xGRVolmtVhFFEebn521ZMquIoaKmihTecMMNmJiYsKjpsWPHcPvtt+PDH/6wPQJXNHVpacmkV2iaSqUbKC1Adaquhx56CHfddZet//znP4+Pf/zjFunV43SJnY5RuoJKXofapXbee++9ePTRR22w+Hx9jtqjdIQ777wTX/rSl6w9KmqPZFkpCouLi5ienjZ5VIRZ27SPosczMzNYW1uz+r/yla/Y+VXPJz7xCdun2WxicnLSREbXp330+F+RaV2/rkH3Q+2QsGo/HaPUCrVT63Se/PpVv65f6QMPPPDAmeN0n3S/1DZFqLVd7VB6hdqmc5Y0GxSvX2U7kFIu19bW8a53vQudyT2Yu/lVSHmdyuGUDGbz8Gf7fiMkuvYUgPvbkFZccybOao//JXca83SILr9PvVNLGLVTip46VWk61w4qM7Mo8XspKVQLzogqj7ZidXPhLLQu69ikN4/tp/fUTH7p8RwNLD38ENoJWzK1ByG/b2rncJK/tGjkAn5v1cxBXOE/Pr7XyAWzM3YvCmmC4UTFIrNhu4dBuYihRgygWI+WV1EoaZKEEgaHj2M0OQHwuEKjpbG5NMYXgo3TuH6igBfsm8WVV15uPyd2XWqk4zjOBcSl1TkvSAYlpQ8++KBFQ8WhQ4dw9dVXm8hJEM6WVsmVBFFC9ad/+qf4nd/5HZNCSZXETa8SUP2n+ed//udYXV1FpVKxcynF4D3veY/J23vf+17b/nd/93e274EDBzA1NYVPf/rTJsOSSwmyJFXCp7xbCZ/2y+vP0eN3yaRSHFS/9lORiO7evdse00sgb7rpJhNDtf++++4z4dQ+119/vV3nJz/5SfzZn/2ZRZ0/+tGP2vIdd9xhwn3llVfaOSXGf/EXf2H36YMf/CB+//d/Hx/60Ifsvdqs/XTfdI3aT0KqGYok6jrfX//1X9v9ev/732/LklLVe9lll5kYK7VAgq77+pd/+Zf42Mc+Zm2UIOveXnrppWfuy3ZAj+PX1lfxrr/6K7Qn92Huha82GVNP+EynJFa28I3hfno8b4O4UhWR9jEa9DHk63CgKWETSuHAztlfWYfssRpP2ZSoURTaSAa1hQWUpqahXFa1wKTuaTQg2y1TZHs/fs1UmbAN6FJaH3oY7UGI4ew+FFoNpCX+0jVd529WfZNWHZCUJa1sa6eLYX3C1oea3rXOX9wkrR3KbElDXWXSCkprQGlFRGk9egKjqQkUKK1BU9KqUQd4S9ZO4abpIm49MIcDl11qv6y5tDqO81zgz3qc84pE7nnPe57JqiJ9ipoquvdESPgkaIoEXnXVVfi1X/s1/Kf/9J9w6623fsPc1Y2NDTtegvxTP/VT+L//9//iR37kRyxqKCmT2L7whS/Ei1/8YpM5RYFPnz5torhnzx684hWvMGlVFPiJkPApmvq93/u9+Lf/9t/iLW95iwnu5qjsU6FIpqKmug8/+ZM/id/+7d+22YUkoYqMqv1C77X8qle9yqT1l3/5l/H85z/fjpVY5vudjcRVkVVd48///M/jV3/1V/Et3/ItFpVV9FYRYEV2dS80Hafuke7vS1/6UhNiRYu3X4e2kQmf5s63qGPao1hmPe91H1WGw+x1M5vXZ8tDe6+0gKKeiFPyOvz5aN13P9pfvQftu+7k611o3/s1tB98AJ3jh9BfPYlhawXhoINSGKBWryKkzGlSAOqcpQjobmqEASus24qW1T61I/863m7t0brsr+W6yqFDtkmTFhR7ic1gZRuto1RqUjvUNAOjgnWWsokT+Gdokyfw/nCfgP9uWPW4Hfw3lLKFQ80WFiBMtU927gLvnf2HIBflPVEVSnNQJLegfNYKf5l7OqkWjuM45wmXVue8IiFSSoCifSqK9CkaqMf2Z3cgkpApoppHH1//+tebeCkKK7GUAD8Z+k9XUUVJ64te9CKTPomoIod5NFeRUcnw7OysCZ4inmqLopAHDx60SO+TPRqXnCpae+2111pUVefRvk832qR9JcS6LrXv1a9+NV7wghfYuSXxkmqh+vLzvPa1r7WiNuueSDyfTNxVv+pSvutLXvISu/Ybb7zRoqaqX9Kte3vixAlcd911eNnLXoaXv/zl1gbd2zx6tp2QHEoR42KMkDIlIdNQU/Y0fxMSts3k7/U60s46ZqjRAChtLNAc/+vrGKy1MNzoIVzrorDSxnC5iXSpgaDRRsifX3VQGlgeaMKfPbZh/AuM7iJrtGUJps5DLWb7NAFBNuqAZuRShy+VzWx+J2kV+pCWjBZ4zkA/JxRY5e9CssmtEmXZu2Rd30IJvG6CpTlI4lNpspIb+Mrzj1QxpVW7SdTVQLXRlrmn/miihHE1PJ7SSjHXuK/ZCaxZjuM4FxyXVue8o//M9Rj75ptvtnSB/PG6RGwzelSvR/ELCwsW9dSrpFOCqGitUgGeDMmZZFSPuCVvei9BVCpCjsRMnbhuu+02e2T/vve9z84nmdR6CfaToX1Ur8qTie1ToSitJFLt07IE+5JLLrFr3Izq1rVLJLXP3NycybbE/6nOq/YrFUF1qo2KAuuXBF2/hF1DiimfVfIqadX+up+Sdd1f3bunuv6tiNypGGjg/RiRIoCSQglotvlpIU3T+KiWFzoYpwQkPaQ9LtMLw1EJ5VEVcVpCmBQx6gWIBiFK9ty8iB4FVwP9R8XozP0LRhLITFZ1AtNAiaHa16cAJ11uSLhWGpm14WzsUFaiejJ55PESZUqrXZ8E037nU/btWFzt9FltEtaszxTfU1ytPvuj+K82sJZxvbZRaFm/SPJVe1jMWNskrby/xThivdlxjuM4zwX2seY45xvJk6KHKvqPTx20zh6bNRers2X26SDBk+CqSE6fDMmsxFFyJ6nT4/S9e/d+QxHdXP9TRXyfDAmiBDXvFPZkSHx0rxT1/WZQvRJcnefslAU99leagNInlKMrgbpYkEPFvJ9FGZqipE9ybSaN45IjldMUqGAJu230jh9FcuwwRqeOASsnkG4sot9eQae7hn7a4v6URspmQFlFVEWicVFr/CVmYhKlCX6/YvXIH4FOa6/6Y6kKbKMmCqimrOHYMbQOHUaRvzwU+XOuuQFsL73asspjbTS0gZI61JSwA0ovW1JQJFSCaZJpO9mutq84E32VZHKd/loZb9d6kr3NNmbCrxVKscjQJAgBZTtidZqZK1/vOI7zXODS6lwQJHqSMUUbJW3qEKU8TMlUjmTrmT6mluypXp3nqSKGegyvXFbtKzHUo3PJ3DcSZbUtr/+p2qfH909Un9ok8VU9T9U+1a1zPJXYPhH5vdNxZ9evOrVe5Wyh3c7o26AAq2Qq0rhRlPNMFW2rfc0542p81RbtpbxPRUULmoy/00N/aQODxQ0MV9vW0ao45PdCU6IWJHSUW/7sJBtNpM0NjNpNy30tdLsI+z2U0j6iXpvy20I44PHDPuvP2iMRHLbaaD9yGNVWDxP9FMnpZaDbg6aEVXvy1qqZVtRgNkuRTmsv5XGYdDFKJM5cmWbFIqHcQS82y5YO0rIdVbB6FGnXNqUGDJW3zE0WhbWTsoUUYu2n4cP4w8P1tsHqNHjd+jWwrH9bT/Gz7ziOc7558v89HeccIxnTo2nJonrRK79VApmj9YpG6j9QyaXET1FC5b+ei0H0dbzSEtQxSefQY3TltipVQCMRPJP61T61U0XH56MNKP90qyBRVSRW15uPtpC3V/c2f7/tkHxRVuOYv0zwVRFBSeIZ2ToLeeDY8YiiiUPwVxAUNVZpN0G63sNgPcGwScFLItZZQ6k8gWJcsjSEQAP7NzosG0BzDXGLgtpsoECJjTsNxOurKK4uIlhj6bet/pHayBMn6xtYuvseTAwLmItr6J1cpBh3EPJ7IHGVfdofLls7regLK1CjtV6zfmkkA73ncQFlM1fI7FgNe6WfYS3n0Vsuj6PJo1Tfc36f9alvn/zcV9slxCxBWLBi0qpzEDu+nyBmfZViiefLz+g4jnPhcWl1LhiKACo3Ux2rlN8qeVSaQI5yPfWoXp2F1Ltf8qc8V4mletg/3alenwzVlQ+dpRzbN7zhDdYhSh211Dv/mYibjtWQV6pXEVZFbiXjmyPIzzW675LWPD1BIwhoNAbdT91/3d/tOXpAAYUgQrlcQlzksqRNIhZIFsfWdRZSLoldTFGtDliCFKVRH9Gwh0iRV/AXECToF+mUlLdWGqCTFNAP6xjV51Fa2IvS7n0o8jWY3Y3CxBSCUmz5r93TK1i790Ec/9ztGC2tohJoylZqHusZ9PqW+rLeS9Bju9XTv8xfFspJn8s8r2Qzb/c4vCp3zJ7yZ3WM+P0ZqgOWiWYmm5aveuaVd8SqUbbseB+T1T63J6wy62ymGbHUESw7F8/N8xT4i00QKUpfRGhTHWTbFC0eJgMUub4cV74uiu84jnMh8U8g54Kh/3j1CFs5perhrtfNuZvKF1UnJK3XWKQatuqd73ynDZgv2Xqmj7YVUVTkU9FdFeWz6hzqgKThpBQBlnhKNhWJfTroOtR5SUNYSXY19ukf/MEf2HBdT5RX+lySpwdcccUV1l79QqBxXn/v937POsYp0qpcX+23vQgoUSEmpqZ4z6v2uFzixr+E9sYlyZd67FsnJgqiRRy5bdhuYbi4hGCZ3+/VBtDoUlwpcIMEaa+LtE9xbTfRbazydQNp0qEgD3mfIkSU5FCjBcQUZcqy5r5KE4opq++3B+ittawjF8+CgXX7Z7v4SZtQhIehUkwqmK5NI+LvSKO1BtKlZQxOnkC6vISCZvay6KtdRAa/LXo7VNtZ7J1E1a5xvI0XrusMWdQ1SwFabcnSAnQf2ADuLum1CC4xr88Wbf9RzAZq2lZuOPOTIPFNuggpq6XSdvwZcRznYsKl1TkvKCKjHvf5DFibJU7rbrnlFrzxjW+0Vz221nbtpzFEJbR6bP1Xf/VXNvC/opmS2VwGJZnKj5XkKk9UAqk6JJF5zqnOn6/XfhJLpQEoHUHnlLhKmCWv6p2v/SXKisZuRutVp6LAKnqv+nVeRS41JJeiwxqJ4N3vfreNhaoUCF2H6te+aofaoPbpOKH1EkW1T0Xn0PVpHwl6ntOq8+m97pm2az8dp05Xql/3Q3WqDt2TzcflIx7o3HqfS7rQjFz6hUCSrnp1bTp2O0mJhFRDMU1MZWkP6qwkZctUTlFTFokepbzP72t/YwODThsDymuP1905dgLdo6fRO00pbSYoFWLEQRFFGmbM5eJwgELSRJC2EY66KKLH7SkiSp06VhUUM5VEUj7T/giDYRHDoMRtRQospbfbpidLgLu8r0OUpuuWalCKq5ie2kVJLmK00UGwuIr00FEMTx7n+SjHrDOLdGZWmbulRh/gmbIcW4uaZr38daXmoSOtG0eblewr+eQ90X2RWLNxGCaSWO2ffZ+V02tiqj/82RpFGomAx2szfxZMcAcduuwIkX52t9HPh+M4Fx8BP5T0cec45xQ9atbjckmgZCoXLqEfOUmkHqXrVVKnfbRdUdH8MbuESuv0OPvuu++23v75uK3arm25EOsYRQwlc6pP55D46jG92qL68320nHeKEmqjIrGSNolgLpZC7dExeQRW8qjjcrlT/cqHlQzrOLVHkqhj9F4SqnZoqCmVvId/fqzOq3NIGrWf2qLjtY+OV9vziRPye6R1+WxgklJ1/tKjfr2qffl9VP2qU8KqY9Vm5dyqrdpfRfX+wz/8g+37Ez/xE5Y2oWvYDii6uLi0iP/9P/4H7h7Novn8N2Gw90ogLpu4Fal0A15/Z20dSw8+YiJWmqyjwu/xaJWiurzOD0D+DJVrqNfqvO+USj3OVxRTY7Dqez+g4LZXTQ4ldz1+v0Y9Foqloqb6+Q2GFF6aa3tQRIff925nGZNXXIF418J4StcQw04PvaUVXLLvKkxO78IojExOVcI0wfLhB9Eq85puuIJiO4lRMUZS4DUMeXS/Cawexpd+/f/FcoG/qHzrD6N4930YlStIrr4CabuHUqeF6qCN0QR/3ijMXX5vgwX+MsZ/J4UTJ5Bed41+0FE4fgKjy68CNNrBIEHhq/cgnZrCaH4OpYcfRbp3DumeBZQf4TGzE0ijPqKP/yX+/fe/Af/6B7+b/z6yJx76WdpOv+A4jnNx4NLqbBkkUMoN/fjHP25SKiRoEjsJnCYM0JBZGsPUefron7juo1IBlB6h9ABJtdbrVZKvXwg0Q1cecd0OqPPQ4tISfvPtb8fd6SQaN74W6X7KWalqEUY90lY+Zq/dQevUoh1TLMcoUur7p5eQnFpFzD9hWOa6Mqo1/WJF1aWMSUo73Q467Ra67Q1MTU5golaziKcG2x9SNHsUVquTv/uU+WUwDJAMUrpgBxH3D6sVjCR3imYq4sltdUplGJXQTfjLhCaKGHQpvm10e/ylY7IGXHE5213GqBBSWnkNPDaX1i//j/+CFbDeN/1zBF+9FyP+0jI6eCXSDsWy00QlaSOtT6E/vuZAYw/z/hSOHUd6/Y3A2jKCY0cwuupaBPzFKFC6BOsJKPLB/CyC46cw2D1HgZ1F5eGjGFJaBzF/qfz4n+Pn/8m34d/803+McqXM+5U9bdBvAa6tjuNcSDw9wNkyKBIpodK8+L/7u79rRXmi6jilWaE0wYAL6zND0qp7+5GPfAR/9Ed/ZPf2z/7sz2zoMaU3aOYtRWO3i7AK+3WbXwomUUMu97NH54XAxFNipdzT6vQUdl1zNXazzB7Yj+r8DOKJGuJqiTLKV4pq0h9gY11R8wZW1hpYXNnAydPLOHFyCacWG2hrMIhogsftopBSBmtzGPI9ypMI6wsoLVyG6Uuuwq7Lr8Xeq1+AmbnLUC/PYzKexUxlHvOTe7CwcAClco3fCwpve5U/78tYay3iROM4WjMxRrtnUYhrbL++B5JdRRVYxo/4leeqqVcLA8r4OLW1yP0UydVXCxAPh9CUsHa87gF3UopEMFJ6AA9J+cuKFmy99oPlwUZDingpwrAYcRPvJ+9roHNRmpVpEBZ5Ft4nc1WSHek4jnNh8Uirs2XIH3Nr1AA91s7RI3tFADW96XaSqq2E/pkr9UBpDopoK31AaQOKsiqFYTvmtCrSqh75v/Wb/xt3JlWsX/cKDC+7ESjVUUgpebw+WVb+Aacrs487Slr39CkN/YBLytOUvQqSUUR5DW279g/DAAP+PCr/NeWr6lLH/Q2Nt9pq8ueUpdm0n1lFHqcmJjG3sID6BEWW51SHp6TfQ5f779qzG5MzU5S+kPd/Bd2kTdmlgNYqSKMCespFpUCP4jKGhYqND6tWDCjiIZeLvQZGq4dxpyKto0kU3vAjGN5zDwIeX7jmKgw6CYrtBkrcL6lPZdFe/vsJdlOuFxdROHwE6Q23sI7TwNGHMLrmRhTYXk0JO7r7XhRrZYS75jBqdZDMzWLIf2/Vhx7FaGYSw3iA8if/DP/P296Mn3jb96HI+1DYNHGBR1odx7mQeKTV2TIoF1PypI5MmhM/L4qyKhfUhfWZIxnVvc2nxNV91avSLdShTPd+OwmrsF+32WRFVlVMULWSf+1azroe7Z4RIK6WEdVKWF05QblsoFaOod7xpTILX+NSCTVK4WQ1wkTYQrWYcp8SJuqTmJqdx/zuvdiz/zLsO3A59uy7FDPzuymsk3ZssVhCIYx4Gv4SEIZY39jAieMncITy+OhDD+Ch++/HA/c9gmPHF7HeoQnXpymxdYDHqY1ZHFRF7c+vQZMEWMDVUg5GvF7Ta4vCajP30xAFjx1si4q62n3SO8q6hs1SFDXbQcv57pR8RVLDIpcCpNww1JSvI0r5oEeRTlHkeR+vqVax4zjOBcOl1XGcbYVFQ1W0LI0KC+MUgWwGqGzLJrIdx46ViWBUriCslLBIae21llFGF4V+yyYFQNLCsNtCYdBFlLYRdBYRjbqoUnRn5+exd99+XHrFVbj6uutx7U0U/xtuwmVXHsT8gsR1CrVqHeVKzTp8TUxPWTR26dRJHH74QZw8eQynFk+bsJ46uYqN9TbVsEj3VJSXbRvnBGjxcX5IspmruCBh5Ta7HJqsPcrnCksBsA26K9yqHVRkr/xiY7YqXCxUkfIJbJl/dWpN01pQOwpnpFWdzMK0b5MgKL82k9bxyVUcx3EuIC6tjuNsSyyYSoHTo3sJa85Yq86Qvc//EEVlixGKlTqm9+3G/EwRM8Ep1NfvQbzyFYQspeWvodo+iomwi8mJaUSVKoZ2CoqeiSXrGkcedW61YciPU5VCFCGuVlGbnMLE3Dz2X3oJ9uyZoQyvYc/1l+G6178Mz3/TK3HglhswuWcBQcqjlM5An1Rq7jcngxRUHpS1RaNzPHbllukqIbU8V43xysrlrBRTNtjOk+8th01DDdnF9Xkbxpca8V4pBUKrch47i+M4zoUj/AUyXnYc5yzUgUn5tZoxS+O45mOoPlmqgoaTUuem9773vXj/+99vw0mpqBOU8kfzoawGgwHuuusu6xil8Wg1O1g+rJXq1rBCihqqd79mrVJdf/d3f2fLyk3Vo37Vkz/SVye2I0eO2HixGtv205/+tA2VpX2UC3wxItFqt1u4/XOfxalBhN785RhOziMoxlRH3pfxvcnIl7PH6hIwi9JGFLheE3F3HTfunsDlu6u4dFcNl8/XKbM1ymoF64MyemENg4Ie38tcVbv+CEljdioLXmot32gmrEI4QhSk6K6fQqe/AUxXUL1sP8q7diGemECxXEYxjixKrGIRVB6ftZ3OyKLlgma0YvtOfvqT6AT8nh+8FaPlxWza1ekpyugAxUHKEiAtUZw1nit/bgu1OoJmG1hbx2j3AtBsIlhZQ7Bvv83iFSQJguVV3q8i960CbMswzq6xuL7K9yHdNsHE8fvwiptvwK0vuMmubXMayeZlx3Gc843FDhzHeWIkrRrb9DOf+Qw+9rGPWccfieQTIcnUFLQf/vCHbeD+P/3TPzUhVdFg/pp1S8N36XjVo6lpJaPa/p73vMfqv+eee0xedV49VtZ0qxJmSfBf//Vf42/+5m9MgjVLmPYT2vfUqVO44447TGy1n8rf//3fn6lPHa8uPpTnOUSP9zPReKljmTTjexJyWVVENC2WMJxZwFoYY4V1zM1O4LrLduPF1+3Hy27cj+dfOY/9CxMIy3WMTFjHj/CzSqxkZxprcH5qhSdHmnK1i0F7jb9knER71MbkNVcinp9HgSIcRBFCSqJKoDGzJK0SQP3NXsZfWBVflceqDSbFY3ROi6BqDlmSdZCSRFM72QQVa4pt5XH6ERhk7wz+vCo31v5om2bDomzbjtptpNQDyrAEXNHpTed2HMd5LnBpdZxzhKKningqwvmWt7wFb3/72226VJVf/MVfxMte9jKLpGp0BEVCFRnVZAmaTvXnfu7nLHoq0dUQXxJlRVQloYuLi3jzm9+M3/iN38CP/diPWaepT37ykyakkjad83Of+xw++tGP4g1veAN+6Zd+Cf/5P/9nmyRAU9N+6UtfsvouFuxRuBVpFMVN46YOKWt65K2VT0GmXtlXPQofUFzjfZcj3XcVPnjfIXzh4aNYXm8ipazV4wIWKiHmK0PUwoF1RgpZv4o+OFUyjcyKzRoVKvczQdhroL9yEkcP3Y/uVIzC5fuA6iTlT5MK6HgKtnJEWUy1zyyPxdsubnPhyex8m6F0Uiw1ioI2aHYw02fJKrfqngz53tIheK1Wb/67C39ulN96pkNXyg0SZ/ozG5Ltw4qU8BBxtY1dm611HMd5zvD0AOe8oaiiIoASr7/927/FBz/4Qdx3330WacxnllIUUNOras5+yZWKoomf+tSnLJqo4a40balE7Ww0fJMET5FI1XvnnXfaGK+qQ6KXz44lwVE0Uo/jP/ShD1lkU68SOj06zx+zqz5FVDW5gWbhUj2aiUtpAXqMrylaJaSahSo/bjNKI1B7vvjFL+LWW2+13vka+UDXmu+v3EdFXNVWLav3vqatlWBqYgWtv/rqq8/MdCU51fW/8IUvtJnAdB/UzgceeMD20aQAuodqp+p99atfbftpGCvJcT7bl9qh1ISL6XGuItutdguf5fdsKagi3XsQ6cQsgmL0OLkzWdu0ZrN8mfzy+5CERTS4oUORa2y0sML7JpErRyFLVsMgzSTQop3cN5dVmWCgSPZogEGvhcbaIpqtJXRGXYSzkwgXFhBOzqJQ1P2XPOZt4qvVMyar1rSV/mrpAbZ90MOou45Tn/oEOuDP0MFbLD1AkhnwZ0AjAmiYrDgI0Q8VfVV6AGW2XAVvEIJmC9izC6ONBrC8gsJl+22UAP4mA0sZkNTy3wkmKhjF/JnmpRTW10C/RinoY27xUbz0+dfj+c+7Ibtf1mD7Yu8dx3EuFC6tznkhf2Qt+VOepWRQkUGJmWRV8/1L1CSBmqVJsinx0uN1CWwuYRr4XgImQTsb5Y9KRPUoXDmj2l+P4SW7Gu9VU5JKeiWH2lcyKnFW/ZJDSd1mAdUsXO9+97vt8b7arrboMb7ET9ehR/W6LknlJZdcYvmtm9E5NeuUop5qs/5Dl1BqvQRL8qlXRVh1fl2bZFLt1D1R+yXfBw4cOHO9EmDJt6RV7dTxiqxqvSKzV155pZ1D16+pWF/xilfYvdU1a73avLKyYgKte6HzXCyYtPLefubTn6a01jC85FoMNXxUmEnrZqHKJVHouEw6JYgjm2pV0jqoT6LRHWBxZR1L6xQ8ro+KejTe571tYYP3t9Vto6cpWfmLQI+C2u+2kPQ6GCRd1ttHf9DmfitoDDtI6yXUL78MBbYpiDJhlZSa9kpe9SZn3DzJ6mPSOsqisspp7azh1KfH0nrNLZTPJRtOiz8o+seWTTLA94PCOGWA0prylxR02ihQXEe7Ja0bGC0tI7zsUooqj5W0drMIvPJaMcWf54i/wClwK2mlAJfQw/zqYdz2ghtw003X8yzjOzn+4tLqOM6FxKXVOefkYiV5U26nJO8f/+N/jH/+z/+5SZPkUGJ56aX8z5P/6UnWtJ/GC/3BH/xBfN/3fZ+JnGRxMBjYI3WJ3Nlou6Kff/Inf2L7vOlNb8KP/uiP2rESOImqxE7nVOckRUw1o9bP/MzP2AxQEkNFgPWqc0tIJbSKmH7v934vvvM7vxOve93r+J/1TfZ4XWOc6hpuvvlmE0mJ4WZWV1dNtpVLKkGWTL/rXe/CoUOHrHOVBFXnkGBKgiWcipRKcHXPJMmKOuu9hF73RlK+a9cuG1dV0qvjdd3quKU26HiJv+RUEdUXvehFds2qT/dA16z7oMivpPeiGuuW0temTH7sIx/H6aCO0WU3AZUpfqqFJofjXcjj5UrOqncmYAVJacGmfA2LIcKYclmfwWhqHqfTAF9bXMbn7rkP9/CXiaOPPIDl00dx+thRnDpyGCeOPMRffB7hLzZHsNFaQVCm5E7XEM7zZ273AsK5eQwpqyOTVbWEX3liG2fVlrP3wlTQtj0mrSqaXEDjpKKjjliU1iBGeO3NGK2ucMcQwcQkokTDDgC9mEcqkZXCOtD4rbUyAv5MFFodjPbMYbS2DiwuZZFWtqnQ5vq0Z1FiRZuHU5OU6zIlmdYqaQ1SlEYd7GoexUsorTfeKGmVcKvB+T1VcRzHuTA8/n9dxzkH5NKqSJ8ecV9zzTV4/vOfj4MHD56RJ4mbZEoyKKnUI3QJmPbR/npsfsUVV0A5m0/W8UlIwnSshPDGG280QVZUUUKoqK6iqZJkRTclcxJO1S0J1GN0RR/1uF376VxKJ5DEKpK6b98+i1qq/jwiq/c65mz50zXrWtRWCecb3/hG/MiP/Ah+6Id+CBMTE/Y4X4/6dc2SSbVJ58vFVwKg+6B6tV4Cqvun+ziguGs/7aOSH5PfG7Vf5863ZTKR3Rsh0dW+auPFhK4m1c9ap4u+OmLx/o0v3aQwxwRx0/szcF/tn2uX+jOlhRhJqY5maQor5Vks1XZjY9eV6F1GYTt4E4pXX4cKf0br112FqRuvwcwN12D62qtRueJSDOdm0eH3PqlPYFSdQFCqYCgZ1AlYNrdAy1nJWkZNtNfHM2657TDeOm6sSe74TZByH+Wv2ip+GV+Uvt/2M6OOXvn3n+3Ri1IKaLYoRpTgkOv0M8LD83bovIrYqjNWuVTa9POebc2K4zjOhcWl1Tnn5NIqoZIESgAlfvqPTyKqZYmbpExypjxNRTHzqKMiihJMRUWfKJd1M9pXgirRVTRW+ysyqXOqfkU/JXWSRNWp8+sYRWa1j86p9uoRul6V9ylBVflG5z4bCWP+KP9tb3sb/t2/+3f46Z/+aRNltUWjAyjtQNesIpF8MrRNwq/yVPupzYoMa7+dhrRpQKlq815KWiVfubDr61j57L2wd7xf2R6Em/jWipaHkr+RZoMK0Q0i9KMJDKf2IjpwPcoHb0b5+heict3NqN9wE2ZuuhHzL3g+dvGXsbkbb8IUf1nC/AJ6lRr6GpWgoJml+PE6lsjHWnE22TaVx4RxXPTFGF/FuK4cLVlRJzTtrPOM91HqgSKmJq0R2yLp1Tb+G7TOV9w24j0r8me8oIitJHZ8bHZeSWsmuprlKzojrTk6s+M4zoXFpdU55+g/ujzSqldF+oT+A1UeqCKPes3zK/UqiZQo5h2nni4SYYliLplnH6sopaKQyk3Va47OKUGVJG/uUKVltU/lm5FWnVcSrAjrz//8z1skVxFXCbKizIrQKpVBj/ZVr9IRdK1PRh7xVVT3qfbL793Z+bU7AvWc589Wq0e5V9SQvzQUlAdaoMTpk8161o+gGKJmd1JRb/vcCiWJ+n3ACmXV5E3iS6nTlKUhPx4LqYqGuoooszEGKmGMpMhCMe0HRXtN1WuJ66wTmE7O+mxEgOG4aIpV+7h9fJFCD3kuRUlVBlzLVtq/IRWhny2NWGCyqaJ1LGyptVHtDTRUFV9tJiseV+A1FXlP9C9sGPNryDMVuXepwmUJNf9NDvsY2s849+8nKPFaIgo7q7HRAsx8WaJyjIKitXbi7MxZC1Qcx3EuHPr0cZxziv6TlfzlA+nnIqn/hBUVlDzqdXMEUfKlcrZ0fiMkxIraqk4Jqs6hCK9kWet0DkmfJHSz/Gm99lNHns1RSp1fEdNn0hbJqM6jSK9kVfWoaFlSqaJ7on0U9VW0Ve0UarvaIqnVPkpFyNMQtC2/FrV183VpnzxXVfdU16R7kue+6hq0XW3QNV1UUKLKvOfPv/EGXLswgcnTD6Jy6C4UH/oy8NBdwPFHEK6dRtxtopj0UEwHponjuOXj1Mv8bLwuXy+y/FOukYjmRVanW8lFuahyU89UMP6Zsa/ZaZ4e4xPqkM1FXxRJLaiobrVH/254Yo3LGkpYKeKWHxvx6vg9HqmTlfZLEx5OWR3/8lXktth+LrNj+EPEldxGuR7p36NOxr+hsgJ0faxTL7VyhIjSqn+tkuwzN8dxHOcCw49cxzm3SJQUZZR8Sdo2C6SGotLjeiHJeyxX7pkhiVMnJNWr8+gceVpALowSO0VjJXI6dy6B2ke5rFqv/b5ZST0bdYjS43/l0kpIJdC5PKpdisRKIBVBlbSqLWqD9lHbdbxetT3vjKV7JBlV+kIutkp12BwRVlHbtS1PuZC86tq0XmkW+l5cbNKqb1elXMHLbnsJXn7dlbix2MH1w1Vc21/C1d3TONA5jYX1o6gtPoLo5MMIF4+isHoKaK4CnQaCXoe/LfTpZpqYQAPpU8lYMnfjH4kgz5EXnVD3U+fVAP4qtvOmIsXVdhM7FZJvfTpsOmwMZZVtkrQqistvosmlnvbrbJpBgO94EFdonNWA32P+3Ct6a9LKXYKYvzja5hDFMpcVTVadut5ibG0bDhIkoywSrfVDq4v/RnlgvRIjjvjv9MxFPL6FjuM4FwqXVueco//Yc0mSiGkYJ40QIMFU73qJnaKRym19to+1JZ8aSksdndTJSQIoWZM4anQCjSQgYZUEqg3qtS+5UxvUs17HKWKpTleS3GeKBFXt0MgBGjFAIi1RlUBqeCudTx3AJKuSTLUpb6f2Udslt2qDUgfytAWJq9qrEQi0n+RcndiUbiAJzqVVx+leawQCybDkVden74VyfjenY1ws6DF8rVbHy17+Mnzfd7wRP/Ltr8a/+faX42e+7VvwU6+7BT9w9QRu6x/Gwp0fROET70T6qXdj9MUPA/d+AYWj91NgjyFoLyMYtPhBSMGjtKljl6RQj+hVhsEQAxZbVroBbVF5r6NhwUomcFlRJFRP6eV79qPEZT3yNwG2urL3m0smwyzjl8dqZH38U+SbkOJYlHWWqxjx35VWWrso233+jA3DAUbKBxjDS2B7JeHq3FdEwJ+jcMCKeL/ScoyhZr7iWw00UNB4rXw/DLMEimx2Lb5q2DAeH7GyOn92SqXYAsxql9DPleM4zoXGh7xyzgu5ICmSKnnS8FeaflR5nZIyDYKvnv6SPYmYpEwiJrHTscpBlfhJ2CSe6qh1NpI8iZ+OVURSYqgxYTVpgKRZM1CpPkU3JW2KamqbhqPS5AKaCECdpLSfOnEpoqntEl+NcpCLt+RTY8lqmC61X5HQ/JF7ThaBCyxSKhHWjFdqi86jdqoDmM4jWVe9ao9EVaKrsWM1kYGO10QDapOkVfdOQq3jNYGC2v3Vr37VBFX7XX/99ZbPqjbqPqpou8aq1dBdug4N16WOYarvYpNWg/csiiNKVYQKxarC12qpiHo5sgjh/HQNB/buwrVXXornH7wUN1+5B8/bN4m9QQvxqYexetftWL/nLjQffZAC20ScdBFrRisrKTR4VtH0kafSPZa06XudnZ3L41eSi1z+KiFVcDIPUObrvxE6l9DxRR5cHA95dfyrd6NdKCM4cA2wtKJ/ZAhmplDodymZFE/+PKqtGFA8+4MsQsufFaUHKGUgGAx4DZTdaf6S0+kibLZ5/AyGrSbSZhPB3j2IgiKKvQEG/AWJXzBNIb5tXxXXX3m5RextiLCneR2O4zjnGpdW55yj/5wlSHosr2iqZE/iqjFIFWF88YtffGac1MH4Ub2iiJJT9ebXsZJVrZOMSig1EP/ZSOYkvJJRiaCkU+OaKvKoYa9e9apX2fkVsZQsSigViVTkU8dpm6Zbve666+wYRYJVl9qt4bDyPFBdjyRaEUxFRiXbao+ioJvR9WhfPcrXOKoSYB2nunTNt9xyi0mo6pVsKhdXwn3HHXfY8drv27/9262tarOkVYKvqKmi1Spap6G9NImAosNqn9ap/RJhRbI1wYHujTqD6bz5LwIXIyaEcijed7mUinI2NZJAtVrB/MIcLr10P666/FJcc9k+XLt/HlfNVTE3bCNePY302CMori+h1m9jb72C2eIQlUEH6dppdJdOoru8iEKvgzClxAaU1iIlUCfhSaWwaoEpnJ0/a0MWPs23jpunYhvHbSbZu6/nzF5ckLRqnNagvYHj996DdlihXB5EsLyq3wgRTE8h7HYokwWMyvwli3+CwZDSmlA6h9DMV4q0Kiod8pcYtRr1GgrNjo3fKukdbjQwXFu3uorJkELbx4D7BbwPs1GCV1wxi4OXHcDC3LxJq8ivxXEc50ISjBSecZzzgH60JKWSReVYKmIpwZK0STIVBdI6yaKKtuUdt3Sc1mm7xHVzJ6ocSbDkUENJ3XbbbXjlK19p67X/5nMItUVSK0FWW/Re+0lQ9apz5o/ztU1CmkkI/5vne63X8Ypeapvamde9GbVb+6poWcerLSo6JievM69XUql9VLdFx3jc5v3U7s33KI8C56jtOp9kX/uJ/LxPdO8uGnh/spdMErmU/x2v4x+9H42FkqSpfuayn69+T9+DPrp8n6KA46cWce/9D+Fzt38Bdz/4CE53EswcvB57bnw+pq+6FoNd+5EWJzAIIksb0OxR2WN2yqI6OEkLNXSWzk/JtYf2fKP16jiV8EdGaQHaoOO0yNVj1FY1dvyOG/WdK1FYw9OH8bn3vgenR/y5vPHVCO97EKNSEbh0N+pLKxhFRfTmpllnjFGHP8PNdb5SPcsljCZriFlnoU/5HfRRmJzBcHEF6eISRlcewODQYSS81mD/Hv5M8d8CS7JvN4qdRRwsruPfveYqvOLmG3DFpZfZNelacvKfU8dxnAuBS6uzbZG0KmoqaVW6gYabkqD5f6Q7DxPUMx9luagqDzVbb3mo9l7DZFFcKflDymuaDkz2VdLBEGvrDSxS5hRRP3H6NFaaLQxLZYziCnqFCpb7RSx32mhQ/hKlJUztRmV2D6rzuxBWJ7hfGQOESGmimlhA4pmhBYtzqnVZqgFX2dr8lx9rc5abml+JckolrcXTR/GFD38Qp4dlDA/eRml9AIVyEeEBnvvECoaU1vbCNCujdK6vAYunMOrx7dQUgl1zPAfP2WpbGdYmMEz4S+Sgh+HCHEYbXLdCya3XbDSCQhggnawgWjqE64ar+H/efCtecuNB7Nuzx9q0+d+X/1tzHOdC4ukBzrYlj1IqcqqcUXVM2hyldHYm9LxMUCWmQ74qskpTTQYJen2WHku3hw5/fjSbVrfXz9Zxm6RRnY7m52dxyd7dOLB3AQsTFUyOUsTNDQRLy8DSYQTLhxE3TqNMgY27LRQ6DQwbKxisr6C/sYqk28ao30OB57Ve+kot4M+lSSoLlTZb4DrliObrTWj5mqNYerGvqVibOHXiGNqFGEOKcri2Yp2zwkoZUaOLtBiiX6PQhiFltQO0Gqw6RFCrIajXuV0dxwYYKcIcRhTxIlCLMFJPr4j/ZmoxT8R2FTQsWBdBb43SegS7h0288YXX45LdC6hWKmru4/59+b81x3EuJB5pdbYt+SNxPebVI/78Mb+zM8lFNXvNhhsbsCT8GenxZ0QpAX1LCeBynz83+tlRhJViaVFXLmuyAjuOgmvCy0/HJNUrt6tQKtNkyDp6aLc3sLS4gpOnlnDk1DLW2i10eO5BZQLFuQOo7LoME3suQ3lhAcH0DJIq5ZFSaUP+WwhW4/jyK2WRzT4j2xaF5bLSCCzS2tpAdPo4vvSF23FyECLddw2iRw4hpGxrRAGNq5pO1NHbNY0konzyGpXnWiiWKKURBpa6oAq5I08UUnzVuSvsb1C2NzDsrWLYWQWU17pGMW9sAFwfc/uNly3gl/7Dz+GGa6/BBOU3+6Uwu9/C/705jnMhcWl1HGfbo4+xTFb1yF/SmaLfp6D2+xZB7VDw9MtNJqqZzGofrbMUAh6XDWk1Flhuz1ILKITjuoUe5Ot9llbQRa/dQ7PZwcpGA71BB8mQ61FEKymg0Ruh0UnQDUIkBcpjXEVxZgHRzDxK03NAbQIBRTYsa5aqCMMC96MDBnYqyaCisCPEjXWUTh7HnXfehRNpAR2KcNxsIZCDUkC13yguYliJ6MKUSl5jmPRRYBtHbOOo10KBZdRtYNRuoNjuopS2UR6xsP4qpbleLmC6WsZcfQLzE5OYm5rARKWIvQvTePm3vBRzMzOI48d+KXRZdRznucCl1XGcbc/ZwioZ7XR7lj6ix/+dbtbZT5H5gaTzzL4UO75XWkBeh9VjEputz6O3SjS1gKX2s8f7Q4QUUuXL9gYJgoIG5+e5+wOsrTawtKQo7Ck0KYk99Y2TYE7OsswgqE2jHZXQj8pIixXEE1MIKYvB5CQQadrUGGGhZIP8R5TW+Pgx3HP/wziWBthY2IN4lKXBWAYsr8MmSeh3EXTaCHoqHYprC8WkgxJleoJtqxUGqCJBnddjy8UU1VIJE9UqpifrWNg1h127d9nQVnt378XERA3lShnlkibeyM6XF8dxnOcCl1bH+f+39x9gdiXXdT+6b76du9HIGEzC5EiRHA5zEEmRVDItStRfpAJpSfafsnJwlGhL/uT8nN6zP8vKMm1JFCUqkBQlipkU4zCTkzEzGOTQOdx83/rtuqf7oqeBAWYwQAPYq1E4qU5VnXNrnb1qV506gYseK2JTAi4bBlBz0dqwGt7WetqPp7XVaachAQquRf1chOzJojV5XxG1UpzEQ7Ci19pd/7Qqk+/Ty88DlP0FJunXH+Nls/2EguWslC9YqVC2o9PH7fDhY3bg0WO2d98+O3jsuM0sLdn4FVfZ5J6bbMutd5ptmrTC6KSVhzdbo1y1/Py8lQ7stwf2H7H9ymh6ZMIqKlKu21A+C1ZcWrT89JTZ0cNmh/ZZZ+aQdRZPWLlTt9Fq2bZOTNhNN1xvN92icPN1du0119jE2LhV+ToWL17l+RwsU6fhR05jaksSzj4mVgKV45lwZ/aKEK2BQOBCIURrIBC46JGJTQLeUwSqv2DFi1eN3lhW1vG2diVYFYfxq0xP5efpMdju9LyovXTcy6q4iFYf36rgAhXPptaZwsq9sfzhgZTm4zjC2YG20w4WBQm/YqFki/UlW5RIXZpfstnZOVtYXHSPcHVkzPLVIesUBuzQ1JQdn1mwmYWatYYmbHhw2CYrRdt3dNoOL9VshvRnZ63YWLRqoW5bR4dtYqhqo4Nl2zRctsFy3iqFnA2USjYyMGQTI+O2fcsW27pls23ZvEmaeNynTCuVyxKkiNKClw8B6+ZA1+0vh3FBKj0iNTMTCNhAIBC4UAjRGggELnrwGMvEZtbtX5dwJTQkWlsSqwjWeqvh41k7LYVmO718xTkecukzrr100pABhGuaL9hFa99xBFzy0ir0PKsnQXE9vgLCDy8lL3Lx57MJuBCmLB0XiI3lps1NzdmBx/fboYOH7Mjx49aujtnQ2IRNbBqzYzPzNre8ZLVG3YwhA62aDRe7tm3rZtu8fbNNblPYvtVGx8dsUGK1Uq7aQGXQBitDPgygWipbpVS0SrXoZSkWCxLSaZ05fwmIWPeuqnws/S+EaiAQ2CAI0RoIBC56ZI8xBCSilSUvXNUlTBsMCWBeVS1Zb7YlMhGteGDr9XSOx++NdVVgX79oJX2ycBHqx1J+XV7a4lymk/I9eqi6lxIVm0Qrx/FiFvjIA8JX28xE4EkoGnG1aR28vs2OlfJFpdWxRrtubZWR4QaLTM3FMAAJy4HBIQUJ0LIEqARnvlxyr2mpWPYJAvI5idF8wYcoeNe/zmF4QrnERzpKVh0oW1mCtSTByjZzG6dQ8TilUiZeSSsND3B3cSAQCFxghGgNBAKXBHiUETJRmcapdqwlYdmQSGUsq88q0ORDAghZRGvDl8k7i+AlpGmvGPfqod3ysapK3QVnjpegsqEEHpJw9fxVDtd3+s9FL2dyzPchTlO8lUgCZ3lXvFSmiuzDDpLmVSYIbMrm5UtfWCtKWOIlzbyiPi61IHHKS2Gear7XvZ+J1qIVJITTuNWiVRGqWpbc25pXeohX7a9UJYQRw+XkhVVA8CYRTvFTeQOBQOBCIURrIBC4ZIBABNljjSVC0L2rOoa4bDSTeEUE8sEBn1XAA8MFegJRQrXZE4oEnenilDTyHURr+uwv3f0+rrUXsjzTH2KVMbHpGPGz8mUCkDM4lsaK9mYD6IlZpr7yvYhGCdOU7uq5gH0MNUjCsj+keGm8KqHk6wwHqBQlWiVUV0Vr3r2riNVqueJLPK8lxekfMkAIBAKBC4kQrYFA4JJBJgoBIit7vLk49DGkXWtpI/OmMqa03mi4x5WXt5JITUMKGF7g87r6y1uMfU3DDrpNiUclQtothCxiUiEJz5S2C1YXk6uClWUWiOvxtK5IaQm6mThU6O1zwYho9a3edi9w3lrRmsFfssrxAQOEZ0kiNX2Ao+pe1rTN+FYEq4tXxWN4QCZas7GuPjpgTdqBQCBwIRCiNRAIXDJ4sscZx71L3wVsz/vaE7AI1pV1BReujCn12QfSMAIfCiDRygcIONe/tKW4pNsfXN+5xkveXe1E+fnwAPJnEKtipkjEY1dWdAlXdpCOHyAgGnuiOKXPeUlIIk6zfBGcxOMsjiFEEadFgr90JdFakij1oH3MNFAuJs+rBGp6OSstk9h9ohgOBAKBC4UQrYFA4JLD2sdav+jKBN7agFjNRKyLUwlT97Y2Oz59Fl/X4rjPRqD9SbQ2/MMCPu7U9/XnS7pJ3JI+ZWDp29abFquHlfK5YKWMacwsopcN/hTJl5zvQlLiFI+te3iJozA4OGiFYtHTYJysv2xVTF39K97VCi9c8eIWIjandTysvRkEPL0khD2PXggEAoGNgBCtgUDgksPax1q/8OJY//FsnWUmMN376efk/Y38NOdrEq61Ws2HDACm0HJvq0Kj0ROuErurYnVVtIK0dOm5sk3wbnh/ASuv7Wx/X3wtG8orzRvbGw7QE6x4RlmSBvOvugeVrv3ey1cuXHvd/pUKoSrBKoGqvBCtvMSVhKry58+F6uqQg0AgENgoCNEaCAQuOax9rK0VX2uPZ9srS/35sot3lHGqqZufZavV9Be1mFWg5sMHGA+rfS2OpWEG/oKXv8yVZirAe8uYWk9fgeKwnoVMIPLXi6KQcyGayoF3NnlYEZlZfIQm41QzD2lBYhRParVataJEa7nITAF4WJMntchnYRmvymwDKx5VZdBLL7tLvs+XJ9+3QCAQuJAI0RoIBC45rH2srSe+MrGYrfeDbd/D0lfomvdNF4+8lIVorTd688D6S1xpn88HKxHL0IGGz06QXvDCA5vEq8QnaTGu1j2xSnRFJHKAvOjyTx8kSGXkC1y9Kax8vGlPpEqI8snV5G2V6FTAmzpQHfB9iFU8razjxc3OSYL15Puyuu4XfNKxQCAQ2AgI0RoIBAJr4KK192hMAhYBl0Sca7mVWQEYC6t1CVHEKuIUzypCFsGKcMULm4RrV8uGC1w+boAC5iMDvMjVL1rTN/8VJFwRmN5trwO8XpU8qqlbH0HLxwHSvK1pKACzAOB5JbiwVXrM2erp+PCDlJHv13/ri9ZAIBDYmAjRGggEAuugX7SiKpNwBWwraHO1y58Xpzp93tM0nCD7KEAaNtCxer3uArZN4Bhil/OUhqcjMWzdbFwrwpQufV6YKlgJsdrznjK3apr8P3lP+VKWe1C92z8JW0RoFpKATeX3bLTqx3xPQojWQCCw0RGiNRAIBE6B1cfjqqDD77qCvsdn/6OUdUKaXksi1sfE4mlNXtdOqytBy9jYJFoZK+uil7T5p8C5SbDy5r+ChGealgrRmoYDaFcSoFpBrLLMtGcmQl205ojo/1aK3Iu2ghCtgUBgoyNEayAQCJwFTvXI7N+/XhxEoY9p5VA3fVzAp9TSMn0yNnloQTo7fYTAv2iFF1XCM/OiJk8qaSpOAW/q+qKTff37WTvZvxoIBAIXD0K0BgKBwFngqTwyV8/BA8t22rey7vu77o3lj38uLXuik8DLU5kATft8VVFP/gpYFgdoq7emBHtb/ccDgUDgYkKI1kAgEDhLnOqxeSpBuBqfZRKrLiIVnbGradn7oIAf8/9IMC2FTKj2jqzKUZ3jQlfI8j+pHH3pIVtDtAYCgYsVIVoDgUDgvIEvYfHIzfsWyARshuyRzDIJ1TTd1grOUnP6u129NLP0AoFA4GJEiNZAIBA4bzjV4/aJohVkAvOpPqSzVDMBHAgEAhczQrQGAoFAIBAIBDY8VvuoAoFAIBAIBAKBDYoQrYFAIBAIBAKBDY8QrYFAIBAIBAKBDY8QrYFAIBAIBAKBDY8QrYFAIBAIBAKBDY8QrYFAIHABsHfvXg9nCz7/+sADD9i+fft6ewKBQODyQIjWQCAQuAD41Kc+5eFs0Wg07GMf+5jdc889vT2BQCBweSBEayAQCFwAPFXR2mw27aMf/WiI1kAgcNkhRGsgEAhcABw7dszD2aLT6djhw4ftxIkTvT2BQCBweSBEayAQCAQCgUBgwyNEayAQCAQCgUBgwyNEayAQCAQCgUBgwyNEayAQCAQCgUBgwyNEayAQCAQCgUBgwyNEayAQCAQCgUBgwyNEayAQCAQCgUBgwyNEayAQCAQCgUBgwyNEayAQCAQCgUBgwyNEayAQCAQCgUBgwyNEayAQCAQCgUBgwyNEayAQCFwAbN682cPZIp/P29atW23Tpk29PYFAIHB5IERrIBAInEd0Oh1rNps2MTFhk5OTvb1njky0jo2NeTrdbrd3JBAIBC5thGgNBAKB84harWaHDx+248eP28LCQm/vmQOROjc3Z8eOHbOjR49avV7vHQkEAoFLGyFaA4FA4DwCkXno0CFfHxgY8OXZYnBw0D22R44csUaj0dsbCAQClzZCtAYCgcB5ROZpRbCOj4/39p45GB7AeNZisRiiNRAIXFYI0RoIBALnEZlorVarT0u0lkolHx4QojUQCFwuCNEaCAQC5xGIzKmpKe/i52Wss0Uul3PRiuidnp72l7ECgUDgckCI1kAgEDiPWFxctL179/rb/zt37uztPXMUCgXbvXu3Dy947LHH3HMbCAQClwNCtAYCgcB5xMGDB+3d7363z9F655139vaeORjL+tznPtdF63vf+16fRSAQCAQuB4RoDQQCgfOEz3/+8+5lfclLXmJXXXWVDQ0N9Y6cORgeMDw8bHv27LFnP/vZ9rWvfc2+/OUv944GAoHApYsQrYFAIPAMIxvH+vGPf9wOHDhgb37zm120Ph3ccMMN9vrXv94eeOAB+8xnPmMzMzPWarV6RwOBQODSQ4jWQCAQeIZx4sQJ+8QnPmFf//rX/eMAr3rVq2zbtm29o08Nu3btshe/+MW2vLxsX/nKV+xTn/qUzc7O9o4GAoHApYecHqDxDcBAIBB4hvC5z33O7rnnHu/Cv/76671L/2Uve5l38z9d8KGCj370o/alL33J9u/f72NkGe/6VMbKBgKBwEZHiNZAIBB4GuDLVEw7RWAYAMt2u21LS0s+JRUeULrw5+fn7W1ve5s9//nP75157vDBD37Q3vGOd/hY11tvvdXuuusun06LabF4cYs5XbNQLpfPiWAOBAKB840QrYFAIPA0wJRTTPJP4E1+lnNzc3bffffZ+9//fvuWb/kWe/WrX+1iNZtf9VwDgUzeCOS/+qu/8jGur3vd6+yaa67xqbW2bt3qYcuWLb5EuAYCgcDFhhCtgcAlArqKmbeTKZUQMHj2EDOMeSQwmT1zfPI1pnhh59wAEYgARKjiveT+8sWqSqXi+9m+7bbb7MYbb7Qrr7zyGfVw8pvy+yOW77//fvf24vmlXrCOR5iyUWbmiuXFsMATgWd6+/btfj/hDVOLwR0CnmzuH+OJ+T35nQOBwPlDiNZA4CIGhvX48ePeDc3ykUcesUOHDvk63j7ESSZa6S7GyBInPv15bsAk/3gyeQGKT7JOTk56YA5WpqTCu4pwPd/g98bb+uijj3pd4EUwAg0Zyss6jZvAEwFH8FDjQYdXiFYC05ONjo76b7tjxw679tprfR1e8ZsjdgOBwDOLEK2BwEUMvGXvec97fEzjvffe69Mo3XzzzS6Y6IbGM4ShHRkZceOKtwihG7Q/N0Co4L3MvJiZp5Ulx56JoQBnAn5fPKyMr6Vsmac1KyfL8LavD7zh/HY0+JhGDKFPA3BhYcGF7EMPPeRc27dvn91yyy32yle+0r7jO77DGy2BQOCZRYjWQOAixTe+8Q377Gc/60aUF2zotsQDRGDsJPvwGvUH9gUCgScHgh/h3x/Yh5eaITZ4qvFiI/5pJN59993eYAwEAs8cQrQGAhcZMJxMUP/pT3/apzrCg8rb4kx1RBfmheiODgQuJ+C5xhPLdGZ85YxhBExl9rznPc/Hu0bjMBB4ZhCiNRC4yIB359d//dfdcN50000+bpKxdbz4Q9dvIBB45sEQC8aG89IjDUhegIODP/qjP+o9HYFA4NwjLFwgcBGBCeS/8IUveJckL4vgXWVYAGMnQ7AGAucP8A3eMYUYPLz66qu9F4QPSdATEggEzj3CygUCFxEYR8cnOzGWTLmDoWSsaiAQuDCAfzQgsymw+PIZM3gEAoFzjxCtgcBFBGYL4K1lRCszAQQCgY0B+IhoZa7cmAM3EHhmEKI1ELiIwAsfdD1m80MGAoGNAcaxMl8rQ3iYKisQCJx7hGgNBC4S8M4k80Ty1jJf7ImXPQKBjQP4uG3bNp/PlY87xDvOgcC5R4jWQOAiAUaQ6ayY1oq5WPmyUSAQ2Bjg4wLwMpt2LkRrIHDuEaI1ELhIwJd6+Fzo448/7m8pP5PfsQ8EAmcH+Agv4Sdf0Ap+BgLnHiFaA4GLBBjBpaUlf8kjPsEZCGw8ZF/MgqchWgOBc48QrYFAIBAIBAKBDY8QrYFAIBAIBAKBDY8QrYFAIBAIBAKBDY8QrYFAIBAIBAKBDY/CvxR664FAYIPg+PHj/jnIX/u1X/MlU+iMjo7a5z73OfvCF75gb3zjG/2lj49//OP267/+6/boo4/ayMiIDQ8PW7FY7KUSCASeCTBf8t69e+1d73qXvfOd77RGo2EDAwM+R+sf/dEf2fOe9zy7/fbb7Utf+pL94R/+ob3//e/344T4kl0g8NQRojUQ2IDgAwJMnfMbv/Ebdu+99/pk5Ux39ZnPfMbuu+8+/875Aw88YB/60IfsPe95j38d66677vK5IkO0BgLPLJi9g6/T/cVf/IX96Z/+qYtWprmi8fjhD3/YPzRAo/JjH/uYve9977NHHnnEXvKSl/jHB0K0BgJPHbluzIAcCGxI8DnIN73pTXbPPfe4EOW75ohXQvZhAYwlxvGf/tN/am9/+9tjmp1A4DwB04nP59//+3/v/CyXy76fxmXmVa3X687Pu+++237/93/fv2QXCASeOmJMayCwQYFH5pu/+ZvttttuW/Hk0C3Z6XRsfn7evbHVatVe/epX26233hqCNRA4j4BvcPOVr3ylNyjhI7yEn/AUvsJbhgm84hWvcBEbCASeHkK0BgIbFBg5jB1GD0OIAaRbEg8P3hvWGcP6qle9ykVrIBA4v4B38I9Pt8JHeAk/WYev8PbOO++0l7/85S5sA4HA00OI1kBggwLR+rKXvcy9OXh11npS2eblKzw9N998c29vIBA4X7jlllu8YUnjcT1+Eu644w576Utf6r0igUDg6SFEayCwwXHjjTfat3/7t9uWLVssn8+7IWQ2Abw8r3vd61bGtwYCgfMPXn781m/9Vhew8BLAU/gKb6+//nrfFwgEnj5CtAYCGxw33HCDi9PJyUk3hoAl3tVv+ZZvCdEaCFxAIFpf85rX2E033bTSqCRs3rzZxex1113XixkIBJ4uQrQGAhsce/bs8Zet+kUrHh08sAwNYP7WQCBwYUCjkXGtNC77Pa2IVsQs/A0EAucGIVoDgYsAvOiBYeSlDowkIpYXtAKBwMYAY1fhJY3IZz3rWd6gjBkDAoFzi/i4QCBwEYDuRuaBZFodptN5wxve4F/dYdxcIBC48MjGmh84cMBe/OIX22tf+1q76qqrrFQq9WIEAoGnixCtgcBFACYvv+KKK3w6Hboev/d7v9e7HbPhAoFA4MKCr2AxhGdqasrnV2bmDxqaiNlAIHBuEF/ECgQuEkDVo0ePulHEg0PXYxjEQGBjAH4uLS3ZY4895uNZ6QUJfgYC5xYhWgOBQCAQCAQCGx7RtxgIBAKBQCAQ2PAI0RoIBAKBQCAQ2PAI0RoIBAKBQCAQ2PAI0RoIBAKBQCAQ2PAI0RoIBAKBQCAQ2PAI0RoIBAKBQCAQ2PAI0RoIBAKBQCAQ2PAI0RoIBAKBQCAQ2PCIjwsELjt4hc+qPYtcWvev13TTF2zSnl4cR7be94UbVvuirMZgLUtnde/Kx3GUdzq1Ly3Kw6aXIe1iOytmipkdANrjO9MRIkLl7As88SWewMUOr+0ZAVhcAJ4mrKbVz7F+rKYkcF5vg7gpld6OlTQTgqeBwNkhRGvgsoBX8l5NZ9HtdtKaFjmMoWyHG5AORiTvNjGLk8zKqlkD0Kar8zqdFHw7HSBqSos00slazVkhl9d+1nuile3eH3nl8hjMzMgJWu8oPeLqkHWVjyfnaSiex2WNYx0vQz6fOk9OZwzP1lCufUSc7fmBwJkicchXfeEcXOEU//XqX4d6DgcS94hArTyJpZwGR9nb1lLxTuKp4OzRv4yneaWd1x9ZZOzKeJoS1L6TeJrOd55qmScKPCU6hzxelhLHeKak/f3L9XC6Y+sheBq4HBCiNXBZAKPihkr/XJcquA3UvlUCcLC3lmziCpI47Vin3bFWq2n1ZtNqjaYtLy3b8nLNlmt1a+t4S0a2qTSLhYIVi0UrlYtuyAoSkyVtV8slq5TKVimWLE8chZJCviBjqTg5BQwoBke20uHFZVsF9yJ5gVO5MYa9f6tYjZSQWWThTAxZFidbns4YugjoHV97XiBwNvD6TF3ykHjqVUnr6/JUx7xq91U35yhcbbet2Wz1eNqwpR5P6/WGeNoWT7seCgVxtFS0YkkcVLLFvPhYLFi1kjha7vEUjsLVfLHHU5HzCTxlXcu8P2AEL/DpeLp6RY7zwNO15wQCFxtCtAYuefgDW8umDFZNYbnZkIjFgyMC4CWVKUHUYvAarZaHpgxbvdnWukSogp7yKR6nKW5bW01t+7p2Nts6mte24rXw1ciwFQoKRRk4xSEfTi4oTkFlyWGgVAY8OwUP2qc0vaxKixxyOQWsM+XUOUVZxxLnK928L5MhLcrIIorJM684eRlDrSavkYxwEsdFxUnrK3EVKDPxVo1Yehyk7WxfQrqL7F09lh4faT/gPELan6UTCDw5vO5r2VAD0HnaaqR6pJBzGsC/xLeGGo5NhKlCvSWeiqtwUBVO0eEzp6kRqfRaOo90Wjqv1eNpRzzpKG4+hxCFq6q3nk/HuQpPvd1KgbQ/cZT41HyVU3F4XqCe1/K0pLSLSq/o/GJdnBNHizwPtE1A9OalkknPeeq8FEdXeJrinRueag/3sQ/B08DFihCtgUsW/VWb9ePHp+zoiRk7sbzkwrTd7lgXQYqRkzFrtlu22KjbkkKt1rSFWsuW6i1bbrStUK7IuJWsK4NSLJWsUK1YYWDAhoaHrTo4YIVS2coV7SuWLVcoYSdkxvTXbZO5tRsNaywvW5NlvW51PLOIZ5Wjq3LkZWC7MsDtZss6MtjdTlNJSBZ3my52MaSVUsGqhDJlKFqlXLZKpaztopXwGMnwsSzK/hRkbTHEGMGiyl1SwPOLIcX4udBVfIyjG1X26z7h8XWxrfNWDGbPwGV2DWGcjGGG1fucxV27HgicCmt5euTIcTs2DU/FF3GiI1FKQ44hAamB2Ew8RdjWGrboPG1brdmxoniaU11XRda6BGC1Kp4O2vDIkJWrA9pXtpLiFMThXP6JPG2Jm41azRu4jXrNBXRLPIWb8LQgnrZ5doin3YY42tEx56nkscqWVxplcWtAHK0o0LtShqME5bnCUecpjVh6YcQ5uKlyl/X8yPjo+xWPhm/GUxquMApuu9D1uAUXtXANbmfUDJ4GLkWEaA1cssiqNv+3tf7hj3/aPv21B+1IecSWmjkZPLr35y0noygF697VAcUt6wGOB2ZwaNjDwNCQVUdGrDRQ0UEZiZKOI1wrEqsyNHhqcnhqchKGEqxlCUoyJXvvQtR/lAWR3FLAW8RBjjl8Ha9N8uDISivgHXGCutlxQYmBw4uqeBixrnYwjKEoo+veHWKRjAx6V4a2hddYxrcm47+8OJfCwqwtzcxJNMswE0fGtizDNyDRPaxrGR8dsU2bxmzL5s02PjZmw8ODVqmWbXAAUa5rJh8ZSRe1MrQqYCqXe4IkgjGqCv2CNxA4Hdby9H1//RH7wt4DdlQ8Xa53fehNbWnB8mpgdujaVxhU3JLqFt7JIedoCtWRYSuKp7my6p9abwWJ1EKZRmVRYlb10espwlACUg1A+EK+GU8zTy48dS46N3ul45+7fOGmlnpmpPWTeYoQ9d4O50biKQcKfTz1ZBo1hcRThi3U1JheEkdr8HR+Tjyd9QYuXuW2GrEVPXMGJGpH4On4qHg6blu3TNrY6KjuATwt2eBgxZ8/BXFxpfGpEDwNXCoI0Rq4ZNFvDDFG7/3rD9sHv/qw7d96nS0UBm25nbOmxBvGJ4eRUvyyHu5lPcQrEnLDlarEWkXGoCrBivHDo4FB6shAyQiQblNGtCnDUq9ZZ1lB6XUlGjEUZRlG0sEDWxkYtKrEb7EyqLQGtF21YlmCV3l5+ZTYKhGTJaU8Ko4bQ0liP0K+7OSYYvUMaqdvyIFW8N5KiLd1XQ08uypTvbZoDRnF+tKihOuiytyU8W8pNHVuzkoSogMqy9DggITqgI2MDNmwyjtQrVhJxr6qUMabw9AFGfUuHmGlvbg0ZwvzMzY/NWWtxrKPBxwfH7PnPe95tnv37jCGgSfFCk+1QLS+893vtU8+dswObL3eFq1s9VbXmuJXjl4R6p7iwNOK6mtVDach8WtQfMp4mi8hxMQH8RR2wSG8oy3xMuNpF56q0VagkSmuVtwjKp4OSvwNJp6WxdOy+O88FfEpZRvSr2AtTzOW9vFUz53EbUQtzwzFISHI2xaH8NrCUzy7KlNDPK1nPJ0XT9sSrIpH45IGY1lhQFwdgqNqUI6MDNqwyltVw7IkkVrVtZfIg0YvDWSl39E1L6pxvjA7bfMz8LTmnt/Nmyft7rvvtq1btwZPAxcNQrQGLlmsVG0tGH/21x/+hH3koUO299rn2/zwpDVLVct3ZYzwqMiIFBW12UWQdqwqQ1NEzHba2itDmcOrQje9QqtpOQlVqUBrLi5bbWHBlmZnrTlzzGpTx21ZAq5UGbChcsXGSmUblAAcnZiw8c2bbWh8kw2Pj9vQ2IiMbMW79iin56JipLellR+FxuhqgWeEeFhixsbh2cUbJEsjEe1m2dNwwyhhaYpPXLw/mbeooN15RK1Oayt9xsQiwFl3AdtoysA1U94Ss81WHdOnbRVMRjPPvfChC003sPXFRatNT9uxE4fs0P7Hbd9DD9nS/HEbLJtdvWur/cLP/pS95EUvVBEx04HAqZHx1Ouw6uufvvcD9smjy/aIeLo0MGKtgngKK9Vg8pcaFRrdtvc6VE7BU+or9TYngSYVaI0l8XR+XjydEU+PO09r4mxZ4nRYHB2ViBscGbaxTRM2NrlZHIWnYzY4mnjqolXlS+Njk3B2ruAyFUm8XHgwxVM4mefFLolIxtEiCE/iqcoNL1xZ+5UxPlb7dIyhPd4zo+22go+1VbSWrheOthsIXfFUT4wOjU4JbxeclEfXnJdITTzt9bIszNvy9JQdO37IDjz+mO1/eK8tLZ6w8aGS3XzdVfaPf+5n7I7bb9f1BUsDFwdCtAYuWaxUbZYyMB/42Kfsow8dtkd33WVzw5utXh6UwcBkcFxkIKqvJC8qR/iX/vMVX2JcPE28PgqMuXOPRnvZuq2GlK9EnsQwaUiSyqgoPYWiAh7RkspSlhHKozubOlfGpbO8aG2F5vKyteqLXpiizzJQtJHhYRuVAR0ZG7WhiVGrjg9bqSxDni8pbc9BJkz5I3K13Zao7UiUFpq9sgpFLRhvhyDnvuDdaUqsMrZ2dmbGZhQWZNDrC4vWWFiymsR4Q0aSF9FaOrdVKFq7oLxkiPHrNhSWlFo9pzik1VCaMrYD9VnbtvCY/eo//CF71fOf7cbQXyDhggKBdbCWp3/2Vx+yTx2u2aNX3GULg2PWLFa9/pyepwqO1eUqTxF4qvcn8VTCT9yjIQeDPB342Qs0YEviKFwt0I6UWOw6TxestbzkoVlfcmHqPBU3RkdHV3g6ODFi1dFhK1bE01xxlac55a+/fB4+8TKYuOnj6v1yXJDDMK6Jl0PxEGc8nVEjEa7OI7zF0fpij6d63vCyaEvX0lSjtkNDWGm3lW9Dz6HE00Z6qVQ8JfXh2gnbY9P2r3/yrXbXLTeofHpeOU8DgY2NEK2BSxarVVsmTsbnI5/4tH38wcP20PZn2ezwNqtXhnvH+4DlwIKcFRRfeaUO++TR9NkCyF/5dnnJA09Qu5k8tax3Wt7VjuFE5Haay9Zp1BTq3nWJwzTPy1JKo1Iu2mClbOVS3sq8dMV4Wh1jbBxd+97lyJCFvIxtseSeHKb8aTUR1Bg+GSvlSWA8IDay4dl2rSVDvlyv21Jt2Wp1XhRrKiBoFXg5TUWUabeWG1kZQwlikzHsyAi3WEoNM2Yvly/7S2rVhSO2+fHP2X/8sTfb655/JyWTCOD/MIeB9XEST8WP9/3NR+zTh5bsYfF0YWjSGiVGsK7BU+RpygvZRhLr8LTNeHJx03mqdfHI48BTeiOcp3XnqvOUxiG9H0pjoFLyUBZHSuWSB8aVwlPJVuepEnPPKS9S+hOjx9M2gTHvyrdJT4eWOuQ8bWg/xxfrTK2X8VRxdBD+NsRTGpbO05XGpYI42hFH2+JlG+XtXmDxVHGGph+zq+cetP/0Ez9gz7/lOuenzyPt9ykQ2LgI0Rq4ZNFftZni6hOf/Ix98qGDdv/mW2xmZKfVqmO9o314SsYQM9jzlmCaeDuq9/R3L5Afy9LVMRk6H+dGfAXsSdvdrnQzdq0gA8USVyzj8PDe8tJGa3HOOksylvWGTmjovJaVZVB5IaWoUCpoWZV5XFiw1vyizckINRS13ujYguIuyiAvSbE2WjmrS+62MKcybDkZ1xwvj+H5KcqYSvjK4srocRHaJ+NOcZhkvYNo1XZehrLQklHXfaXc+Ko6vDE9d9AmH/6E/ecff7N9W4jWwBmgX7TC0w988GP2mYPzdv+WW2x+eLs1yueqcfkkPKUur6SZ95ccPWgX3f+I146vqLZr3Xnq5UB4iqNNcVWCsrU4n8bNQj7xtKiGYkmJMNbUuVrUUjy12TlrLC6LpwVr1rs++8FCp2mL4tWy+AVP6dF4Ak/pSSmocQpPtS/zN6/wVI3IjriceNpROaV8VUau1YVsqWCDJx62q45/3f7bT/2AveDW67gbyiNEa2DjI0Rr4JIHkopa/qlPf84++eAB+8bIdTY9tstqgxO9GKtAp7lWOxNkzFHi/vECwcev4UrxDe1TwBBnNHNj2fufXXiAMZh0HZIxp7CVIY1xZafSwPXiHiA/UYaUYQjaJ3HLsAO8s1Zs2+wXv2onvv6Qze3cafXKmDXzVWspDo5duvAxYTK5nOF594rpwGwjTHOVohVleAsKefcstVO34+iwdUsy6LVls4NHjYnZeZmMtLubJ61cP2Fj933U/uvP/KB924vS8IB0T8IcBk4POMLfhz7yCfvMgTn7xvAemx/fZfXqSC/GKqhOZ1SlevXaofTPhqfOVPEFTuTgoZdO55A39X0lca1xHnHETXiKp5b82AdH85KenOQ9I5xcatnUJ++xqccO2tyundYsjIinZS0lqzvi6JPwVDk4D3OVghUXlq1Yq1lOPG2Lp92ShCw8lTjuLixa7vAxK1UYSiSeKq3O1s02MLvPdh/+iv1/f/6t9oLbb0g8pcckJR8IbFj0WHvxY3Fx0R566CH78z//c3vwwQdtYWHBTpw4YX/7t39rn/zkJ/044/gClx/0OPZlkW472YBWTSKsdaq6QNyzC8kjmdCzKQ7MnKSeVhg7p0DXIC9uKDrxPK7WO7JE2SdZmfAcj2YWLI8HtKTCV2SgBi03MGw2JCM+PGqd4XFrj0xoucmawxNW03Z9cNwWm2azs4s2063YbHHQFkoDVstVrJEryRjKGDeULx7VqgxZs2XduQXrTs1aYXrBcsemrXt81rotlQWv7tKijB/djVxH3XLLMoJ1LeESZa1UFKruyPEr0rWahK53q550NwKBJ4HzKOezVTD+u6F6RPf5+khxnzT00iScmqeMx17LUzgJN1OcbJ3lE3mqh4rztCwxKp5WB80GM56OJZ6Ko4mn4qj21QcmbLGuBub8ss3agM2WhmxBXK1btcdTiduGSokALRfFuYZ1Z+dXeXr0hNbnpInFzcVl69CIxAtLj027bibeZjz1qfGqA0qnooug9EqXYRB6DnLNvUtcWV4oMHZ3enraPvOZz9hHP/pRPcNmPTz88MP2F3/xF27X67qmwOWNS0a0zs/P2/33329/8id/4ku2Ea0f+9jHnACI2BbdmYHLE3pOM9asLPvCm++8Mf90sWLIeutZkNnwgJe0I+PQ1IO3MXXCWvMz1pqbtXZtybsZOdfjyQD6ei+cynpk+azExcOZY2xcyceXNmQ8W12tN5kRoK5jJcWTUaOLcLlpBRmpgvIunZjWtoxcp2F5GYmcymbTU1aYm7P80WMyiApKwxSnTXfnUNXaA0XrFGQAtW0NGUMVJjc8Yp3xCWuPjskgMlZOxlFG39/YljGkvIHAGcMruFmllERrbWHRX0R6ulifp8mDusLTVsOa4kJTPGjNwdMZtdGWFa+fp6SzytVTgXyyOB76eNp0nhYlSuEpb/83rZWvuAcUD21xqSGO1qywtGRlNSDz4lKuJd5OTZuJp7mZaSvOzVv+yFHLHZ+SKFV+Eqht8b01MmjtQV7E0k5EbIOZBfLO0zY8HRm1bqms45KtjNd1nvqVebkvNFr6rbHZOJk+9KEP+cuhhAceeMDt+n333eeiNTqHL29cMqI1EDgVMmNVLlesnC9ZXQ/CNl4GHeCRjUjkhQqfBkrrZwLeTC7qgZ/30LVyJ71wwawB2AH2VzpNG24s2rF7PmePfPBD9tjHPmGHPvpJW7r/Qat4l6Hn7oWj23D1U5FZWU4uDFuELJ6HXjw/R0fTXJYY+pYV2xKXS/MSpCds4OgJG1xqWlmH2seOu3c1V2tZe6FmncEB616x1VpXbLHOiNbxRpeSMcNL3ZSh481kaV8fD5c+gdvxF018HKwMO52ZMu+ed7cpYy+xHsYlcFZQ5YanlXLVuVSTSGvjYezx1Ov50+RpSfxMPEW4wdO2VdtNqyzM2KFP/a3t/dCHbd/HP2mHxdPlRx61sup1GhogOE9X+bdalpML4xwl9OJlIeOpN/ha4gsNPGtaCZ4uqsGo64WnA7W2lRoda0qYdueXJEAlbLXsjgxZd9cWa+0WT4cq1i2u8hRT3oCnUFDX2ZHw5ytfSPPEU8R24qnfTXjaWlbcluIFTwMXDwr/Uuitn1e01KrC9f+1r33N7rnnHjt27Jh95CMfsfe85z321a9+1Y+PjIzooZC3b3zjGx4wgrw5XS6XPQ26Cwh0/X/hC1+wT3ziE/bpT39aRGRcUMfPp5WG13VoaMj+5m/+xj74wQ96nnzSkn2VSsXTWlLL9uDBg/bud7/bhxjgod2/f78PKdi8ebOn9/jjj3srkP10YfzxH/+xe3EpA5O4M+VJtVr19NaC65mamrIPf/jD9ld/9Vf2/ve/38999NFHvVtkfHzc4xw6dMiHNDzyyCPeLUILk2vat2+fXw/l5T4cOXLE78lXvvIVj8t1cX2cw7WNjY0Zn/hb+0C9nDF14rjtPzZlXz+2ZK2JbZYbm3QLwz0669uk+LJhLtQwDHQrumhzI9fyLkbJO39Zafrhx2V06lYuDdmwjAvzQZYmx2VEeMPXE+mVQSGl7vBDa+wJ+7J4WVxanqksXZ+fcnHvg7awX3lu3elv/TMUgnJ0BivaljE7clzidNA6qqu5qVmzAS2HhyynemPziz4er7N5kxXmJWybErYT45Zbrlmu3rRcoWj+yUjlifFt42HVX2FJQpUPMCxP28C+r9trXv58u2HPlboPktK9awsEzgTHjx61x47NOE/zW69Q3Rzzyp7GR/cinSkUH7EGO2gkPoGnjAdH3KkRC0+7Eozl4oANq94Ojo9ZaWLU2lr3jJWMfz0qJbsCP/QEnqayrsTTSuJpKgscW7jva7Z44oTzlFk6uuJoUaE9PODzMLePHLPOJl17URL4xJzZKEMO4Kme67Pz4qGeMJsnrDg942m2Vd7cgkSu+J4T7xPnVA6l3a7IZurZkNd1dofKVpw7YmPHH7XXveKFtnvXthWeni2Wl5dPslkEbNanPvUpt1nDw8Nuj+jpJA7d/9ilgYEBv5dzc3P2xS9+0Y4fP+72F/tK2Lt3r9te4tRqNbv33nvdvmL3sLvY+6OqJ5s2bfL0CQBPLXrid37nd9y+Yh9JG1tPnqTJcTQA9vy9732v/eVf/qVrB86lbJOTsgvrALuLnacsnIMNx+5in/EIUwbKyDVhm9EI6BrSRlNQFjzF2GZ0DLqEe8S1oCHQPX/2Z39mX/rSl7zMXBtah3sQWMUFE60INX5QugE+8IEPuPCkon/84x/3Cov4o/Ig1D772c/6D0uF4genYiAiIQEVASHHkjhUKMhHJb366qt9qAD5sI+8OId9ExMTnj4VIxOLVLI//MM/dGFJHCoxFfGKK67wikP3BKL2wIEDXvERiRCObSrzNddc4+JzbSWjskNWBDQkQRBzTV/+8pdXynbttdc6oRCd73rXu5z8kBhifP3rX/eybNmyZUWMIna5HoQ+YpjrIk0ENde2bds2f2BEhU+GA1Mxrfu07+iUfeXQrIzBDiuMb3bRyLP6TB/YmW1i2ea8DvM91qzT66LrNpYl9Jas027IeEjk1Ru2eOiE5TsF1eVNtmloQMZwxLqjQ9aRAPRxq2SdCtEra8rFJxn3tVX0l7X/WCZa8QotPvSAROs+a8rgt0pl4yUpvCvNoaq1eKv46HHlrzJgOKZlDKsDHvBKFWT08Ei1J2UM9VDNMx2X6rQt1y2PaJWhpE5RBCZ77+jhi8Uu6Hh3oOSidVCi9bXf/EK74dqre0IjhUDgTHDs+DF7tMfTwo6rrDAy7jw9G9GacYOlexjhqX8Na2kNT+GvuCphtHho2kr5qng6bpN8FhWeDqtxl1cdJ+OV/E/mqZNvDVL0k/ezlQloGTCbv1ei9dhxa2y7Qs8SmrgcEk8lWpn6Cp7SeGSsan5ajcuhEcuVK4mn9JSIy61NE1aamk7CFNsj/jL3MzwtwFMlyUcKOsw80JZol2jqiKfl2cM2fvwxe90rXyTRukOC+qlxFIGW2Szs9uHDh1dsFsILm4UNxymE0MNRhb3mK1w8RxChxMf+I+Kwwdhy9nM8i0d6lA+h+b73vc9tMXnv2LHD00cvoCkQftjld7zjHS4ciY/tzWwnaWGDM1uJ6MR2YovJn7RuuIF5a0++H9hwdAI2mfg41ygr9h/NQfnREnwFEFuNjqGciPXPfe5zbqe5P+gJyoJOwG5nQpX3cR577DEvO+ucR1rZtQVWccFEKwKNSvL5z3/eWz38kK95zWvs+77v+7yiUiERdFQgBCGVgpbV9u3bPS7bVDR+3Be84AV21VVXuUeUlt93f/d326te9Sr/sRHCkOfWW2+17/iO77CXvvSlXvkgD8sbb7zRKw+tpd/+7d/24z/0Qz9k3//93+9EowwEykR5KSvkeNaznmU/9VM/Zc9//vP9ehDMlBUhPDi4Oq8glZ34iFwIQvm/7du+zX7kR37EXv7yl3scKjOilQoNwYjHeZTtR3/0R+3Zz362t7iozAh2ykKZITutshe+8IX2+te/3l772tf6veIe0KLL0gyk32FOv9/jx6bss/fvs+7mXVbevF1HMEASh3roE3y796zinLRUYNnb5/v1D89Nd3HemoeP2PKDD1v9+JS1jh217tH9VpORac5MWXvmmM0dPCCDWffPTY4MlmUMRy2/ady9oEm00nWnTElToUO6yoNiuCe2h0zCevYKfoT/enEworxQsrT3AVs68LjVdY1tXg6Rsco1mtYVH8gvd/iQ2Yge4APDaaxctaJjldSFuiijp8TbavgU5ucsh+dnfMJyi0m05gt88hUBwTg9ZV0sucjFU9WtlKy0NG1D+75mr3nli+36PRKtfj9PNgCBwLroVeyZuVnbe/iEfea+x6yye4+VxvF89ep4r+6znVWp0/O060MAugvz1jh0yGoP77X6iWlrHzssnh602kziaXP6qM0dOmgF2aWhSlk8rVh506hJ6fTxlIaq8u1lwkuWcIVinAlPiYOn1Xmqcxfv+5otnZBoFU878NInUG5aZ3DIx7fmJQBt8xZxrOI8ZXgAU1zB08LCoqx3wblZnJ7y/FjPzyHGW4mnpKk8KXMenmbPgYGyi9ZNJx61173qpS5adVVPiaPYGoQqDhRsOjYQ2/ac5zzHbRaCFpuFuMRWE/CcXnfddf774CxC1GGrsKl79uxxYYlg++Ef/mF3PGG/sYk4j7B12MTM1mM7sankgZ3G6UR53vrWt9qb3/xmu+2227wM6AXyQydgM4mD4wu9gV64/fbb3b5iP7kGtAPe0AzERTMgVikPZSWPv/N3/o7deeedngfxd+3a5boCMYqgpZxokR/8wR/0clIOnFxcJ7qAPP/v//2/Lnhf/epXe5pcJ/HIB3HLeYFVXHA3HBU0a93ccsstLi75bjmeUlpbuN05zg9HhUdIUlkRsFQOvIn84AhZKgiVl3XEI4KNisT5kACikAeVLHPPU5GpIKQJyW666SYnHJWdeKSfeUSp0JSXfCAZZf2mb/om97DSeoS0hH7wIMAzmhHuJS95iT33uc/1fMgDjyhlIG3OJT5l43opK/EgCAIW0lAOBD0komw7d+70eNm9u+uuuzxfWm3cL+5RIBmOgu4rX6Kpy4B1mnXtSwbndMDorIANicKCQlGB7Y4ewD4nY12/+5KM0XTdavuPW3dG6c/r3k8vWbE372qzxZdtanpYNawr4UepVv4nabJQYA5XPhRAPnRn8rYFX7tqY/BOU2AO8eKHfyaSsWudbJJ0pdrGiGdX7D4dRVRGXl8VhycB16QYngf/KbDqSyXh6wLpIVQ5CZFdYF1HOe7j//iIgq63d3YgcEbw+qPAF6aoO7V5ZrForOw/HdbjKRwt9tbbKzxV/VzsWuuEGvYHp6w7p7o63zCbWbZSS3VWfEk8XRZPxV/naardXp9JjsBfNmer0s8x7KCfp37WOugdgKfKTCkmnuJ55c1+7xZxAsJVuKlc2dZz3Nnb46nn7+VJZfIzSJv13nY2jpeprPjSFhOApOPpOuHpucJam4XtvPnmm93GIr4QaNhg7CR2DKcKS5w02F28oNhV7CE9hQTSw8ZhP4nDcWwtthDbiU1FH5AW9pO0sIs4dXAmYTcRoyxx8iAssfPYWYYKcD5p3XHHHe4YIn3yIi1v8PQBu4yQJb0XvehF9uIXv9jLwPWSRjb0gOvkXNJBw6A5uA/EwzZznegavLGIdzQK+oXrwn5n9w59gScYnUO8teW5nHHBRSsVgcrCD4vYpFJfeeWVXlmpYAg0fnwqIpWCfVRUxoIgIDmH41SS9UBlQsBCGDygBFpvnJMha4XRSqJFCGEgIa0h0qdVRjky0YpQhFwQiZYQ5aficc56oGy08BDj5E/rki4QxrFANAiRtXJJn2vnHlx//fV+P0ibslFGykrIyEklJx7lIG3WKQfpEq8VolVIhC8WilbU/W2q4dPRw6V3y9fgFA8H7XZTpN8gX6+ZLavOyLC1FxdkDJdFJP11Clrv2PKJBRlH/e5N7VvuWiknI1woW0MZLqsO1ZR3y1MjLzc3/r8nz5aqclcGpaO0u7VFGSwMtwyVInG8H5yX9vX978YQsYpBVOCB50bRowispHx5YQpj6C+U+DGQjmXI1jKvUnojC6HLF7lUZ8lUhUtGU8a7IxFAnn1pBAJnCr7qxotLDTW6+exqqlhnBqqdyznqp4w9PO3UlsTTOXGp7jzNiaftJdmS6UXLNXJWaBSsqKilfEWkFU+VxrLi1iVeE0/Xgap2rqD/xM3u0oJZj6dwK3lUn1j3V9LxMgq6riRa20lEumjVMjve46lfEzwlPg1a55Yf6v2X5QWHexwFnhbncNXwlPOyZ4142mtcrp7/1IB9y2wWzqd+m4WdwnmC7cS2YncRmZnjCfGG/cR+cd56QNhljivsMbaSc7DBmd1ELCKCM0cOcckL249opRyI50y0kh7CkCV2k3ikyfnrAbtMPJxUnEc6DPdjCAJahOvLygK4FtLEPmdaIevu51zEPPcB/YPO4L5xHNtNfAQ1moNAvBCtq7jgopUfkx+SwPp6oPJRqak4CDHGlVBZ+MFpobD/VKDyUBFJ/1SiMqsc/aACUkk5j/yzbnb2Uxb2nw2yIQgMKfie7/kee+Mb3+jDEH73d3/XRTGkAxk5snxPd21cFw8H7sPp4gUwAl0XrHw5CuOFMfTHAP+teR7wgEiht0NIXfYdEaZjS8eP2cLjj1nj4GPWPvy4dU8cUsvnuLXrtPpnbGF52potCU5/IUuyrjRgnYERaw6NWqdcNT6zWJOwlKZV6FpT62TmBkeGia/mtPUAnsEzcEDpz85YWQ/dzFPi5eqFVEb/zxc8NpMhkiEkf5XXRSUeFw8pHv9xjXw6ElB/EMX+klXPu7QC3/SUFXSOykJYEbq9Ann5dY/cw+veJ88oEDgjpFqUeIpnEM+oz9PqB1TTTqpOGUdP5ikc9Q9ySAguHj3sPG0e2GftQ/utO3VIApMZCWasprC4PCOeLukk1de8nu/lwR5PR5ynjP+uizCtHk9biMasrqs4ZZWzoef6zN69tnxwv+UkRPhCnfdC8C9FXQ3pv1VQTl4CI/8+njpXV6JmPE1eV4blJJ7S9b/eM98ZKcDTtsRar0FKYXppso5nWC13LZ8+T9farPUcSNhPnEHEa+nZiz3MxsAi2hB4p0Imigk4ofrFYQaEHb2QLPuBzadcnIudzMA6AvhUmmM9UG56MBlGiA0nMAThp3/6p318K6I5A/lmuuNUYhxknlZ6iCnLetcWOBkXXOlARioaLnAqBS0iWiIMA8haGPyYVABaIFQMWjh4K6nAeBtPJ9g4RqUnnKpCUIH7KzQgX1pPlItyUK4MWXpnAtIhDQaOM76WroQ3vOENPl7nB37gB+zuu+/2Cpull+VLniyzbe4HgXuUgTiI+KxLIvNEEzgWWAW/PJ4R9Jh/O5ypXvS3FrqNK8HPSXv9jyXGdPnEtC0ePG6d4zVrTy1rR8cqxSGrVgasqN+RrsjWwpI1JDZrU0fN5mesuLRgJeadnJ02m5m2wfklqy4vWLG5KNtVU8qUJWVcrLdsqNG2iXbXRuod/+JNc2Y+eVv6ykMnoZ/VKy+nU8fdoCkkwZoMIHO16qJduGZ/2uEXqBiykwoIUZ3PNXCfMroQk//9TxsI/jZT9ige34onXWXYW2eISzojEDgbUN0IjMekDrV5cQqerlOfsjpP6FVTr58rMwWoLi4eO2FLh08knk4vW66mZ31xUM968VT1NfF00afAq08dk+icteKiOMmwqhnmRJ2xgflFq9YWrCCedjqyRz2ewqNirWHD4ummVtdG620riNOtuXkdFs8UJ5XoZJ72dvd4ml5q9O9U6SDi0XmqcBJPVy6yx1Olz1R3RYlqLN8K3zxOyoBT2sz8IZsAT52jzlOVrMfT05jNs8J6thKbhG3CFmGzuE5sbCZc6arnZWK8sHhgsYGnAvcqs+OnsvWIPzRC5lzKwPVn5cocQ4B0iHuq9NaCa0B7MLMBZeb9G957ectb3uJjYum9RY9kOJ2uYR/3LIvHfWKf/1a9e5kNg+TcwMk4R9X2qYMflspAN0H2I9EK40cDtFgItODofqDbmzcJ+aGp/JDgTCveqUBriApHmuSbEY/uhGwqi7Op4P2gEpIeLTRmJOBFr7e97W328z//8z6gHNFK3lna5Es5uE7ypiJTJrYz8nM/IDLHEe/Z0AVImbU2n06ZL02kBx/OiVaL35cHmB7umcVbD/78d0nnAlASzcfItfTQchE537bWYts6Tf0m5TErlIeUfkWiTmao2bXmcsO7OHPNupWaDSvxYJKAbTOR/7FpK00dt/ysjOoSX7Zp9ZxJMriNpg1IsG4qVmwsV7bSckv5zViu1VQ5KA/ldnOWHn6+QoFBzxjqQtNYu2QM8d50fbxcL6KWnOtpcYVEccFJoyyJ+5V8MIruoiUoLjMK8CCW0fT8MbQuYNs8hd24qBSeTSBwtnCeqs61WhKtXYw2Xe7UwXT8CfBDqzyFo0XVw5aei62ZBessJJ5223omlketWIKnpcTThnhaq1tDjcq8ngvwlM8X+8cFpqateByeHrP83JR1lxGkquOUQ9zixcQhVf2JQsVGcxWfQaM1O2d5NS5PzVP2k0TiqTcuSat3vOtEZIXIKT4HOCcdkgDWtTlPRVLuUz9Pu+Kp56iHSachjiqu8zRLk3WVj/IXyN9TJjx1ZMILe9Rvs1jHJvF74njCbtEFz7hOXmhmzCbAy9ov+J4KSJ90uM+ZHSdvluSDfcQe+rOJm3eWwPZiZ3m/hbzoJf3Zn/1Z+4mf+AnvNaVrn/0ZyI/4mZbhnnA/WAdZWSgjNhytQbmx/4jibNjg0ynzpYoLrmhoYSBYaXXxo7LNGBEqCe57QuYJpTXDIGZEKyKWyk9lf7o/KGmQHx5cWoB0WVAOxp2yjncUsq31xj4dICzxviJkuaasFUjlZrwLFZnpOtjP/SFO9pJZNnUHbyFyL4hHhSeQJhWdYRPE50ERSA/mrDut1a7rmY3XUoYs3zOI60H7MYIlPUgGWh0b0m9TtZYN5tpW4aszeYnJXN3qSqNWqti8DOBCq2Ct6ma1hLZafkJhcotVtl1hxc070uccS2U9uJbt+OMHbemRx6z56OPWPnjUp8aiHvO1GrrsKFGroEbHwFAi6cKcVZttHyZAmdw49ZWbK0Ro4in1wJ6eAVwxWJyntFlPRlQGz1/QwhOEd0f3Q2IeoYAAIL6fo6TIj5fDcjk9RJlSR8K6qTroyfKfhG6nqzqsNMq5gWQQ40EbOCt4LfYGlyqVNy7pwqYOduCps2IdwFPV67L4OSSeDqoOVnOJp2UaWys87VpNAnOu0baFdlk8nTQbSzwtTG61yvbd4ul26wyNWrtYssX5BTux74At74Wn+619+LhPJ8V4VX9ZUnky6wdxC+IpU0rlFuf9WcEzAw7xYtbJPOU5pCCyOk8hFxzscRUxCZ9O4qn254njf+I/DdweTxHH3B+/R56B8lWSiacSpwrO0+wZoHw7HT1rVD6m98o7TznxqQOh1W+zEGyINbYzm5UN78u6wpk1CLuG0wmnUb/geyrA5pEO4o93RRh6gDOMMjD9FF30vFdCHOKeKzAuF52AfukfHtCva7gX3BPuDXaf3mHuCboDRx1TZlFmHE7YfzQHQyBx0jE2F+dcPEtXccFFKz8IYpAf93//7/9t//pf/2ufq4xKjleSJZWMSp2JWIYJMHAZAkAEQKUkDpUl+wwcLRYqwZOBPHgRjCmjGJvyb/7Nv7Ff/MVf9KkxaL0xZcWTDUM4FahsXB8DqyENc8T96q/+queBSM5an4hTKjatKoiMAGU+uH/1r/6VT5TM/eGtRQZ2c62kS5koO1OG/Pf//t/tv/yX/+JkRdzzpiL5RmVfBX6FokJehgdDgPxzo6AHP94KvB28sc9E/KpI1m3JMLRb1q4tW0sPlNaBw2bHZ2UUizZUrFoRz6fSauvBszx7whrzx61Tm1VadSsX2lYqYGT0QC3hachbUdsYlqYsXrtVtFZTArfRsZYEa0tHWjKqfN6V7tFCSUanUvWJzgdKgzZckIGZXbCWHpL1gwescfiQdRZm/QMGyWgJvd+amQm6RV1ni25HugFVDhk6N1qKw9Q6jKPTisonAerXL3hXLOdL8rpXNt0ZVKvbXT9dkpn70my4waUb040r6ereIR6KPZqkqw8Ezg6I1gJ1C9Glqp3qIEdO5mle9bDrPMXz33SeNtW4bx88YrkT8zaUq9hgoSzx1nSx2VpaEk+Pi6cnrFOfUz4Nb3yWxA+yKImjpRLd7tKRyq3ZET/bfG41L57qfD2fGdfadp7SuaC4zlPZHvF0sDQkoVy23PSctVSO+qHEU6bFSzxN+XiAi7QylVde5ed4TsKcRl+6Tq4fboqjEt2JpykJuOyfYl3D0+w4SwQxM6Qw+wLPPe9tUUhT68HTrukR4Sc8XZ5mNgsvIkPgsG+/9Vu/5TaLGXOwrZnNQjRit7Cr2ENCdgz7ih4AOK74iADvrmAX03P61CANdAHTX+LUwRYym+fv/d7vuS3NZgMij6diE9EgiG1mAcAL+t/+239zjcD8tFw314+9RYQi4rkOHGsI1d///d+3X/mVX/GPCrHvFa94hV8/tp9y82IXDjvma337299uf/EXf+G6hZmGnuydncsRF/xu0NqgklEpqOQIRYQng7OZeoofP6toiFJEGm8l8pY852WgwiBiIQEVh9YKZGK8DPGpIKRDPox9yWYAYB9EwpvKnGucQ8sHIUh+EI4pqqiUVFoqEflQ2UBGWCoe5Vnr2aTcWcXkzUO6DLI53DiX62C6DcpAWdhHOlw3ZGB+Vyo+lZ1pPBCkXAPp0gqjNcb14mElUEaELeUmXmAVCC48kBhDevmYAgpB5gZED3JCVy3h5vycLTLMYnbOGox5m5+3pSPHbHH/EVs8OGWlnETk8KQNVAZseHDcBqsjVpbRqUqUDlXzNjpWtYEiXxqXcVDyiMZCTsZRwb2aUoYdWT3vTUf01msyqBKkMm4dLTG+6UUxlTWvB1t5WOmqbtXaVpxZsPyJKWupfndUl/C6+li4nunx/8Vq3v/ybkpdEx5SZejHeVzjEXKzjLeY832/jKDiYtT4UpdHdjvbZwwJ3C48Pe2mG0Pv1lREH0soAcsQinJvTGJ8HjLwVJBEq+pag3pGvVSF9qqk/zKeykY0Vf+X4KmW8LTG9qGj4ulRWz4yZ5UiL+BMiJ/wlOWQlVUv4enwQMFGRypWFU+L4oLzVMcKOYYBiaf68/aY8m8T4KnybC3Nr/JUvEVcSEaLY2WrVkZsqDxixSVxY2becsdPiKeI1gUxhXJzERlPFUQznMo0kv2FKOXPEBuOAeepD0dgX8ZT7VIc5nX1OZdVyNXnmHjnnOVsKM/9kyDWfp4D8BSvL17WoiKVUK3kmWX4FNFvs7BFzFmO6GSb4W/YTOJgs7BJ7MdRg63GfmV2ijjYZuwa6ZEGghPbiB7AzhIHYO8RfqTNcWwsdhnHDgI10xJ4LInDDAJMP8X5pI/957ysXNh6dAL7SXutUKSM2FZsOGVnflU+UIAnFxGezSqQpUcaaBX0AMMTuCc40bhmZhEiLfIgHhqAsqBZSBMBi5MLXUBZAydD9u7CWBbc5FQovpJBlzyT/OJF5UcmINL6Kw9Clh+V1ghud8aUIEghAOAyaJFRMVinkiGIyYdKRDzS4lhLDwn2s81+jtM6wtuJqOQYIH/SyPIgfUgJQSgjeXAe8Skfcan8ays8IG3iUT7yJw4EBZSJNLOXzN75znc6yb75m7/Z8yAvjmcky4YB8Hk4umV4i5FjpEk8ysuS6wokIKC4V5/41BfsZ3/pP9nQd/6ATb7yO/ToxvcKEfRQb3etJkMzf/iIHTt42Ea3TNqg6iHd5p3js9ZZoMVf1oPtChubUEOrLGMgo+EGp9uypUbdWrVFs2UZz2bHPTPWXCZ1NzL4SpamDxtfqMlL6FZkYTp6BjcqeStvnrR8Bc94QSUqWLkp8ddSHdl2pZUkjt0zorpmzSWrL8/Yo8f3W27Hdhu6do+uTdJVF4GXFg/Q/Mfea7Of+qgtTlxj9eEt1shXrXFszjrbtluuqvp5z+esfe2V1hXf8l+9z3K7dlt36xbrzBy1cq1uhWLF2pt3Wu7wfus269ZQHoWjR60wv2j5wWFrHzvo3tzCDTdZUXXRdN0NDGBrwTZNPWw3PPQx++dv/0f28le8VEIgPcSjLgaeDC7kVM95Dr7n/R+1n3v7f7ar/+E/s7HnvUzHCpKGioFIk5irHT1ms+LpCTUmJ7Zv9Wd1Ts/V9rEZ6y6Laarzu1SvR0aGrFBKjav0xnziabsmO7G8YIviKR5JvmqX8ZSvUS1NqVGYx4s65DxtSVe1+JLU5Cb/KpVktXiat1JDIlhN1uGtV4o3Je1JQwO6jUVbXJqyR4/tt4pEU3X3lSo6n22Go4mns3/5hzb7tS/bkvN00hrtojWOz1lXcXMqZ/6ez1r7jtvSl+u+Jp5ef6N1x0acpxUJ+nx50NpbxNN9Dyu9nDWuvsaK+w9Yod7Q82VQgvlxs8EBK1x7nZVk1+g5aqAPxdNtR75hd0x9w37pl/+pBNezvKGwnt16MmCLsUXYLMQivZL9Nit7OSrjP/EZz8pHAF72spf5hPqIuyxv7Cn2rd8GY/Owu/12DRua2dTM7mb7iZt11ZM356AnKBMg/czmZmXL8mWd9DLx2Q/OIT+cSdnYVMpHoPGSncOQAT6GgGh+05ve5GKYfCgj10D6XC+inDGyfG4WIYvgJg/iZbqDNAMn4+xr6TMAfkBEFy0WWjqIV36wrCJT0em2/w//4T/4+BAEHa0sKl0GKgvb7KclBBHYpkXT36IiTSoF+6jIWcVkP/HJm1YOgXSyOFn6pEuFohJm57GddQ9kZV4LCJO1Ikmb66RsBFqVnJulCdgmTeJxDusZwTKwTrqUCa8xIp7WJuf2xwsk4LnkzVvjbX1/wYN7yG+oekH9KEosjo7YyM4dtv2m6238ih02MKl6NDLqD6UmxqBQlPhdsOPHpuzYiTk7Nr1gh7V8/PAJ2/voIdt34IRNLUrEVkZtaFKt+e1X29CW3VYd32rFoXHbfNVNtuv6O2zXtTfa1qtvsm1X3mg7tl9nm4e322RFdbe8yTZXN9n4sOre6CY3so2lWVucPWqzJx63o1MKy8etun2LDei3xl2DL5S/ntX364LZrYIe4rouN/gy9PQ+mtZ1EX4eSpdux07Pk1OUgs7nZBQKJYlSCW6qskRnctKQroyxqmieB3RT5+h8uid9iADiX+IeT1VpWEKhV1e7VMOoioEzhervyTylN0B7VIf8pSXV53xJQkTPzDGJgR03Xm9jO7eJC+NW1vO1LSHTajAHc8HmZsTP49N2fKrHUwnCxw+dsIcfPajltM1IpxYHxxNPt8HTK5TuViuPTNrWa28VT2+3nRlPd99o27dea5ND22xSHJ0sT9hkddJ5OjA8Zp123epLM7YoQTl9/HE7Ip5ONWZtePcupTkuwYzo7oc4IwELHZtFNWjFSXhaYOjOCk+xB/CU2AzdSfei2JFcFk9FMvEUp4x263qTp5XI4mlBqUnAZTxNHy0gXfES76sKUx5Koiid3zv8NIB9XGuzsE88B7IxnXT5I3DxLuI9xSb22yrsJ7YZ20vgOPZ1rV3DFrI/s/P9+zk/s+FZOTJRSyBN4rCP/NjHfci0wlo7m4F9lIGy9GsE0sOGs8zSBCzZh6ZAuLJET/RrhKxM6B3SIh46iHKEYF0fJ/PoPIIfjgqA0MJ9TwXs/zH7QYVnHAkuf354RCuV4VL7USELlR8yc52nIk9GBh4OECcjZOA0QMz5P/5LL3fwoOa2+YND9zSPaB0ZtuHt22zrdXtkDHfY4OSEDUyMWb433m18Ytzf2m3gXV9u2NJy3RaXaza/VLf5xWVbrDWt0dWDujxs+eqodStj1ioOMsrVllp561TGrSTDOLxphxvJ4ckrbGRsp1WLagzl1ZAqjtpwdUIPNzWCMIYqa6OxYLXmvM23Fmyms2gzxbYVd2yz4tiErkaccWUIWGJ6dJV5mTmVs003ouLwIkd66YpuRXij89w40mVIF6RiuWgtuzHk5ZV0b+CkVhCmCApt5lrt1HXL+dqP7ZXi9+5MHK7VTLSSvJBKFAg8CXoNrkRVxFearP8knjLNEzwdo3G53bZev8dGxYVBNS6r46OWK0mMVQo2pnVSgafLPZ4uiKdzS+LqwrIt1dUI7UpgOE/FMzUyW8Uhq4u7y+2idQYkdODppJ4BztNdNjK6w6qFMfFUHC2N2UhVgnd4wir0Pki0wtNl5+m8TXeXbL6as/KuHVYcGXMOuqjkYrg+LpJVhcRTRKeuLROtGU8hnN8WeOoHrNBGaMJTPLd6lul8NbuVphLLGpc6lbGy/uKYi9keTyWCGTZUVIO2Ak8RrZ5qQrY8UyBKEXt0jSO2TmWzaPTjnaS3FC8oXd8MdbvUbBfXgohGLGPHEamn0imZyM+GHJ5K/wROxgUbHkC2Wdc6FRrR6gQ6RYXPutaJR4Aclxq4Hy09aBhqwMPgVB5T7h3x6B5h/XSCP5DAeM25+UX72N9+zn7hF3/VBv7O37PNr36D7i9ei9TazpARIk0V1WJsh81+4+tWWW7pQXu7jhT0WyVvEOdxKmK41Uxv5eJTmZOAnZ1fUJ5ztrQw711PyzKavCDh3gi1qCt8719GmAn+awuLMiRFGUG11ocGrVjCmDRtsT5nHYYhDFWtXSkm76mMlCyl8pU4dvGp3GWRGFfaybdt/uPvtenPftSmNl1nzaEdEpdVswNHrbVjp3XoOfjy561z5W4zCfL8vV+1Luubt1vp2JwVsYvVgjU3VaxwaEq6oWv1q662wsH9Vlict5zOsYf2GtNnde58tlXZ12pYraoyLx6wnbXH7a7W4/YP//5b7O7nPUflSkYs/QUCpwONqq5Nz87be/7yg/YLv/Sv7cqf+GUbv/uVqkMn87TfaKWhPRJntWWb+fpXbcSqtvuKm5SWeAqF+3mqdeep8uHzqHMLS+KoeLoATxecpzW+nKXIOA62SXzAU4QhcxPX9AypVMo2CE8H+egMafWYWQUAAExFSURBVDacp2p5Wm6oYq1ySTxVkXBnwlO8my4+M552rJ3X8+iv/tCmv/Fl8fR6aw9uFdeU2IEj1rrmWjpBLPcl8fSWm5VG2Qr3fdXaN91k+RE1eo/OWYHG6GDReVrcd1TxS1bffZUVH91rBT5RjWi/7wHripfdW++w6qy4rGuvlxV/4XG7pv64vbA6az/+//49u+Vm3SsJZO6v30///8xwtjYL4YrdWuuVvJSAXsHRxnVmXfzr3RPicU+Iy70I59OZ4YLVGH4cfkx+1NO55EEWL3ObX4qCFUBgKi4tV4Toqe4H+3lAcE/WdjcEVsGDciWwjasB25F5GrV/LXyPR04BUZgrFa1YLVtJRqmcb/rE5MV8SSKzZHnqrcRmIV+0kWLTtgx2bNfmIds0MWKbJidt284r7Ipr9tieG2+xm267w2645TbbfdW1NjY+qQe3fucqD+9BGUb93jKMS0uLduzIcdv74AP2lS983u796tftvq/ebw/eu1fGtSljV7V8RcKTrkOqB9ewpprIHJvMtAwKRlLbErpuuDnCS1nGix9adCR6ccko+N4ujSBe3urqevIyYhj2jvbRxShhoEgMj2Cd+R+7eYlbHWtI2PuLWK26RG9TdbdkhSIe3iRUPa9A4BRY5SnrCqowrvEkVL1yn6r+sF8B8UmPgPN0oGKlSt5K+Vb6Ah48ZaypeErd5cMZo6WGbR022ymeTkyM2qbNW2z7zt22+5rrbM9NPZ7efJvt2n21jY1t6vF0SDwdsIqey2S7oEbm0cNH7aH777evfvEeu/dr9yrcL94+bks1xqqLp+UhCNPjJwVluYrE07xz02f80DUjAv2Ie1WbWtW1MSZHHEX4IsKb9BSJpz6gAJ4SX2n4S1u83Snkdc1dcbSjBjGzDDS0v6nAvc21JDD1DICnNJq5nlRE1s4OZ2uz6EmkGxxxe6naLfQK94J78mS6Bm8rmqZ/iEPg9Lg0a00gsAZuDFnyXEC0nurhuva5TTwZHsZp5mUM52cOW3dpyor1WcvXZ8xq05arzVihvmDV1qIN5hs2NJBXY0IPrfFx27xlm+3YJYN49TV29XXX2zV7rredV+zWw3vChjCGA0MeBkfHrNLrSuo0l21pno9LHLP52rLN1eo2t1i3erOj1jnl5hUQjFm6prXAGNIdmQSAdmAQsXasSrTmfGwc52MIEfCKRFy8yrwupoR9yiH2p7vGQQWdq/IhMBDEKqy1tb+l8zz1dkOCvm3DI0M+FdBJeAoGMXB5oVfTUnWEd964zOrgGvTtSucongQCXd6ihy3OHrbc0rR4OiN+TjtPrTbbx9OmDVUL4umgjU6Ip1u32w7x8sqrr008Vdi+c5eNiqeDQ4yrhKfDNijRVRnkfQu10RpLtjg/ZdMzJ2y+ztCDjKfwA9NaSDxSAVeKy+X04DzVcacW16xT4KmzF57CRd9JrwvpsS5B35u7lngcSTwFZMR53LoeT4kvsd6WoG0hWvlrNXyar6HhQTUuUworCJ4GNjhgQiBwycNtoAfJPVmcvsf0GiQjwB+GhG469g1OTlq3UrIHH/yCdae+ZqOL37DSiS9b8dgXrTz9DRtZ3m9VPlrQ6kpkNqzZ6biBwLg4lDktaZ92SyKYF0oQljkZ2vJA1aoSrWObN9vWXdvsyt0TdsONu+zW595qt7zi+XbzN7/Qrr37m6w8MYrqtJzy4MWqVYG95mrWbLpB9LgyaFrnJRUfq0o8tlnoeFlFpVvUd0gguwdL5aSsDjeI3BcJYl0D03GROE4hTsFLhGdhcvOklcsVj8tfIHAm8Hro1U8SrcfTtPeJyOoWfxlPqddDW7ZaM9+2hx+8xwqzX7fhhVWeVmbuteHaIfG0aR1xaJ75kVdEWq8Sr+EpZUAa4rksDw7YADzdssW2i6dX7x63G266wm573u12yze/wHl61XNus8II3lil8aQ8pdC99R6y4ngZ3Eub4mTR6CiBp9DX50ZuIF71J466UFUcxCr78OJ280XFxVOrPb3EmTIL7+imyU3u/QTEDwQuBhT+JTPwBnxMDl/TYPoJpqLgbXy8XpdCFwbTeGXTjPze7/2ef+CAwFy0jBNmfBFdGYBB8kzD8bu/+7v2p3/6pz5vHOO86MIgXgbuFfFIj8mT//qv/9ofgMRjyMJa8EUvysAcuIxPZrzYeYWe18vK97HHD9hff/BvrXTjnTa05yY9rRFwemRjHByrD28Xnf6c1748Xeza0AN/11DRrpms2jddt8Ou2zlue3ZM2FXbxqyZK9tCp2LznarVZEXbbiiS4U1/Op/kewFji1HC+HQLMjHtmuVrszY7f8KWq3nrbN9i+bExKwwMWLFS8Q8O8BIKXXpuzECf+PRuVS0bjz9s9YOP23JlzDoDIzpWktCeNRvVelVG6uB+645ustzgsOVPHDEbG7XcwKCV5hctVy5ap5JexmLOWp+qS2XgO+z5ZtOKMtqto8clUJXnlVdabmHOrNXU+QOWmztsO8oNe/61W+2GPXts08SEirnKn9V7HAicAqLIkp7F9z201z7wob+18ee91AauuFqVJ3Wznp6niLQ0FIapp64YKti1W4bsWXu2254eT3dNjvpLkfB0oVsRT1OXe/JkrsNToGXy/Grpb+Uv62EyazPzx60+XLHuNvFUz094WhB3GIpA4y3xlAR6fPV10kqh/sh9Vjt+1HnahacqS/fErOU2T+gUEUw8tS07RN+S87SrRm2+VLayeGrVsjeilZl1l2vW1rOhrTLk9Fwu6IIKeg43D+sciVPbdYW4Oa1MJXDh9twhu0qP8ruu3WY3XLtHj4WRS4an2C+m4MK+9XfRXwrgU/Af+9jH7H/+z//pU39mdpxZGWioZPPOY1+ZZYlj2OY/+qM/8ulFAS++9/++zDf7gQ98wD9ORHw+ToRtzsbYMu6WueL54MFv/uZvehw+3sQ0pdmMCef7/q7W1MsceIkYEM2PzeS+/FhUhEsBzE/K516ZNgwRyifjqKyI8+wTc1w/A8c5xif2+AACApMlXzmhknJfACKWmRz4PB7ClbRZkjafpWWwPfcPkC55cPzP//zP/StfkOxCwCfPd7WF8fM9vn5qYL5SaDEN1MiYVWVAWyIq851u3zxqN1651W6XSLvlqjHbsXnYBqoVaTi6B9P5pL6SlQMTm/6SCwZPTEsCcdEaS9M2v3DC5q1hywMV6yAWK1UZqjQmz7+SRXce49BknLmIldL7Cvv0D2+s4rinNDumuuxjU+mLpHC9up1sleJRHBk7xr91SqlblvUueXGziE4arGqbwDhW9+rQpUkCHcYR5txQuAfHMw8Ezg6IzjQeW3WYOvRk9UhVb5WnEmVqkFV2XmkNNcQY47pz65j4uc1uv2aL3XTlqG2bHLKKBF+rpfMynlL/vXJ7ioLyZyMdUAx4A08XrLY4ZfNLCvmW1Qar1kEsMner81OCtde4dC8tBFvL017wT7nizfU8ezH82sVTONo+mad+mnYxC0hHvOwoD8A6XAWelkIS2b3nl3b6sAO4SoR2y0oFPq4w4uVNN/nSQEs/KvYJJwnztabn/aUBhCcfJUI08ulYbDiBDxxg43kWY3eZIhQbTlxsM3O/IzyxwcTFQYetx56TDrogs/V8BOHTn/60z/KAQ4tZm2gEcCzLL9MEfK2MT8+eb4Ro7YFWGXOkMVH/d3zHd1xSL3whSqlcfFIPx/of/MEfeOvrv/7X/2rf+73f618lgexUUj6hS2vrh3/4h/1TeP/gH/wDJwEVnsoLMQ4cOOATJ1PZf/AHf9B+7dd+zT9Li/eVliAVntYegBwQ40/+5E/sN37jN/zc84XMM9N7fjt4mPPChgu7lWf1+g9tTA0eCOyA+25Kg9ad2GYHCiP2ldmmfer+R+3otB4WelDw2dZdEyXbNVawardhFZ1V9Lz9VS4nGvaCnDAlWBYmO893GlZoLVnn+CGbPnbA9i1PWXv3Vquo1VzpVqzQTeJTBU8GCWjJ6xc+IXgvj34kY0iuvpUy1e/Gb5cMYk+8ejl6h7GRug7/zGNB9b5nCNM4Ow4qICSIT5LsV2AQBAFjyDytJR1jnGDiDikHAqfHE3lKBVcdLpa8LqdaxP+nqE+qjJxP3fQvRVWGrD2+zfblh+3LU8v2uQfVOJ9b9Ho/UOra7smK7RgRT8W9ss7S08DPd44SlFBP7pGi6nXLeZpvLFj7yAE7cfyAHWjNm127yyqbt1i5W/YZQ/p5mpW0n6OEFWgVjjJHtMf3jHV6xlMRcqWR6WUhnkqkYz42FZHKsB2WSoOsEWh8eMHTgI/aB099VhGlwf7E05aVdQ4v8vJi2qUEZmZhov6f/umftjvuuMNf+LpUgDBFp2Cb+YwsNpzwj//xP/ZPvuIoQJDieKIHFD3zT/7JP/HP4zNNKI4mPkiEFiAtHEzYcLQOn93F28oHH5hLl15RPLsIXnQBHzrK8iNNpitDtBLONy7Y8ICWRBIeOG4iHjjUPTcQYcTNp5WA2OFNQ9zUiB88dLQgUPu4wmkp0EKga5qu7g996EP+AyGc+HQabm4eDLRQ3ve+9/mPSX6ILPKk9ZF1fZMn4ozjCCvSp7VGq+L973+/x2X5jne8w1sZxCV9zuNhQYuENOmC50engtDK4cen/JCHNwTXAqHAuYhFKgTlxxXPtTF3Gw8WPJekx7eLKQf5033/7ne/27ezDx6sR1DSzz4PxzUxqTPzwpEu5fFuLN0jRCblQIyyj8rLXHOAa6WSs5/zH3nkEb+n/IbZ95HJGxLwO9FtwEceIAfeWO4DZEIcMwMEFZ5P6p0/YBG6Pjxg34Ej9qFPfsFKN9xug1dfr/14GjySI6327dCDvh9uHJgMvFyxer5iBw8fteOqx5xSUh6VYs5K1YIMZM6/fNXGUOg8DBNlcAkso9NpNaxVX7D5mWMS+wesOSjDMzFqxS1bbWB0woqlqowNQxd6pekZQl/P0NsgB+Qkfxio5v6HrXZgny0WR6wzMCqWq2THZq2res7wgNzBA9Yd32w2OGKF6SParzjVAbPZacsNVCw/UE3lxANPcQeHLTc1bflmQ1ZhTAL7hG6LjKh+T5ub9SmvCsxicWK/XT1k9spnXW/bt27zOkYhk61meVLpA4GTANUIS3UZ3r2P24f/9gs29twXWXXnVTrK8IAUDyDiToLO64c3qIoF5+lSp2gHDh62ab6SpNMq4kgZnpZ1nBfuT8FT/1yq6nxTPJ2b0fkKrSFxe9OYlTaLp8PjEtZqniKaOTedurZkvoPykrRzlP+VUf2Re2356FHnaVdc5JkBT23zeDrn0EHrbt2pRnbZ8lNHrTu52bo0BmUbciO8GKr9pMUwnnxBXB+ywrHjPvsHQ4E6R44yaa3lJF5s5oT2q+mt53Th+D67cXLAXnrHHtsmG1atiPsU0wt+djxF0GCbsH0f+chHVuw49gu7Rdczz35sGcPtsPkIIWw0IppnBPaW8z784Q+7PcPBgW0jHeLQc8O5bNNTh/155zvf6bYYW5k5Qpi3nKFwpJ995z+z/wz7wxahH7DRdHPjVcRu0cWNLcQG4pyhS530yQsdwTnYwEwnUJZ+UEbsLLae+0C50ABoCcpA4DyuHZ2Cre+PyzVQbgQ392O99LG1aBFsObaTOWCx55QffZGdg51GbGLH+fw8wh2bi0OJ3wRPK5+SxZajo7D5iFu+xkU5GV6BHeccfjNsNTqAZZYf14oXm95X8uYT+OTPvT4fuGCiFXFDRUBo8skzKjaVhotH8HDTEZm33nqrVyq8hZlo5cbzyTh+BOJRCbnZ/GAQiHiIUW42PwSfVXvPe97jPzhd4ngSSYMfkh8NMUU8KhUVinTJl/MQe+9617tWxomQPmkgVEkfwcgPyA8N6RDdpMkPS1z2I+oQ3+SxFhmJs3MhICTjfCo6wpi8ISpE5hgVnLS5P5SRtAlU+rUPHO4z50Ag7iFlRUwSWOfeUtm4/+yjLBAnq8Scnw0HIB73nThcIyS+8847VxoHlIcHFb8h95Q0KTek4zeFLKxz386vaE3Er+k+7jt41D786S9b+frbbeAqlcHfzHWr0gNbvQ2dkyF1tWubZ4OI2pGorEm0HjsxbbPLEnfaV2/woQHmZp2WgZvX7zSvh/q81fRgX16cs6XFWastzVmzsaykG9a2pi23lmyutejj2Aq8wDQ+aaVCWUZNBtWLQRlSedJaf1kFrfeLVv4Y01o78JgtlkclOEeN76J3+LwlY1pl6HKqY13l02WYw9Qx7R+zbiZa9dtj2IqtpnX43KV+144Mal71NK9tG1eaumb3bvG5Sc5p1i2vtArHH7M9Qzn7lrtu0++9yQaUDkVd9TL1FzwQWB+MaX3w0QPi6Vds7NkvtOoONY56Y8OzKpQWvY2TeMp/CngfJdjaEpVL4viR49O20JAILZasISG6sDRvsz5Dx5z4yjzK4qi4uiSeLsPTZfG0uaxGm3iQ0zOwsWgL3brltkp86VlWHttkRfEKwZpe1jxznrLGhwLqexGtR2ypLME6pIYj42uPz5jxqVgcqAf2S7RKcOrZkpvuiVZ6QeCcuFyQfSipwYiw7jAGfUAc1DPcv4o1OizOHxffByy3c5d4flz3pmOFQYnWo4/YrVuG7OXfdLMLkwrpU8SnwFNsLvYUhws2AnuBncE2YMOwp6zz8QEEDjYGm4ggxGYhhLB5OJ6wUdhVhCLCC9vBudgO7CzHEa6kga3BDnMu9hARdtNNN/k6jixEKcKO87F/CEQEKaCcpM+SMpA+94H00BeI72x4AQGNQbmyL3hhl/uBoKQcCFLKSDqZvsAWcg7lR1dwHM1DupSLa6S8ma3HNnKf+u04eaMBENnYXu4r14ntR0NhexGTLLHL3D8E5XOe8xx3MiHI0UfcNzyjN998s+eH3uAcbPUtt9zi+9Aj/J6cw73B3lMuHFEZsPFcC78jDQqEMeeS1vnA+cnlNEDY8MO+5jWvsR/7sR+zH/mRH/HBwmsrxqnAj0FF5gb/vb/39+x3fud37I1vfKMLLwQnP1QGWoVUbLyZ//k//2f/7jEtvKzFsR4y4UqF/fEf/3F3o7/2ta/1Y+wnfyoprTgI8pa3vMXjcD2IPoQyJD4VqIRUYsj/Xd/1XV7+f/fv/p2nRWsPclJu0iAtPKp835lB0b/0S7/kXSGQERLywECc9QNCITohEC3In/mZn/EhAT/7sz9r/+f//B+/bs4jHmWg4pEHxMnIkAlnKmom3ikPDxwqN/FYUrFZ555xnAcVvwW/y0tf+tKVNC8E/BHg1iTv3+XOFctpr+4X9ywLT4B2YQj9Ua5zS7miAi8qSbSWh6x79S02d8Ut9sXOiP3Z4zP2js9+2f7wPX9mn/nU++3+L37IHvrix+zeez5iX/vch+wrn/0b+8oXPmIP7/2iTS8ess6Q7u/VO23sztustHO32eCYfxmnrgdWmkQKr4xJ3Kolr0LgoSH0Dp0EjCT+Hr9OPeSY/J8NjB8BI86DkLeP+epOHheqtts65uNjJcaZ/QqRym0oS3znOhLWOiF5kro6t0WFSmNqxU+GTOgJajkFxtXhcS112jYs41mSEXUBsV5hA4F14BxjheqSL1hhYMjHcvveNTx9Qo3SjsTTnHfVZzztFgesNjhudu0dNrXjRvtcc9D++NHj9o5Pfd7++L1/bvd85q/tgS992B784kft3s/D0w+u8PTRR79qc7WjZiMlG7x2t43cdosVEZEDEmTiRF3Fgqf8reWpl5BCriko5XOWsl8cZeiN2sNJpHLx4qSLRx3P+wweiqP9be3r5ymeVbpBysvzWmY8pQEunnbEU3FSSs49s8wvAG+9h0f8ppGpZqx4OiThnY2pXVPQswCiCtvB8/7Nb36z/aN/9I+8Oxk70i++TgfEG2KLnrt/8S/+hf3qr/6qd2kjyhBa2CeArcL+YGcZbkY8RCG9sohAxOB6QKBRxm/91m+1f/tv/613qVNebDf2n/Tx8lIG8iUO14Hdx35i+04F8sRzTDnxUFImutqxe/SKIoKxiZQdsUlaCEX0BNdAdz92lvwpI6K0H9R37Clagx5o0v/RH/1Re+tb32q//Mu/7HlQBuKxxEZnPa+IeX4DxCXb6AD0BAFhzr5MkBIXzYLzC2FKWdcDmo3fBY3Fuefbrp+/nE4BxA43lJYOQo2beDY3gBtHa4IKiJubVhOubD5vyo8PoTIgsvD2kdfu3bt9HUHGTecHXw/8KAhdvKV0P5B+5pqnEvLj8gMiKNl/ww03eKsKlznlIv31BDj5ZZWYNGjRcC7xs+shb1psVHKEPRUKQU+5OZZ1s1Mp+6+zH1Qw0udefNu3fZv9yq/8io9VRXiTP28h8sAgDhWaCu8Pzb6HDb8H5YXYGXkg8toHUrad3UvKzL3lN+YerI1/XqG8md6Gh/aAHnLF8pk1ivrRX3q/R3rgN/NlWywO2WxJRJ+80jp7nmXVu19t1We/xIaefbeNP/c5tuV5z7HtL7jLdr3o+bbz+XfZ+G23Wu6KXVZTfa9VqtYpD+pmlXycmr9A8STglyacXGOToeTe093J2FUfD0h6WUSWOsZnWH2XhOYKZBkxXimKUm8wgbmWSgOBuyoIzEqVspUG0leCvCzKk3wZf8cnbuEkX/cKBM4G2Qt+Pg2Vnh2DeBOLZ8/TflBnmQqrIZ4uiKdzlU22vPlqsxueI56+Ujx9kQ0/+3k28Rzx9O7n2I4XPC/x9O67bPSWm+hztiU9d+uVAeuWFRCCZ8BT51EvsL4KthT0j2c2opVZBuDpSjxWaHSKp/7Qgad92cHFxDv9X29A3cRTneM81TY8LYunxSrDF1LatFMznjKWdWBg0D9OkOFJLumUwD5gm7B7CB7Wz9TplAGxh93DtmFbCdhQtEG/iCNt7Cx2kDjYSewy8fx+UnfWAdqA9LMhapyDXUfcYfMQcYhebBaOINLnHLyInIM2WQ/kmYk4ynDXXXd52ugLys+SOPT+Ym+xh9ynrNsdPUGvLk437Ot65ef6sbeUk/RwOCGqf+7nfs7vBR5Phj9gw7HNBOA2qvejZuuUhXyIi/inTFkckMVL9eTksrDNOeSHwOZ+3n777X5N/Wk809gwopXA+tkCA0nFpZKRBq0FKgVh7Y1EEFLRsxYFwo9wOoJRWakYVLCsayAT2PyI/Ph4KwlZVwMVn7wgB/HYXgvOpcJAFiok5edc7gFLtkmDlhd5kAb5kweBba43y+9U4BgPEroKvvM7v9NfnKKFRkuYe4SnmdYmLTTIsbairgXHCVT+iwlcVYcvxqhK+CcYGSemfamKcFTXteaPfxlSDAV2e3Bz6J7RZr5kjYIM2vAWK26/xgauu9PK195q5WtutMFrr7dhkXuUxoweYuPXXW+DdKtvmrSGHphNHwogQ3hSXWV9/UAZ6I70wLpCVi7+IxleDGs3+UhAegClM3tLxcN4ERFR69C2fwWLpTboRuzUm0pbx1V/0vyOfkckYHWqBD8hZbxSAjLxOV2zz9N6hilXVgKBM0CvwaX6M6hnZ0nPajdSXo2yenjyH/8y9GriKk85UXW93WtgNiRcuyNbrbhjj/O0dO0tiafi5Yh4Otbj6Zi2B67YzZs91lDDskmjMvtC1wqyuv3EQBmejKd8VY5PwyL6VvgJLxXnCTz18+Cpj8KXRiVC2zo1fL06rutjzKpH6sVjeiumsHNvrWeclSLZBWwNsxd4xum/p4RMtGKPWJ6N0ykDtg4hh21DSBLYh33vB/sRtuSFWMJ+Y8fI93TAfiP4sN04xoiPfeYeZM4jhCdApJIPcTJHFdvrAZuJmMT+Ux7KRlxsNVoD5xmageOIRfKjvP16gutk/VSgTvB74TjjXZM3velN7mn+7u/+brfrpE1vK2IVp9KT2ebMhp+Jvc9A2TNPL73DlJthBmgvyrZWaz2TuOCilR8aYUdg/WzBzaOicz7rpwMVnUp+NqCCU6mowIjdfvCDIygRlgjP/hbhk4Fz+8mSncuPz3VQiSlvJkh5EEBgrpPlmT4YuF4GZNPV8YpXvMIJSB54aKlweFcZQkFrkfvI9Z4K5AnpKNfpSLbxIGLqgc5bs0WpLkRrpViyIg92bq8MAN4HXsaQXFNsGQMErtZdsKV//sjneUDw3f4wUcDLIeuUb8twtFVHOiVr5coydHogFhUkTF3YytywbCNStd5hjkXdUzdYiOBeSAbkicE9Jh7IO5WnpXK4p1PrGDjeVuYN4rZEJzvZ5jvlpECNYUn+zJ6gouueENJwAdhX1o6iG0MeaLo5uk95lCr3xS9e9bYoAVDKW14PMp88Xcf8Cz7cB9XXouqvG8NeuVdDIHAaOKmo0E3xtGtDes5UCkU1plS3qKyq0BlPYeqZ8hReOE/hRx9Pu85T+JkFidoeT1s9nooNabyoc+hc8FQrlEP866ph2WnQ7U3ZMp5qvZdSK+Mp2+IdgTlYy0qC7v2CeNqWaKWMMk6KSw9Kz9vYFk9LBWtJ/OebzH6ghoCO8hln7mVOHIanpJ9y6w9nh37bhF04U9vUD87LBGVm89YDGgF7fDo7tR6wgzhvklA/uXzYYWw4DiTs4NkAu43DBw8k52fgGigjArVf8D4VvUM8RC7DBxkWgN3mfnNNeIVZZ/gBthztsJ7Drh/oGM7hfp9pGdA5DEFkiCHjZf/u3/27LlrPVk+dC5x97XqG8GRKnYqFuFtbqTgvC9n2qdAf72xwqnPYn7WqzkZIAs7NxClkyoiaiVlEMETqbzVl5T9VedYDcUmbyskyO5eyso9yI8ghEWKU/LNxMeTNEjJkLUSWWWVH7GYtO5YIcNYRv2dKhvMCDJdQkgAbHxyw6zYP2LbFgzb44Oes+LVPmt1/j3Ufu9+KU4estDhjpWbNSm2+z5/uPafj2HDvBeu9wLbvU8gMFMaq/3fyKWYwFBJ+/j3x/pAV7KmCQvTg5lC/HeKzKyPVUh3y/ZRNhrqAAaR8CFD3sKbQ1T1BOEsKWFtiQadbS//V9ZDqtNpu6AsIA8XBcJO21yHGrJIGGQiMaUVoVAoKZd4kzfIIBM4Cqk6VUtkmhwftxi0DtmXmMRt84LPi6Sese/8XrbvvQStNH7Hi0mwfT1Md5H9q3Cl5qvWnxlOBk88C5JEhlS6BdeepRGVHjb5WC55qXQcSTwvio7b7earydYv0yCB8xdNuU2zF+6Xns+wE6hxNX+B5BU91Tldps66HvrZ0sFeIbpHxvh2rytxUJGpP5mm2PHv4M+EMgF1juNt63sAzTSP7zc4GpzsHEYcdxg5i384G2NFMnHJ+hswDi01cTwif7TUQl3KiGcgzOz8Tx+Sd2XGuARtOvmgJgJbIHFPE43rxBGdlBC3VGcQpvw+6INMDvGTGi+K//du/7UMZ6LFl6ANpnM01nCtsGNG6FtxMWi7cbNb5ERgkzfZGAT8YPy4VlpCNJ4GQuOxpfUHSUxGUCpi1ThGGVBYqGUsGSSPSEcVn26rsB/kzVofpMsgjKwvl414iQCl7JlohG/ed68h+A4YPUNHpTkGMZiKbcTqkwW/DkuulkjMW6GzJ/8wjZ9Vy1XZsnrQX3X69vXDnqD1vqGV3Dzbt2ZW63Wxztnt+v40efsCKj33dcvvutdzhx8wkZHNzJyy/PG95GcmizEUOkyEDwYTdXK8bHRk9n2wfDnvQfz0+r9DaV1J8ApsQMOP96pH1A+g3huzMNhHOKSTR2lEjAkHJr40vh/N8knE8Mfne5x5VF3y+Ry+AjrgXiweuzqnVtcKrVohWLYmDQezooAxfnm5H7cO76mkoMEdrRatMXO7xBY/TWw8EnhziaaVqV27bYi+980Z7wfZhe95wWzxtiKfLdlN3xnbOPW7DB++3wmPfMNt3n9kR8XT6sOXmp8TTBSu06lbMPZGnXvvPkqdZlBWeKqQjpw5r0TstBUUgMByn22h64AiiFSHqkeAoKfnnV7VGcI5xsCtadhRfVyeytpYliHQy0rQoQZs+aCBO4lktiofMSe0X0AtqeJaUFPO0FnU84+YzwVFsDSIIG4IdakkUYXd4/4P1jYLMDmMLEYSUL9McOGawx2yvh0w0YhOxnbyDQlyuG3uL7cWh099rerbgXlEGPJy8NEb61AmW5MdvR9nJg4CNpuyIUe4951MWfgOGSOAdzew5dhutQRkpM3Yf3cH9IJAGL7kxwwHa5NnPfraP272Qjim4uCHBzUOkovJZ5+bxJj2VfqOAyoKopMudH5Hy8VITPy7rvLF4qtkDODfztPLjM1aEqSaoWIhBKijnMrYVQjxVUCEZt8qMBswNlz0sqPyUlfSp8FklhXgQhPueCVGug4pOhUeMZuVhQDak5veBFNlMDYxN6u8SueDQveZvoDpo115xpb3hta+yt37rK+zHXvsi+7lvf4n95Mtvt++/cdye33zctt/3Uct/4o+t+dE/ts49f2O5+z6fBOzUfivWpm0gX5OBqMtONNM8rBgRDKEeIskg4rPEqBCwOTIgCrI6ChiG1eDeEWwRLJQR4bCbKy1PFdYiGUCITHqpKzEvQ5hfqvt+RCujU1s5Bvnrt2cHU/VwrMNsE3iWtAtjp32kREbdhoyee37yEupdP05B8QDlysqnUtRDWCeWZPgQsd2ClRW3rDi8oOZlVeGeCWMYuDThLFV9GaoO2U3X7rHv+87X2Vtf+1L7h87Tl9pPvOw2+3+uGbK7lh62LV//m8TTj/2Jdb/wYcvdf4/lHr/fctMHrFifsWqupprcx1PVxfV5iihUlafOZyRLlbcX1EbTwodow1OVj8Nnw1M24SnBey4U8Ifm603LLTfcCDO9XeKpnigIThIpVFJ52/A0cclFqfNUx8Xlbr2VeKpUijQuM57q+nKVgpJQYDgASlUilY+VVHQcnnJBNGSfKZ5iB7Fh2HHsEJ4+RFY2NdZGAXYYsYfnEVudzTOLeGOsKOVlez0gRLGJOH6Iz7loFNax4egAxDu286mKPAQo9pppvHhxGi2EncbuMoMR4pXhA5kNpzzoCOxx1huKpiA+L59h7zPRSjlxSmW2nvjY8kwTcB7TllGGn/iJn/AxtFzrhQR82VCgAnEzUfMMav4f/+N/2Nvf/nafhDfzCG4kQHYqJFN18MMz6f/b3vY2n1ONCg0RuKZTgTfwXv7yl7t4ZR5Wxqz8s3/2z7xivuENb/Cxpxx7quBekgeBCY9/4Ad+wAdyQwCE5ete9zofLE7XA/eWF7QQnXQF/PzP/7z9+q//ut933qKkS4Drzd6qZKws02YxVRnTbyHeX/ziF7sQ3nCeVj2T3ZjoYZ3T71KU0CrrQV6W6BobGbBrdm+3l7zgufb/fNe329ve8r32kz/0evvpN7zYfuzle+zNe0r2rGNfstIH3mEP/f/+lZ14129b81MfsNK+r9vAicdtYPGEVZoLVm3WraJGQUkPFDwp7vU897bgFFjNyLv3eZPYhwRIQGKXZHWZMqe/PIgEprxh3KuLWZ3HAgPa0nXwigehXWskQ8nYPiWQl+ErKGJBhodpefwE7SuWylbSg9m/8nPerjtwqYC66QGPoHjK+OiS+AlP6coeHx2wPdfsspe/5G578/e83n7sLW+0n/rB77Sf+a4X2P/74qvsjbu7dsv+z5q973fs4f/+qzb97v9trc9+2Mr777UBNToHFqcST1sZTyXyJPQSQXqF6OPRM4eUR1Nipime5tWITDJWR/Rccp56jASeubztT8MUjkoFSZQmz6zzVKKzpeuAp5624vbzNC+e5po6zyd+5p6WffYU5ykZPAPAlvACM9MzIvqYDh47zodmsA9r3w+50MBWI8iwbczL+s//+T937YGnEofN6cZuYkexewhCxDnX+ZM/+ZM+feXdd9/t0z1ih5/qNePJ5SUsbDhilK99ff/3f7/fU0Qlsw49//nPd51BXDQDU4/h5f2P//E/+ovXiG9eMKOcjAnm98Geo7PQLX//7/99LzNTd73+9a/3YQCUF+GNs4sPPvzCL/yCT+OFfkBH/OIv/qLPf0+ZENHnCxfs4wK0HLlQWgmofn5wxBk3nhYJSyoSN55tPJlMZI8wolWRTU5POrQu+eGoGKzj5mZJetnXmmjlMYCZc2lVcR77aIUwsS4/JPmwD6EJ4YgD2M+gY8QbDxDS5welIpNm1iqhhZW55BGyXB9xIQP5rud9ZB/nki+VhzTIj8qOgITg3Ad/OClQLohF/myTB9fK/aDcrPe3mkkLAZndS0jFOdwX5qMjH+4T5xGHe8P52YwCeFWJQ1yuAZAegbLTiuaaucc8oL7pm77JfyPS6we/M+UlL8qfpXVekd0XLbhGtBq7uG7eeB8fH7Xt27ba7p077KodW+zqrRN2hQzlVjWQy4uzCjNWUdg9NmhXSOhuHy5bdXnWWscP2PQjD1j96CFrzU6lYQRKO+//4fuUeO2ZIcbOZRbJy5BWfRdx2GZvVtRe1JV4a5GZN+KnOF2b/caXbG7vg5a7+kZrD45btyMBMLfAVBu0Cs2YwHxi3PLDg1aYnbc847F1DzrTs9YdH7OO1rsHDll+05gVh4atuFS3LsMF4FpR16Pf0mpNWUyJ3Pm5JDCU3qa5x+2WzQP28hc+V/c2XQNz2wYCZ4KVOp5Vfq8/Cr26VFDDa2Cgoqo7Lp5usyt2bOvxdNx2jVRtc7FrlYXE0YHlefF0SPyt2pbBglWXZqxxdL/NPPaQeHrY2vPTlm/VrFSQuPMGHfV0fZ6SOSUisCvjqYtIVnxfQm/zJKR9vRjaSIzo2vQXPmMLRw6JpzdZuzJsdITk5+b9a1YeC55u3+xfvoKnBT2bSaYrnnb0jPUvdh08ZIXtW6yo529hsW6deurVc54ydKCuZicfVRBP+bJWcXTYJmf32bN2b7YXPvcOL48/h54iT7ElPNfxnGJTsHvYbgI2guFzmV3DzmO/sNXYPEQYdhdPJLYWW4Md47xMG2BjiEO6iCPSwJmFzSUe52F/sM2cix1iH2kyHRNpcn1sY3MoY2ZPKTPpMUMANgnbRDzKSpkpO+fgfWRJesRZKz6xdZmoxWbiqaT8lJtpJpnOkuOkzTWRLnqCe8C5lINjxOEauOZ++0l5OYd9nI/XFd1CWUgH4cm9pFzE4b6ghbLeT+4bIhQdkk1RRVzSZIn2IE3yIR3mssWRxX3LermJR+Decm0s0QrE457ye/eX+ZlETplnfLtgoAjcoPXQXzzirBf3dOdnOFWcp3PuWhAPUKHoOsetznxmP/VTP+UVl0pyOmTnZzjT6zzb8mU43Tn9cc9FvAuONddOuTMDxSHf9pCugWthf+riT8eYiqfTatoS44XmF216ZsG+9OWv2Gc+83n76Cf/1mqDY1a94mrbeuvttuX2Z1tp+zVWq27yMaUdWQe+i+5vQnt6ZJLGfuJYwqOZSmNW7NK9xzQ9yZvCAWwo8pdb3CuiF5xyAR4XpIOv9NA7f9MOfugvrfay75YIvUKGS/nve8xym8bNhgatvXefdXaqgSehWXzsoBXZT4PtsUNmV223biVv7c9+0arXXGUVxi6dmLWajGFLD9Zyxax56Ji1FmvWHRhSC0bXsGnUClddYXse+4R9+zUj9k9//K16iBV8Dsi8T8+QsKHrR2BjoFefMzj3eszgUMbF0/JURrXdatji0pLz9JjEHzz91Kc/a5++50vO0+Gr99jW2+60Lbc923Kbd1utMuZcg6e8cIgH1nUr+VCPtb+fp8hYutrVHrSW9tNDwQGG5HgzleKlInqZvJACacBVePr4b/wnO/K1L1vt5d8tHkmELjasC093qkGPsNr7mHX3XGV5NahL4mZxx1a/ztq+g5a78WrrqnHc/twXbeC2W6wyPGLlqVlbajCbQEf861rjwBFrI1oHZHfg6ZYJK+/YbNft/ah973OvsR9/y/dKiHBdT5+nXOOpzvPr70P6zc7MZj1VPJ30s/IytAEvIz2UiDm8jAhFBNqpsN61rsW5KFs/TpXWmZQFPFm89fLM8FSv4+lgQ4jWixkttdj4EgZfxMIFz9gXfkhafHhh8TwyLQWtLloygY0BxnJmNR8KEGjt6nHSM4B69Gulw1u+2t9iGqm2DIIMIi1jRNzyUpqfjxbt4SOHbbHZshoegk7OlnMDdnypZfun5myxU7eODEdpfKtVJ3dYddM2q05MWqc0YO1CyZp04ePtScURUos1bdN9yT/9h8dJf96dL6RrSLEwsJkxPPBHv2X7JVrrL3+D2cgOy9dlgI8etMrImOXLAzb/6GPW3q39m8Zs4JHHLE+3f75ozQUZwd0SrYMlyz38sJWHxq0wNKw8WtYsFf1b7j7MYFmGkDl81PLOFZtWkIEsqXV//f7P27ddO27/6B++xUqMc1U5+z04F+IBF7i48QSewkn29fPUOYoHSBxVwxJPULvnSavVeMGk5jzF63QUzxP78XpJccLTowsNOzgDTxtq1EmUjG+ThtxpA5NbrDK2SfV+wFriaUvilY+TJKguo0xZ+PbJPEXkZnW/n6eIWkk2/3vsN/+THf7aVyRav8typXHLLzUsD08ntyp+znnaveFaKwyUxdN9lpNN4dXI5nzNOnt2i7PtxNOJbYozoHNa1iiLy/BU5ewuNa3LkADGnRcaVizLLomXN+z7jH3Pc6+zt/3Qd6fp+i5znvJ8x9vIG/J8ihV7DvAs4g2ll5GhcPT0su98eRQD6+OCDQ+4VECFR7TQnc5cabjvqdh0kVPZGUNCV8bpWmeBC4d+wYrRYzxoC+HZaOi3bPrvuVyru3d1abnm30WvaV+jkT59yxu4w8NDtm3LZtssEbhpsGrDskwDraYVl+atuDBlQ81ZG24u2GBj0UpLC5abn7bOzDFrHDto9SnVmbkZPl3mY88KMktu3tweYpp91dFvTFhd3SJe2sKLO/v1L9jMow9Z+5pbzcqDSlflXJy3Ur4kk1fw6bA6E2OWGxywgq7Fp7xCuGIUR4esS3dkUSlWBn2qnXZZjS2fFoCseIGiodzqVmguSRCfsMLCMStOHbQdWr9lx4Q9/65nJS8rbqW+UoZoDTxVrPBUAjDjaVONSOepAo3ImvNUHBVX4WxN+xuq64jYkhpdo6PDtnXLpPN0YqBiQ2rpVZsSc4tzVhJPBxszNtxatME6PJ233NyUtaePWf24eDotns7Piqd1y4vbzKjR7WmX9XmattJ6Os7S96NrtTb1hb+12WNHrH3tbRKZEkN6phT1fCgVyuJx3p8v3c0T/pEA52lBjVu6aCVQO7oWEy8LJXg6JGFdtk5Fx8XTHBNQO0+bSgeeLlq+dsKK80etPH3Idjan7Y6rt9uz77zVOZoawamE4HLjKfWKe808pAyh4+Uk7kE2dIAJ/Rn/yXY8wy48wtMauCzhBlBClcA6hhDPTEPLhh5g9XrNmg0+W5s8Nh5abRe06by2f3mK/T7GBw9PN8csUTomSvFmvYQb7/U260s2Pzttx44ctUOHjtiBIyfsIF3u3Ya1BkYsv2mnDW2/0Ua2X2mD27dbY2KTdQaTYOR74l332+C5zEnSImoZx11w7ypl15XouP6UP6L3kT/6DXv0I39pnW/+PssNT/pYt8qBI2bFinUHZewqJatNjllzWKJ1saangIwWY+CUZpveAInuUq6pdGU82zkrNZYt15iz3PKM5RanrS2R2p2bttLsgpmWuWUJ4vayfdMNu+1bX/US+9EfeYuLhDTt1eVrDANPH2t52oKD4ic8rYt7NCrhqXNXoq+pYwT47OfBV4lbzvGeEu1rd9RII10F5yld4+IOPJ2dPuE8PXhQPD06ZUdm5pyn7aEJK0xeYcPi6fCOK6y6dZs1Nm2SSOTTriXrKA3YR31f5amSx+PJinuHJV6VD398tuD+3/yPtv8bX7EuPC1UrTi3ZGXla9Vh8ZShNyVb3jJhbS0LSzUXrQwbIPCFr1WeVizX0rrzdLbH0ylriac5NYiLM4mn+dqCDeSb9uwbr7S/++2vtjd93xtFe7yswdPAxYMQrYHLEpkhRHA2mzKCBBnAGl389abVlpd9DCci1T07MnotGT0+u5imyUExcjwZQp/iqidY+WKPO2GIImPg3estpY2XdqluSwwtkIFtd2r+lv9SI2dTczWbWVi22VrDmkUZwoFhy49M2MCW7Vaa2GyFkXHrDo9aXkYyX6q6Z5SeP94iTkMDELb8dezRP/hNe/RD77fOa7/POpu2u0GuLDcVV8ZVBpbCdSpFGUGZWabM0TXk2g2zxqLlZLhz9Xntn7GWDHZ+cdEG2zKmVrdqvm0jEqNjQxWbGB2wTQzEl/HeOjFuo0NV27Z5wq7ctcP27LnWu9AwfmEAA08HGUedp+IewrTRwIva7nlX+fw0nlc4SqMycRTewtHUNd9LQ3GYm5g2JdNgcdxrJzx1rvIcUNrL4ukyPG3aclOCFZ62zBbqZtPwdHHZ5rWjIZ7a4IgVxjY5T4vjaiDC0yHtE09zpYp/9S7jaRoasMrTB//X/8cOfP2r4umbrCO+8x2D8pJ4qsal93xIl8JTkUh8bFq+o0LoOWINOLpoefE0D0+nxdcl8bSzZCXxdFAZjZTF02HxdGTQJsdGbfe27bZ5fFT74Okmu2r3Lrv6qqtWOBo8DVwsCNEauCyRGUKCDwOgi1Gisu7GUMaqJ1rbLkZXDSeeGwjjY+lEnY4MphvDXrxsv3tBM8MokYiXxSfzl4D0yb8Rjm3lh4BdrNux4ydseoY3NReUHuNHK9atDlp3cNTqhbItWcEWJDrx7BRkKCvjErJjY5YfHnIRmy9ULKd45L33D37XHv3wX1v3dW+09uYdMn4lq1AeL6MMnwxzXsbelhasuzgng6jUm0tWbC7bYK5lo6WubRoq2LDKOSrxOVHNW7nQtmqpYCMDfD5wxMYnxmxictx27dhlmycnbXiIr8lUjWEwjN0OYxg4F8h4R6OxLsEKXxJPOy5a4SmNRDjIeFZ/CUvrzlP4qcDSj4mPPh6W4yy1/wk89fh9PFWENjxVY3JxsWbHezxdUAOz3S5Yp1zt8XTMavmSLYqni3wUoDJoxaExKztPRywvfuSL4ql4LcJ6Pvf/r/9qB77xdet+q3iquDron2j1srWb4mnD8suLZsvi6YJ4Kn4WJViLrSXxtGNjZbPJ4bwN6WEyqgYoPC2qYTkgwToyOGTjPZ5u2gxPr7DJCebnHFzhaX/DMngauFgQojVwWSIzhJkxZDwcXY2NZlfbLVuWYXQvK93+bvAYApCMG8GNZO8lLRerrHeZBJzJvnUc7wpxdYwZFlG6GE3ZQn+ZiaEDeHUwUJgLXp4oy5BUiyXLtXLWbDVsSQbr0MGj9sjeffbQQ4/a/kOHbVFpFMbGbcdNd9j4nhtsYPdVlhuZsNygQnnUGrK8D73rD2zvRz9i+dd+p3XHtynxgncj5lt4ZuYsPy8DePiI2eED1jj+iATsjFU6dRsuFn1s7rXXXmXPeu5tdsstt/kUNUwvxHRDTD3E9EC4arFxeRl07oV7j/ztY78S35cJ10Dg6SDjKHzNxq0mnprVnLe1HkdXRWvGUcQnHMWr6jxVAzMJVnjKxzNOw1Ot+nf5VefhKelR6XlhsiKeVno85djC4oLz9GFxdO/ex5yntbz4vGmL7bj5Dhu99jqr7txtudEJyw9ssm5pyJri6Td+63/Zgfvus5x42qmMyhircZhrKF1xtCaOzmmptLpH9jtPi/V5q6rsQ3pW7Ni+za6/4Vp71nNus5tvvtWuufoa27Ztq/MyeBq4lBGiNXBZIvPgEOhydE+rj41rWxNjKMNYb6chAT4ujmEBLGXcoIzsWhrDqn2ZmMUY4sn0OMqDJcdz/gd441nH2JBBRAjrRDeG7p3VbsbAFelSVLxGi65QidfFRZufX/AyyQbrfGYbqNhSvWXTc4sykkdsaqlh9XzVxrZfZccfuNeOPvqwFW65Q+K3Y82ZGYnVWdtUydvkcNXGxwZt6+ZxmxwftoFKwYaqJRssVySYqzY5NmGbJzbZ5slx2zQ+YaNjozY0NODGDeGaxCvGL7umVO709vGqxyYMYeBcoJ+n2cuRiNWWeApvedmq3k7jygndNTyVTnXO+LbzVJxEtHpDlDgc07laX+Up5yResoN4rmadp4qnpX8prlC0ls718bQKC+Ioc3TDU1JznopTC8sNOzEzb/sPHrHZuhrL5WEbFU8PfelzNnX8mBVuvcMa80vWnp+xnMTq5sGi83RsbMi2i6cT4utgpWiD8LSUeOoc3bTJtmzScXg6OuI8RaziQU08RZD6JXj5/fqcl8HTwMWLEK2ByxIYIgKGDk8OY1qXZQjbMoQYIX/JQ8awiQHEEOp4m4BhdGPIV2h6olXbhCRaVw1mlgfrmTn0rkv+2NdnONwDpAAKpTSOjfNYdroIY4lf779U2WWJlyVS52fmbObYlB06eMhOzM/bsso0smmXzU2fsLm5aatu3a5yq0xLC1ZsLvob05skQsc2j9rmHVttYsukDJ2E68CgVRl2kC/ZyOCwROyAlSWcK2U+9FH0UCgW/Ks8Wfd/Crxs5UXshWQMwxAGzhUyDsGzJA5bVoOnvp7xNHljO2qgOU97nlk/V3w5mafso2H5ZDzVcY4h9nr1maXHUyBagfHhWq7wVOeQvsfXLsbWwtO5qVmbPnbCDh04pMblojXFrZGJnTZ19KAtLi9Zddt2ay8vW3dp3t/0nxweUoNxxMYmx2zzzm02MbnJBuHp4IA4WVWjtiyejkjIVq0iHpb7eApHs4ng4Swc5at3FGk1JA9s8DRwMSJEa+CyBNWekBk3XvKoy+i1mg2fEqohQ9jQMZ+fVccQsy0CxlHxEa0NxXcRiiHDwPVEa5b2ScG9PIjd9PIWHho8Iitz/vXiuSfWPZoyODIuvGTCOW4M8XDKACua9pnltV5UnIKMUoNxd40lay+2bWZu1pZqSzbKONPBQStJrFaLiluqWIGvoZSYiaAoe5v3+VZ9nkaljYEuydiVZYwxdBjBSqUkQ1n0/SXt52srGEmWjI3j7eP02ValRrekLieMYeBcIeMPPHXhqopfd9HaEGfhaTvxFI7SuGyIW+Ivx+Bcqy2e6hz3vq5w7Ex4CvcVtIRfdLn3CuTHPS3Vfa//8JT84a646ZzWEsEs6lpBPIXLpFNvLVm9vuw8nZ6b0bXUbUw8LQ0NWrla7vG0qoarOMj8qvAUzsNTPRPglkruQxTKPUFahqM9nuL9ZZhRxtOyltUyX0QMngYuDYRoDVyWyKr9iuDUMgnRnlCVsfIprnoBL09mDN1A+X6MYvLqtLtsax1j6J5UWSscMmSjQHYYOhe5btwwfhgOHdd/jIVlv5fHS5bg8fSXeYAAx5nyir0c5xiilim4eAOZKX9anZYbMLwtCFJsrntY3GAR8LZgXDk/7ffu/7zOIeCxUR4lnY/RYz7aYlFGWsuKjGtF4rdaKsswpk8uu2eHT2J6uuQVBjHw9JF4kgLcSBzqJm7CO3GV3hCv8+zLeKoAL1s0LGmM9rjpL1cynMB5mtKEUCfzND0LnshTjtHI7QleL2EC3ldpS+eib/v/4pQ4pBxSGvqjx8R7TbST4T/kD6cQpN6176f1eAqfmEqLzFWexGP2J546v32Z90ZllQYpjV24qoZptaqG5QpP06dVs8nxk4BVVsHTwEWGEK2ByxJZtU9GaXWd8W9usNy44RVNhg+xiuFzL6x7YxGuyRgyyTnG0IWt1nWmn8/LWW6xsIusYgzX5Jctuzk8QT1juCZkhsW3fS15c5CbKqoDo0ssnxtV/7J4a40SaehU3+8eoR5YT14jjBrdij1vK55XGT3EqwvXUs4qlWQEyzqePK4VN4j93pwwhoFzAeprtuxfF/XEscRT5+gKV1c9rYx5TQ3MjJsStxKMLmjVqKOh6aK1x9HEU8RqalxmHFrNF2EKTzMxe3I4U57COuIicjM8kS+kl87vP3YyT2koFq0koeo8LfJNeYbwJNHqPC3puHjKFxppYBJSozV4Grg4EaI1cFkiq/ZrjQ3rHMKYYWgwjKlLH69OMoq8sZw8OT3RKsOIhxZD6aGdPCj+tnJLBkzilW5H0vEptHp5p7zY3zbZFZmpnjHEGCueWz4VzfcpuIFNJ/o2Vo8/th3a59fCZm8f21kgQU7LyXL2G8PsePqKFd4biVYtK+WKdzWWvMtRgXFzFRnB3ti5gtLqF61hDAPnGl7Pe8usTmXrHEo8hRsIWXEpE64KdXiqpXtjm+mjAwwlSOuI2DU8hXcexOueMAVwxePhIVWl9z/PsxeHaCoa6yvcBZRR2xzkj22PrH9+LWz2rinjTLpG0mffE3nqnlbtg5+ZaMXDypAeeAoP4WgFnoqzcJr5AhCtiNii4nG+/vXlFwhcPAjRGris8cTqnz3Ek+Hg+KphTIbLx5n2jCMGD08rBrHJHK+Nhk+XleLqHAlWj9/rzqRLEPEKiJMBA6XYvXPa7HDjwld83MODpSOeGz/KpQ0PMox+JDOyikkUP7/g+wh0KWYvYAAXqHRJaunn6QBGD6NWwsvqBhBPDWPlJEqLBa0XJFgL2lYchgNwDoYRAevp9xveQODcIdXtfmR1LNXvTLj6ungFP+Gqj3XVuvMV/iFYeZmL6bN4yx+eiqPwmOmx3FsrzvFVvIyfKzx1XikPziEPhayRlniqYz02ruUp874C5bSyM/EUHoqDlF1/SaT2eKp4cKufpxxzbjLuXBwsiqtwlN4Q96RqH57WcjnvQwPwwnJu1lPiX9LzfIOngYsTIVoDlz36KbD2Qe6G6BQhGcZkvPCuMMaVKXn4/nkStYTk6XFjqHXedl4ZB6v9SqaXD+vJGJI2cGPYScYQI5ftW1nK6nEoO+5/Ws+WyWiylbxF/cE9MDJoeGaysXJMtYUxzMSqL2X4Kj48IHVL0u2IYXRj6umc7F3NyhcInGukep6wtp55PV8nOD97PM0anvDUP0xQq/d4ipBdFbeMka0zBKi3zfCCDGt5mpXDRSuCVOgvm6+fiqcE/WU89fh9/My4ijiFp0pMPNU2PHWhqlAUNxmqI44iUtPsARKpJTUoxeUsHR9vrvMpTxYCgYsRIVoDlz36KbDew9yNSy9Of1w3hApuTNxbwkcBOv6xAoYPMAk6ITOavImMMWTuVabrwXgyTU8SvckzhMeFMiCCvdsSo7YSVoFoVMbajUFMsbIoPl5PAXEs8+QvdVBG7/Z3j2nJjR/rgwMDPY+NhKj+fForGcEq3f54bvDWIFIxfEqnUMyMXvKs9pLu7XvivQsEzhWeCk+zffDP62iPpw2J1H6e8mlY7xHBOwtPexz1sbDN1FsCPxPn09hz0sueAZlgXSFhD0/gad9h52iHYUZMZ5fximcJPESYppem4N9Aj6fOYXiqdcaVr/DUG5kSqX4+L1WuctTTZDiA8sy2A4GLFSFaA5c9+imw3gO9//haumTb/r/+k+ZML1sxLACj5N2MbYlZhga0ZCAb7m3lAwa88MWckhjGmo+xS/G7biBTwMplRSKvLL9UTgXydN2MNyV1LabhBKtDDAgyVS6skzEs+flsM86N2QHc8BV63f4Ss6SVuiFlIBkCoKzwqJIlaa3cp7RrdTsQeIbQz71zwlP9B8eShzX1fjDUhyEE9JjwwmUau56+zOUCt81UW4orPmcfKGBYgjKAbg7yyvJby9MVPjpPlQZiV3FoFOJlhVsI3fRCVcnPhY8MyalWqsmjKl7CSRqYcNiH9WgbriqJnkfVc+/l71n0lr2VQOAiRYjWQEA42cicjDOhCHGIRkyZL1/RHu1L3YlpeICMYhMBizhFpGq/j7Fr2HKr533Vdjb+FSOKpfPxbkqc7k3vmuyVh7Im45eW7oVxzw4lSPO6sp0MYs69M6n7v+jxMXg+F2v2wpXOd2+O9pO2e2O1TsAYZncm3aPV+xR2MHC+8MzwFI6yv8fRLIiLPpQHPoqz8HO5ySdk6SVRY7TFUIMkdlHBKQ14mjialaefp3Aqzc4BT/luVhKyzjGCjjtPEaVaJg6Lp+Knz73qY87xxCbB6jwlTpZG8DRwiSNEayBwDpAZLDeGMk4OLZKh6Bkz9+xkAaPYdE8rArXGsAFtuxenyRRbybPjX+GS0cQwYgjx4sokpuR7xhAj6G91KEO8MzhEZbtWjCFjUfHW0O3PcX/zn8A+haL2+dg3PyeNVV0d/5byWfXepO1A4GLEKk/TOFPg1dmr9Fqe4kXtiVd4quA8pcGpxqdPhQdnFfhq3sk8haUni1be9mcX685TL0XiacZRliWG5GSeVAlXn2rOuZqG6fTzlMao/ymh4GngckCI1kDgHCEZQ5CMRaKWDJM20ypGkT38J6PIdq970T9OwJg6GT1e/KCLkrGvTQWfExavrAwoxtCFK32NGCpMX0pO+aTufjwxJTeECNLUbZi6/PHK9DwzheRR9ZeoCBg7UnPjmrb7kY6vrgcCFyueKk99yjoPiaPwlWE+PjZWPE2ilf1qaOrcVZ6SD4mn9OFfmd4NBKoCw3BcmDK/qpaJo4mneFvdA5tx1HmYjrlA1X7SzRA8DVzqCNEaCJxD9LMpM3orVmQdprkBJbAuA5cMpLn31b07eFplCNPUWtong5nNR+k5yDA5hcmm58Fx0dpnDN2rqm2m61GUJEzdEOKzSYXKDBzHfD3988PEyC4BhDEMXOyAMhnOiqe9sMpTekQST73xiWiFtzqYvr4FT3U+PNVxAO+cp3l4mviJOOWtf47l8l3xUMXRejbWNStU8DRwuSNEayDwDOJ09Fp7LNvOjA1eGnZhHDGILmQ9JGOIsWVUAOdxBufx5rF/55zgwjR5bkBexlC73TAC4veXge0sb0/vJBMYCFy6OFOe9nOUkDiKkE08dU9sj6PZuHTO6DK/q1YSTxM3naPiontNezyFfiuNSwRrj4/B00AgIURrIPAM4snotZ5RYv3kbf+/t0zb2vKle3wUkiHjKF38fUZtZekLGL8S3zfXLLNMMIQr+wKBSxz9fFsPGRdO5mXiUtrwf77CLl/3Zc8ry7r+I52U1Gl46qvB00BgPYRoDQSeQZyOXqcyNumcFFZPX42bnccxDKKvaBcGzKHjK7YtLfpwsjEEJ5Wjl2EYw8DlhFPx9HQcOD1PVzn4BNGadpO4x1k/5+BpILAeQrQGAhsSnV4AGKXsbeeTDdRa+mYGbJ2oTwqPrhNXjGsYw0DgSXDmPM14BZ4qT1ei9tE+eBq4nBCiNRDYsOin5qkNU0bhMF6BwIVA8DQQOF8I0RoIBAKBQCAQ2PBIrxEHAoFAIBAIBAIbGCFaA4FAIBAIBAIbHiFaA4FAIBAIBAIbHiFaA4FAIBAIBAIbHiFaA4FAIBAIBAIbHiFaA4FAIBAIBAIbHiFaA4FAIBAIBAIbHiFaA4FAIBAIBAIbHiFaA4FAIBAIBAIbHiFaA4FAIBAIBAIbHiFaA4FAIBAIBAIbHiFaA4FAIBAIBAIbHiFaA4FAIBAIBAIbHiFaA4FAIBAIBAIbHiFaA4FAIBAIBAIbHiFaA4FAIBAIBAIbHiFaA4FAIBAIBAIbHiFaA4FAIBAIBAIbHiFaA4FAIBAIBAIbHiFaA4FAIBAIBAIbHiFaA4FAIBAIBAIbHiFaA4FAIBAIBAIbHiFaA4FAIBAIBAIbHiFaA4FAIBAIBAIbHiFaA4FAIBAIBAIbHiFaA4FAIBAIBAIbHiFaA4FAIBAIBAIbHiFaA4FAIBAIBAIbHiFaA4FAIBAIBAIbHiFaA4FAIBAIBAIbHiFaA4FAIBAIBAIbHiFaA4FAIBAIBAIbHiFaA4FAIBAIBAIbHiFaA4FAIBAIBAIbHiFaA4FAIBAIBAIbHiFaA4FAIBAIBAIbHiFaA4FAIBAIBAIbHiFaA4FAIBAIBAIbHiFaA4FAIBAIBAIbHiFaA4FAIBAIBAIbHiFaA4FAIBAIBAIbHiFaA4FAIBAIBAIbHiFaA4FAIBAIBAIbHiFaA4FAIBAIBAIbHiFaA4FAIBAIBAIbHiFaA4FAIBAIBAIbHiFaA4FAIBAIBAIbHiFaA4FAIBAIBAIbHiFaA4FAIBAIBAIbHiFaA4FAIBAIBAIbHiFaA4FAIBAIBAIbHiFaA4FAIBAIBAIbHiFaA4FAIBAIBAIbHiFaA4FAIBAIBAIbHGb/f5fD8S3NULRAAAAAAElFTkSuQmCC;" vertex="1" parent="1">
          <mxGeometry x="880" y="710" width="777" height="571.69" as="geometry" />
        </mxCell>
        <mxCell id="ROrOz53BwDJJsiaq3JAJ-2" value="&lt;h1 style=&quot;box-sizing: inherit; margin: 1.19em 0px 32px; font-family: sohne, &amp;quot;Helvetica Neue&amp;quot;, Helvetica, Arial, sans-serif; color: rgb(36, 36, 36); line-height: 52px; letter-spacing: -0.011em; text-align: start; background-color: rgb(255, 255, 255);&quot; data-selectable-paragraph=&quot;&quot; data-testid=&quot;storyTitle&quot; class=&quot;pw-post-title fp fq fr be fs ft fu fv fw fx fy fz ga gb gc gd ge gf gg gh gi gj gk gl gm gn go gp gq gr bj&quot; id=&quot;19e8&quot;&gt;&lt;font style=&quot;font-size: 18px;&quot;&gt;Building a Python scalable Flask application using docker-compose and Nginx load balancer&lt;/font&gt;&lt;/h1&gt;" style="text;html=1;align=center;verticalAlign=middle;resizable=0;points=[];autosize=1;strokeColor=none;fillColor=none;" vertex="1" parent="1">
          <mxGeometry x="880" y="600" width="800" height="130" as="geometry" />
        </mxCell>
        <mxCell id="ROrOz53BwDJJsiaq3JAJ-4" value="&lt;div&gt;&lt;font face=&quot;Verdana&quot; style=&quot;font-size: 18px;&quot;&gt;Incoming HTTP requests are routed to the Flask application.&lt;/font&gt;&lt;/div&gt;&lt;div&gt;&lt;font face=&quot;Verdana&quot; size=&quot;3&quot;&gt;&lt;br&gt;&lt;/font&gt;&lt;/div&gt;&lt;div&gt;&lt;font face=&quot;Verdana&quot; size=&quot;3&quot;&gt;The Flask application processes requests, including creating, updating, listing, marking maintenance, or deleting machines. (Implemented)&lt;/font&gt;&lt;/div&gt;&lt;div&gt;&lt;font face=&quot;Verdana&quot; size=&quot;3&quot;&gt;&lt;br&gt;&lt;/font&gt;&lt;/div&gt;&lt;div&gt;&lt;font face=&quot;Verdana&quot; size=&quot;3&quot;&gt;For read-heavy operations, data can be retrieved from the cache layer to improve response times. (Not implemented)&lt;/font&gt;&lt;/div&gt;&lt;div&gt;&lt;font face=&quot;Verdana&quot; size=&quot;3&quot;&gt;&lt;br&gt;&lt;/font&gt;&lt;/div&gt;&lt;div&gt;&lt;font face=&quot;Verdana&quot; size=&quot;3&quot;&gt;The Flask application interacts with the database to store and retrieve machine data. (Implemented)&lt;/font&gt;&lt;/div&gt;&lt;div&gt;&lt;font face=&quot;Verdana&quot; size=&quot;3&quot;&gt;&lt;br&gt;&lt;/font&gt;&lt;/div&gt;&lt;div&gt;&lt;font face=&quot;Verdana&quot; size=&quot;3&quot;&gt;Authentication and authorization mechanisms are used to secure the API endpoints. (Not implemented)&lt;/font&gt;&lt;/div&gt;&lt;div&gt;&lt;font face=&quot;Verdana&quot; size=&quot;3&quot;&gt;&lt;br&gt;&lt;/font&gt;&lt;/div&gt;&lt;div&gt;&lt;font face=&quot;Verdana&quot; size=&quot;3&quot;&gt;Logging and monitoring tools capture application metrics and error information. (Not implemented)&lt;/font&gt;&lt;/div&gt;" style="text;html=1;align=left;verticalAlign=middle;resizable=0;points=[];autosize=1;strokeColor=none;fillColor=none;" vertex="1" parent="1">
          <mxGeometry x="-140" y="795" width="1150" height="230" as="geometry" />
        </mxCell>
        <mxCell id="ROrOz53BwDJJsiaq3JAJ-6" value="&lt;font style=&quot;font-size: 36px;&quot;&gt;High Level Design&lt;/font&gt;" style="text;html=1;align=center;verticalAlign=middle;resizable=0;points=[];autosize=1;strokeColor=none;fillColor=none;fontSize=24;" vertex="1" parent="1">
          <mxGeometry x="15" y="1130" width="320" height="60" as="geometry" />
        </mxCell>
        <mxCell id="ROrOz53BwDJJsiaq3JAJ-7" value="&lt;font style=&quot;font-size: 18px;&quot;&gt;Client 1&lt;/font&gt;" style="rounded=0;whiteSpace=wrap;html=1;" vertex="1" parent="1">
          <mxGeometry x="-150" y="1240" width="120" height="60" as="geometry" />
        </mxCell>
        <mxCell id="ROrOz53BwDJJsiaq3JAJ-8" value="&lt;font style=&quot;font-size: 18px;&quot;&gt;Client 3&lt;/font&gt;" style="rounded=0;whiteSpace=wrap;html=1;" vertex="1" parent="1">
          <mxGeometry x="-150" y="1450" width="120" height="60" as="geometry" />
        </mxCell>
        <mxCell id="ROrOz53BwDJJsiaq3JAJ-9" value="&lt;font style=&quot;font-size: 18px;&quot;&gt;Client 2&lt;/font&gt;" style="rounded=0;whiteSpace=wrap;html=1;" vertex="1" parent="1">
          <mxGeometry x="-150" y="1340" width="120" height="60" as="geometry" />
        </mxCell>
        <mxCell id="ROrOz53BwDJJsiaq3JAJ-10" value="&lt;font style=&quot;font-size: 18px;&quot;&gt;Client 4&lt;/font&gt;" style="rounded=0;whiteSpace=wrap;html=1;" vertex="1" parent="1">
          <mxGeometry x="-150" y="1560" width="120" height="60" as="geometry" />
        </mxCell>
        <mxCell id="ROrOz53BwDJJsiaq3JAJ-11" value="" style="shape=step;perimeter=stepPerimeter;whiteSpace=wrap;html=1;fixedSize=1;" vertex="1" parent="1">
          <mxGeometry x="55" y="1380" width="120" height="80" as="geometry" />
        </mxCell>
        <mxCell id="ROrOz53BwDJJsiaq3JAJ-12" value="&lt;font style=&quot;font-size: 18px;&quot;&gt;Server 1&lt;/font&gt;" style="rounded=1;whiteSpace=wrap;html=1;" vertex="1" parent="1">
          <mxGeometry x="260" y="1230" width="120" height="60" as="geometry" />
        </mxCell>
        <mxCell id="ROrOz53BwDJJsiaq3JAJ-13" value="&lt;font style=&quot;font-size: 18px;&quot;&gt;Server 2&lt;/font&gt;" style="rounded=1;whiteSpace=wrap;html=1;" vertex="1" parent="1">
          <mxGeometry x="260" y="1340" width="120" height="60" as="geometry" />
        </mxCell>
        <mxCell id="ROrOz53BwDJJsiaq3JAJ-14" value="&lt;font style=&quot;font-size: 18px;&quot;&gt;Server 3&lt;/font&gt;" style="rounded=1;whiteSpace=wrap;html=1;" vertex="1" parent="1">
          <mxGeometry x="260" y="1440" width="120" height="60" as="geometry" />
        </mxCell>
        <mxCell id="ROrOz53BwDJJsiaq3JAJ-15" value="&lt;font style=&quot;font-size: 18px;&quot;&gt;Server 4&lt;/font&gt;" style="rounded=1;whiteSpace=wrap;html=1;" vertex="1" parent="1">
          <mxGeometry x="260" y="1550" width="120" height="60" as="geometry" />
        </mxCell>
        <mxCell id="ROrOz53BwDJJsiaq3JAJ-16" value="&lt;font style=&quot;font-size: 24px;&quot;&gt;Shared Database&lt;/font&gt;" style="shape=cylinder3;whiteSpace=wrap;html=1;boundedLbl=1;backgroundOutline=1;size=15;" vertex="1" parent="1">
          <mxGeometry x="550" y="1340" width="170" height="150" as="geometry" />
        </mxCell>
        <mxCell id="ROrOz53BwDJJsiaq3JAJ-17" value="" style="endArrow=classic;html=1;rounded=0;exitX=1;exitY=0.5;exitDx=0;exitDy=0;entryX=0.031;entryY=0.046;entryDx=0;entryDy=0;entryPerimeter=0;" edge="1" parent="1" source="ROrOz53BwDJJsiaq3JAJ-7" target="ROrOz53BwDJJsiaq3JAJ-11">
          <mxGeometry width="50" height="50" relative="1" as="geometry">
            <mxPoint x="440" y="1590" as="sourcePoint" />
            <mxPoint x="490" y="1540" as="targetPoint" />
          </mxGeometry>
        </mxCell>
        <mxCell id="ROrOz53BwDJJsiaq3JAJ-18" value="" style="endArrow=classic;html=1;rounded=0;exitX=1;exitY=0.5;exitDx=0;exitDy=0;entryX=0;entryY=0.25;entryDx=0;entryDy=0;" edge="1" parent="1" target="ROrOz53BwDJJsiaq3JAJ-11">
          <mxGeometry width="50" height="50" relative="1" as="geometry">
            <mxPoint x="-30" y="1363" as="sourcePoint" />
            <mxPoint x="59" y="1477" as="targetPoint" />
          </mxGeometry>
        </mxCell>
        <mxCell id="ROrOz53BwDJJsiaq3JAJ-20" value="" style="endArrow=classic;html=1;rounded=0;exitX=1;exitY=0.5;exitDx=0;exitDy=0;entryX=0;entryY=0.75;entryDx=0;entryDy=0;" edge="1" parent="1" source="ROrOz53BwDJJsiaq3JAJ-10" target="ROrOz53BwDJJsiaq3JAJ-11">
          <mxGeometry width="50" height="50" relative="1" as="geometry">
            <mxPoint x="-20" y="1373" as="sourcePoint" />
            <mxPoint x="60" y="1430" as="targetPoint" />
          </mxGeometry>
        </mxCell>
        <mxCell id="ROrOz53BwDJJsiaq3JAJ-21" value="" style="endArrow=classic;html=1;rounded=0;exitX=1;exitY=0.5;exitDx=0;exitDy=0;entryX=0;entryY=0.25;entryDx=0;entryDy=0;" edge="1" parent="1" source="ROrOz53BwDJJsiaq3JAJ-8">
          <mxGeometry width="50" height="50" relative="1" as="geometry">
            <mxPoint x="-20" y="1373" as="sourcePoint" />
            <mxPoint x="77" y="1414" as="targetPoint" />
          </mxGeometry>
        </mxCell>
        <mxCell id="ROrOz53BwDJJsiaq3JAJ-22" value="" style="endArrow=classic;html=1;rounded=0;exitX=1;exitY=0.25;exitDx=0;exitDy=0;entryX=0;entryY=0.5;entryDx=0;entryDy=0;" edge="1" parent="1" source="ROrOz53BwDJJsiaq3JAJ-11" target="ROrOz53BwDJJsiaq3JAJ-12">
          <mxGeometry width="50" height="50" relative="1" as="geometry">
            <mxPoint x="440" y="1590" as="sourcePoint" />
            <mxPoint x="490" y="1540" as="targetPoint" />
          </mxGeometry>
        </mxCell>
        <mxCell id="ROrOz53BwDJJsiaq3JAJ-23" value="" style="endArrow=classic;html=1;rounded=0;exitX=1;exitY=0.25;exitDx=0;exitDy=0;entryX=0;entryY=0.5;entryDx=0;entryDy=0;" edge="1" parent="1" target="ROrOz53BwDJJsiaq3JAJ-13">
          <mxGeometry width="50" height="50" relative="1" as="geometry">
            <mxPoint x="176" y="1413" as="sourcePoint" />
            <mxPoint x="270" y="1270" as="targetPoint" />
          </mxGeometry>
        </mxCell>
        <mxCell id="ROrOz53BwDJJsiaq3JAJ-24" value="" style="endArrow=classic;html=1;rounded=0;exitX=1;exitY=0.5;exitDx=0;exitDy=0;entryX=0;entryY=0.5;entryDx=0;entryDy=0;" edge="1" parent="1" source="ROrOz53BwDJJsiaq3JAJ-11" target="ROrOz53BwDJJsiaq3JAJ-14">
          <mxGeometry width="50" height="50" relative="1" as="geometry">
            <mxPoint x="186" y="1423" as="sourcePoint" />
            <mxPoint x="270" y="1380" as="targetPoint" />
          </mxGeometry>
        </mxCell>
        <mxCell id="ROrOz53BwDJJsiaq3JAJ-25" value="" style="endArrow=classic;html=1;rounded=0;exitX=1;exitY=0.75;exitDx=0;exitDy=0;entryX=0;entryY=0.5;entryDx=0;entryDy=0;" edge="1" parent="1" source="ROrOz53BwDJJsiaq3JAJ-11" target="ROrOz53BwDJJsiaq3JAJ-15">
          <mxGeometry width="50" height="50" relative="1" as="geometry">
            <mxPoint x="185" y="1430" as="sourcePoint" />
            <mxPoint x="270" y="1480" as="targetPoint" />
          </mxGeometry>
        </mxCell>
        <mxCell id="ROrOz53BwDJJsiaq3JAJ-26" value="" style="endArrow=classic;html=1;rounded=0;exitX=1;exitY=0.5;exitDx=0;exitDy=0;" edge="1" parent="1" source="ROrOz53BwDJJsiaq3JAJ-12">
          <mxGeometry width="50" height="50" relative="1" as="geometry">
            <mxPoint x="-20" y="1280" as="sourcePoint" />
            <mxPoint x="540" y="1370" as="targetPoint" />
          </mxGeometry>
        </mxCell>
        <mxCell id="ROrOz53BwDJJsiaq3JAJ-27" value="" style="endArrow=classic;html=1;rounded=0;exitX=1;exitY=0.5;exitDx=0;exitDy=0;" edge="1" parent="1" source="ROrOz53BwDJJsiaq3JAJ-13" target="ROrOz53BwDJJsiaq3JAJ-16">
          <mxGeometry width="50" height="50" relative="1" as="geometry">
            <mxPoint x="390" y="1270" as="sourcePoint" />
            <mxPoint x="540" y="1395" as="targetPoint" />
          </mxGeometry>
        </mxCell>
        <mxCell id="ROrOz53BwDJJsiaq3JAJ-28" value="" style="endArrow=classic;html=1;rounded=0;exitX=1;exitY=0.5;exitDx=0;exitDy=0;entryX=0;entryY=0.5;entryDx=0;entryDy=0;entryPerimeter=0;" edge="1" parent="1" source="ROrOz53BwDJJsiaq3JAJ-14" target="ROrOz53BwDJJsiaq3JAJ-16">
          <mxGeometry width="50" height="50" relative="1" as="geometry">
            <mxPoint x="390" y="1380" as="sourcePoint" />
            <mxPoint x="550" y="1405" as="targetPoint" />
          </mxGeometry>
        </mxCell>
        <mxCell id="ROrOz53BwDJJsiaq3JAJ-29" value="" style="endArrow=classic;html=1;rounded=0;exitX=1;exitY=0.5;exitDx=0;exitDy=0;entryX=0;entryY=0;entryDx=0;entryDy=105;entryPerimeter=0;" edge="1" parent="1" source="ROrOz53BwDJJsiaq3JAJ-15" target="ROrOz53BwDJJsiaq3JAJ-16">
          <mxGeometry width="50" height="50" relative="1" as="geometry">
            <mxPoint x="390" y="1480" as="sourcePoint" />
            <mxPoint x="560" y="1415" as="targetPoint" />
          </mxGeometry>
        </mxCell>
        <mxCell id="ROrOz53BwDJJsiaq3JAJ-30" value="&lt;font style=&quot;font-size: 18px;&quot;&gt;Load Balancer&lt;/font&gt;" style="text;html=1;align=center;verticalAlign=middle;resizable=0;points=[];autosize=1;strokeColor=none;fillColor=none;" vertex="1" parent="1">
          <mxGeometry x="50" y="1321.69" width="140" height="40" as="geometry" />
        </mxCell>
        <mxCell id="ROrOz53BwDJJsiaq3JAJ-31" value="&lt;font style=&quot;font-size: 24px;&quot;&gt;Things to Improve&lt;/font&gt;" style="text;html=1;align=center;verticalAlign=middle;resizable=0;points=[];autosize=1;strokeColor=none;fillColor=none;" vertex="1" parent="1">
          <mxGeometry x="-10" y="1690" width="220" height="40" as="geometry" />
        </mxCell>
        <mxCell id="ROrOz53BwDJJsiaq3JAJ-32" value="&lt;ul style=&quot;border: 0px solid rgb(217, 217, 227); box-sizing: border-box; --tw-border-spacing-x: 0; --tw-border-spacing-y: 0; --tw-translate-x: 0; --tw-translate-y: 0; --tw-rotate: 0; --tw-skew-x: 0; --tw-skew-y: 0; --tw-scale-x: 1; --tw-scale-y: 1; --tw-pan-x: ; --tw-pan-y: ; --tw-pinch-zoom: ; --tw-scroll-snap-strictness: proximity; --tw-gradient-from-position: ; --tw-gradient-via-position: ; --tw-gradient-to-position: ; --tw-ordinal: ; --tw-slashed-zero: ; --tw-numeric-figure: ; --tw-numeric-spacing: ; --tw-numeric-fraction: ; --tw-ring-inset: ; --tw-ring-offset-width: 0px; --tw-ring-offset-color: #fff; --tw-ring-color: rgba(69,89,164,.5); --tw-ring-offset-shadow: 0 0 transparent; --tw-ring-shadow: 0 0 transparent; --tw-shadow: 0 0 transparent; --tw-shadow-colored: 0 0 transparent; --tw-blur: ; --tw-brightness: ; --tw-contrast: ; --tw-grayscale: ; --tw-hue-rotate: ; --tw-invert: ; --tw-saturate: ; --tw-sepia: ; --tw-drop-shadow: ; --tw-backdrop-blur: ; --tw-backdrop-brightness: ; --tw-backdrop-contrast: ; --tw-backdrop-grayscale: ; --tw-backdrop-hue-rotate: ; --tw-backdrop-invert: ; --tw-backdrop-opacity: ; --tw-backdrop-saturate: ; --tw-backdrop-sepia: ; list-style-position: initial; list-style-image: initial; margin: 1.25em 0px; padding: 0px; display: flex; flex-direction: column; color: rgb(55, 65, 81); font-family: Söhne, ui-sans-serif, system-ui, -apple-system, &amp;quot;Segoe UI&amp;quot;, Roboto, Ubuntu, Cantarell, &amp;quot;Noto Sans&amp;quot;, sans-serif, &amp;quot;Helvetica Neue&amp;quot;, Arial, &amp;quot;Apple Color Emoji&amp;quot;, &amp;quot;Segoe UI Emoji&amp;quot;, &amp;quot;Segoe UI Symbol&amp;quot;, &amp;quot;Noto Color Emoji&amp;quot;; font-size: 16px; text-align: start; background-color: rgb(247, 247, 248);&quot;&gt;&lt;li style=&quot;border: 0px solid rgb(217, 217, 227); box-sizing: border-box; --tw-border-spacing-x: 0; --tw-border-spacing-y: 0; --tw-translate-x: 0; --tw-translate-y: 0; --tw-rotate: 0; --tw-skew-x: 0; --tw-skew-y: 0; --tw-scale-x: 1; --tw-scale-y: 1; --tw-pan-x: ; --tw-pan-y: ; --tw-pinch-zoom: ; --tw-scroll-snap-strictness: proximity; --tw-gradient-from-position: ; --tw-gradient-via-position: ; --tw-gradient-to-position: ; --tw-ordinal: ; --tw-slashed-zero: ; --tw-numeric-figure: ; --tw-numeric-spacing: ; --tw-numeric-fraction: ; --tw-ring-inset: ; --tw-ring-offset-width: 0px; --tw-ring-offset-color: #fff; --tw-ring-color: rgba(69,89,164,.5); --tw-ring-offset-shadow: 0 0 transparent; --tw-ring-shadow: 0 0 transparent; --tw-shadow: 0 0 transparent; --tw-shadow-colored: 0 0 transparent; --tw-blur: ; --tw-brightness: ; --tw-contrast: ; --tw-grayscale: ; --tw-hue-rotate: ; --tw-invert: ; --tw-saturate: ; --tw-sepia: ; --tw-drop-shadow: ; --tw-backdrop-blur: ; --tw-backdrop-brightness: ; --tw-backdrop-contrast: ; --tw-backdrop-grayscale: ; --tw-backdrop-hue-rotate: ; --tw-backdrop-invert: ; --tw-backdrop-opacity: ; --tw-backdrop-saturate: ; --tw-backdrop-sepia: ; margin: 0px; padding-left: 0.375em; display: block; min-height: 28px;&quot;&gt;&lt;p style=&quot;border: 0px solid rgb(217, 217, 227); box-sizing: border-box; --tw-border-spacing-x: 0; --tw-border-spacing-y: 0; --tw-translate-x: 0; --tw-translate-y: 0; --tw-rotate: 0; --tw-skew-x: 0; --tw-skew-y: 0; --tw-scale-x: 1; --tw-scale-y: 1; --tw-pan-x: ; --tw-pan-y: ; --tw-pinch-zoom: ; --tw-scroll-snap-strictness: proximity; --tw-gradient-from-position: ; --tw-gradient-via-position: ; --tw-gradient-to-position: ; --tw-ordinal: ; --tw-slashed-zero: ; --tw-numeric-figure: ; --tw-numeric-spacing: ; --tw-numeric-fraction: ; --tw-ring-inset: ; --tw-ring-offset-width: 0px; --tw-ring-offset-color: #fff; --tw-ring-color: rgba(69,89,164,.5); --tw-ring-offset-shadow: 0 0 transparent; --tw-ring-shadow: 0 0 transparent; --tw-shadow: 0 0 transparent; --tw-shadow-colored: 0 0 transparent; --tw-blur: ; --tw-brightness: ; --tw-contrast: ; --tw-grayscale: ; --tw-hue-rotate: ; --tw-invert: ; --tw-saturate: ; --tw-sepia: ; --tw-drop-shadow: ; --tw-backdrop-blur: ; --tw-backdrop-brightness: ; --tw-backdrop-contrast: ; --tw-backdrop-grayscale: ; --tw-backdrop-hue-rotate: ; --tw-backdrop-invert: ; --tw-backdrop-opacity: ; --tw-backdrop-saturate: ; --tw-backdrop-sepia: ; margin: 0px;&quot;&gt;&lt;br&gt;&lt;/p&gt;&lt;/li&gt;&lt;/ul&gt;" style="text;html=1;align=center;verticalAlign=middle;resizable=0;points=[];autosize=1;strokeColor=none;fillColor=none;" vertex="1" parent="1">
          <mxGeometry x="395" y="1795" width="30" height="80" as="geometry" />
        </mxCell>
        <mxCell id="ROrOz53BwDJJsiaq3JAJ-34" value="&lt;div&gt;&lt;font style=&quot;&quot;&gt;&lt;b style=&quot;&quot;&gt;&lt;font style=&quot;font-size: 18px;&quot;&gt;Security:&lt;/font&gt;&lt;span style=&quot;font-size: 14px;&quot;&gt;&amp;nbsp;&lt;/span&gt;&lt;/b&gt;&lt;/font&gt;&lt;/div&gt;&lt;div&gt;&lt;/div&gt;&lt;div&gt;&lt;font size=&quot;3&quot;&gt;&lt;span style=&quot;&quot;&gt;&lt;span style=&quot;white-space: pre;&quot;&gt;&amp;nbsp;&amp;nbsp;&amp;nbsp;&amp;nbsp;&lt;span style=&quot;white-space: pre;&quot;&gt;&#x9;&lt;/span&gt;&lt;/span&gt;&lt;/span&gt;Secure the application by using HTTPS for communication and implementing authentication and authorization.&lt;span style=&quot;&quot;&gt;&lt;/span&gt;&lt;/font&gt;&lt;/div&gt;&lt;div&gt;&lt;/div&gt;&lt;div&gt;&lt;span style=&quot;&quot;&gt;&lt;font size=&quot;3&quot;&gt;&lt;span style=&quot;&quot;&gt;&lt;span style=&quot;&quot;&gt;&amp;nbsp;&amp;nbsp;&amp;nbsp;&amp;nbsp;&lt;span style=&quot;&quot;&gt;&lt;span style=&quot;white-space: pre;&quot;&gt;&amp;nbsp;&amp;nbsp;&amp;nbsp;&amp;nbsp;&lt;/span&gt;&lt;/span&gt;&lt;/span&gt;&lt;/span&gt;Regularly apply security patches and updates to the application and underlying infrastructure.&lt;/font&gt;&lt;/span&gt;&lt;/div&gt;&lt;div&gt;&lt;span style=&quot;&quot;&gt;&lt;font size=&quot;3&quot;&gt;&lt;br&gt;&lt;/font&gt;&lt;/span&gt;&lt;/div&gt;&lt;div&gt;&lt;/div&gt;&lt;div&gt;&lt;/div&gt;&lt;div&gt;&lt;/div&gt;&lt;div&gt;&lt;font size=&quot;3&quot;&gt;&lt;b&gt;Performance Considerations:&amp;nbsp;&lt;/b&gt;&lt;/font&gt;&lt;/div&gt;&lt;div&gt;&lt;/div&gt;&lt;div&gt;&lt;font size=&quot;3&quot;&gt;&amp;nbsp; &amp;nbsp; &lt;span style=&quot;&quot;&gt;&lt;span style=&quot;white-space: pre;&quot;&gt;&amp;nbsp;&amp;nbsp;&amp;nbsp;&amp;nbsp;&lt;/span&gt;&lt;/span&gt;For read-heavy workloads, utilize caching to reduce the load on the database.&lt;/font&gt;&lt;/div&gt;&lt;div&gt;&lt;/div&gt;&lt;div&gt;&lt;/div&gt;&lt;div&gt;&lt;/div&gt;&lt;div&gt;&lt;font size=&quot;3&quot;&gt;&lt;b&gt;&lt;br&gt;&lt;/b&gt;&lt;/font&gt;&lt;/div&gt;&lt;div&gt;&lt;font size=&quot;3&quot;&gt;&lt;b&gt;Logging and Monitoring:&amp;nbsp;&lt;/b&gt;&lt;/font&gt;&lt;/div&gt;&lt;div&gt;&lt;/div&gt;&lt;div&gt;&lt;span style=&quot;&quot;&gt;&lt;font size=&quot;3&quot;&gt;&lt;span style=&quot;&quot;&gt;&lt;span style=&quot;&quot;&gt;&amp;nbsp;&amp;nbsp;&amp;nbsp;&amp;nbsp;&lt;span style=&quot;&quot;&gt;&lt;span style=&quot;white-space: pre;&quot;&gt;&amp;nbsp;&amp;nbsp;&amp;nbsp;&amp;nbsp;&lt;/span&gt;&lt;/span&gt;&lt;/span&gt;&lt;/span&gt;Use tools like Prometheus and Grafana for application monitoring, error tracking, and logging to help with debugging and performance optimization.&lt;/font&gt;&lt;/span&gt;&lt;/div&gt;&lt;div&gt;&lt;span style=&quot;&quot;&gt;&lt;font size=&quot;3&quot;&gt;&lt;b&gt;&lt;br&gt;&lt;/b&gt;&lt;/font&gt;&lt;/span&gt;&lt;/div&gt;&lt;div&gt;&lt;font size=&quot;3&quot;&gt;&lt;b&gt;Separation of Concerns:&lt;/b&gt; Code modularity&amp;nbsp;&lt;br&gt;&lt;br&gt;&lt;b&gt;Testing:&lt;/b&gt; Write unit tests.&lt;br&gt;&lt;br&gt;&lt;b&gt;Deployment:&lt;/b&gt; Integrate CI/CD deployment pipeline&lt;/font&gt;&lt;/div&gt;" style="text;html=1;align=left;verticalAlign=middle;resizable=0;points=[];autosize=1;strokeColor=none;fillColor=none;" vertex="1" parent="1">
          <mxGeometry x="5" y="1740" width="1100" height="300" as="geometry" />
        </mxCell>
      </root>
    </mxGraphModel>
  </diagram>
</mxfile>
